<svg width="48" height="58" viewBox="0 0 48 58" fill="none" xmlns="http://www.w3.org/2000/svg">
<path d="M4.992 47.904L4.896 48H4.8C4.224 48 3.68 47.936 3.168 47.808C2.72 47.616 2.304 47.392 1.92 47.136C1.536 46.816 1.184 46.464 0.864 46.08C0.608 45.696 0.384 45.28 0.192 44.832C0.064 44.32 0 43.776 0 43.2V43.104L0.096 43.008H4.992V47.904ZM4.608 47.904V43.008H9.504L9.6 43.104V43.2C9.6 43.776 9.504 44.32 9.312 44.832C9.184 45.28 8.96 45.696 8.64 46.08C8.384 46.464 8.064 46.816 7.68 47.136C7.296 47.392 6.848 47.616 6.336 47.808C5.888 47.936 5.376 48 4.8 48H4.704L4.608 47.904ZM4.608 38.496L4.704 38.4H4.8C5.376 38.4 5.888 38.496 6.336 38.688C6.848 38.816 7.296 39.04 7.68 39.36C8.064 39.616 8.384 39.936 8.64 40.32C8.96 40.704 9.184 41.152 9.312 41.664C9.504 42.112 9.6 42.624 9.6 43.2V43.296L9.504 43.392H4.608V38.496ZM4.992 38.496V43.392H0.096L0 43.296V43.2C0 42.624 0.064 42.112 0.192 41.664C0.384 41.152 0.608 40.704 0.864 40.32C1.184 39.936 1.536 39.616 1.92 39.36C2.304 39.04 2.72 38.816 3.168 38.688C3.68 38.496 4.224 38.4 4.8 38.4H4.896L4.992 38.496ZM4.992 38.304L4.896 38.4H4.8C4.224 38.4 3.68 38.336 3.168 38.208C2.72 38.016 2.304 37.792 1.92 37.536C1.536 37.216 1.184 36.864 0.864 36.48C0.608 36.096 0.384 35.68 0.192 35.232C0.064 34.72 0 34.176 0 33.6V33.504L0.096 33.408H4.992V38.304ZM4.608 38.304V33.408H9.504L9.6 33.504V33.6C9.6 34.176 9.504 34.72 9.312 35.232C9.184 35.68 8.96 36.096 8.64 36.48C8.384 36.864 8.064 37.216 7.68 37.536C7.296 37.792 6.848 38.016 6.336 38.208C5.888 38.336 5.376 38.4 4.8 38.4H4.704L4.608 38.304ZM4.608 28.896L4.704 28.8H4.8C5.376 28.8 5.888 28.896 6.336 29.088C6.848 29.216 7.296 29.44 7.68 29.76C8.064 30.016 8.384 30.336 8.64 30.72C8.96 31.104 9.184 31.552 9.312 32.064C9.504 32.512 9.6 33.024 9.6 33.6V33.696L9.504 33.792H4.608V28.896ZM4.992 28.896V33.792H0.096L0 33.696V33.6C0 33.024 0.064 32.512 0.192 32.064C0.384 31.552 0.608 31.104 0.864 30.72C1.184 30.336 1.536 30.016 1.92 29.76C2.304 29.44 2.72 29.216 3.168 29.088C3.68 28.896 4.224 28.8 4.8 28.8H4.896L4.992 28.896ZM14.592 47.904L14.496 48H14.4C13.824 48 13.28 47.936 12.768 47.808C12.32 47.616 11.904 47.392 11.52 47.136C11.136 46.816 10.784 46.464 10.464 46.08C10.208 45.696 9.984 45.28 9.792 44.832C9.664 44.32 9.6 43.776 9.6 43.2V43.104L9.696 43.008H14.592V47.904ZM14.208 47.904V43.008H19.104L19.2 43.104V43.2C19.2 43.776 19.104 44.32 18.912 44.832C18.784 45.28 18.56 45.696 18.24 46.08C17.984 46.464 17.664 46.816 17.28 47.136C16.896 47.392 16.448 47.616 15.936 47.808C15.488 47.936 14.976 48 14.4 48H14.304L14.208 47.904ZM14.208 38.496L14.304 38.4H14.4C14.976 38.4 15.488 38.496 15.936 38.688C16.448 38.816 16.896 39.04 17.28 39.36C17.664 39.616 17.984 39.936 18.24 40.32C18.56 40.704 18.784 41.152 18.912 41.664C19.104 42.112 19.2 42.624 19.2 43.2V43.296L19.104 43.392H14.208V38.496ZM14.592 38.496V43.392H9.696L9.6 43.296V43.2C9.6 42.624 9.664 42.112 9.792 41.664C9.984 41.152 10.208 40.704 10.464 40.32C10.784 39.936 11.136 39.616 11.52 39.36C11.904 39.04 12.32 38.816 12.768 38.688C13.28 38.496 13.824 38.4 14.4 38.4H14.496L14.592 38.496ZM14.592 28.704L14.496 28.8H14.4C13.824 28.8 13.28 28.736 12.768 28.608C12.32 28.416 11.904 28.192 11.52 27.936C11.136 27.616 10.784 27.264 10.464 26.88C10.208 26.496 9.984 26.08 9.792 25.632C9.664 25.12 9.6 24.576 9.6 24V23.904L9.696 23.808H14.592V28.704ZM14.208 28.704V23.808H19.104L19.2 23.904V24C19.2 24.576 19.104 25.12 18.912 25.632C18.784 26.08 18.56 26.496 18.24 26.88C17.984 27.264 17.664 27.616 17.28 27.936C16.896 28.192 16.448 28.416 15.936 28.608C15.488 28.736 14.976 28.8 14.4 28.8H14.304L14.208 28.704ZM14.208 19.296L14.304 19.2H14.4C14.976 19.2 15.488 19.296 15.936 19.488C16.448 19.616 16.896 19.84 17.28 20.16C17.664 20.416 17.984 20.736 18.24 21.12C18.56 21.504 18.784 21.952 18.912 22.464C19.104 22.912 19.2 23.424 19.2 24V24.096L19.104 24.192H14.208V19.296ZM14.592 19.296V24.192H9.696L9.6 24.096V24C9.6 23.424 9.664 22.912 9.792 22.464C9.984 21.952 10.208 21.504 10.464 21.12C10.784 20.736 11.136 20.416 11.52 20.16C11.904 19.84 12.32 19.616 12.768 19.488C13.28 19.296 13.824 19.2 14.4 19.2H14.496L14.592 19.296ZM24.192 47.904L24.096 48H24C23.424 48 22.88 47.936 22.368 47.808C21.92 47.616 21.504 47.392 21.12 47.136C20.736 46.816 20.384 46.464 20.064 46.08C19.808 45.696 19.584 45.28 19.392 44.832C19.264 44.32 19.2 43.776 19.2 43.2V43.104L19.296 43.008H24.192V47.904ZM23.808 47.904V43.008H28.704L28.8 43.104V43.2C28.8 43.776 28.704 44.32 28.512 44.832C28.384 45.28 28.16 45.696 27.84 46.08C27.584 46.464 27.264 46.816 26.88 47.136C26.496 47.392 26.048 47.616 25.536 47.808C25.088 47.936 24.576 48 24 48H23.904L23.808 47.904ZM23.808 38.496L23.904 38.4H24C24.576 38.4 25.088 38.496 25.536 38.688C26.048 38.816 26.496 39.04 26.88 39.36C27.264 39.616 27.584 39.936 27.84 40.32C28.16 40.704 28.384 41.152 28.512 41.664C28.704 42.112 28.8 42.624 28.8 43.2V43.296L28.704 43.392H23.808V38.496ZM24.192 38.496V43.392H19.296L19.2 43.296V43.2C19.2 42.624 19.264 42.112 19.392 41.664C19.584 41.152 19.808 40.704 20.064 40.32C20.384 39.936 20.736 39.616 21.12 39.36C21.504 39.04 21.92 38.816 22.368 38.688C22.88 38.496 23.424 38.4 24 38.4H24.096L24.192 38.496ZM24.192 19.104L24.096 19.2H24C23.424 19.2 22.88 19.136 22.368 19.008C21.92 18.816 21.504 18.592 21.12 18.336C20.736 18.016 20.384 17.664 20.064 17.28C19.808 16.896 19.584 16.48 19.392 16.032C19.264 15.52 19.2 14.976 19.2 14.4V14.304L19.296 14.208H24.192V19.104ZM23.808 19.104V14.208H28.704L28.8 14.304V14.4C28.8 14.976 28.704 15.52 28.512 16.032C28.384 16.48 28.16 16.896 27.84 17.28C27.584 17.664 27.264 18.016 26.88 18.336C26.496 18.592 26.048 18.816 25.536 19.008C25.088 19.136 24.576 19.2 24 19.2H23.904L23.808 19.104ZM23.808 9.696L23.904 9.6H24C24.576 9.6 25.088 9.696 25.536 9.888C26.048 10.016 26.496 10.24 26.88 10.56C27.264 10.816 27.584 11.136 27.84 11.52C28.16 11.904 28.384 12.352 28.512 12.864C28.704 13.312 28.8 13.824 28.8 14.4V14.496L28.704 14.592H23.808V9.696ZM24.192 9.696V14.592H19.296L19.2 14.496V14.4C19.2 13.824 19.264 13.312 19.392 12.864C19.584 12.352 19.808 11.904 20.064 11.52C20.384 11.136 20.736 10.816 21.12 10.56C21.504 10.24 21.92 10.016 22.368 9.888C22.88 9.696 23.424 9.6 24 9.6H24.096L24.192 9.696ZM33.792 57.504L33.696 57.6H33.6C33.024 57.6 32.48 57.536 31.968 57.408C31.52 57.216 31.104 56.992 30.72 56.736C30.336 56.416 29.984 56.064 29.664 55.68C29.408 55.296 29.184 54.88 28.992 54.432C28.864 53.92 28.8 53.376 28.8 52.8V52.704L28.896 52.608H33.792V57.504ZM33.408 57.504V52.608H38.304L38.4 52.704V52.8C38.4 53.376 38.304 53.92 38.112 54.432C37.984 54.88 37.76 55.296 37.44 55.68C37.184 56.064 36.864 56.416 36.48 56.736C36.096 56.992 35.648 57.216 35.136 57.408C34.688 57.536 34.176 57.6 33.6 57.6H33.504L33.408 57.504ZM33.408 48.096L33.504 48H33.6C34.176 48 34.688 48.096 35.136 48.288C35.648 48.416 36.096 48.64 36.48 48.96C36.864 49.216 37.184 49.536 37.44 49.92C37.76 50.304 37.984 50.752 38.112 51.264C38.304 51.712 38.4 52.224 38.4 52.8V52.896L38.304 52.992H33.408V48.096ZM33.792 48.096V52.992H28.896L28.8 52.896V52.8C28.8 52.224 28.864 51.712 28.992 51.264C29.184 50.752 29.408 50.304 29.664 49.92C29.984 49.536 30.336 49.216 30.72 48.96C31.104 48.64 31.52 48.416 31.968 48.288C32.48 48.096 33.024 48 33.6 48H33.696L33.792 48.096ZM33.792 47.904L33.696 48H33.6C33.024 48 32.48 47.936 31.968 47.808C31.52 47.616 31.104 47.392 30.72 47.136C30.336 46.816 29.984 46.464 29.664 46.08C29.408 45.696 29.184 45.28 28.992 44.832C28.864 44.32 28.8 43.776 28.8 43.2V43.104L28.896 43.008H33.792V47.904ZM33.408 47.904V43.008H38.304L38.4 43.104V43.2C38.4 43.776 38.304 44.32 38.112 44.832C37.984 45.28 37.76 45.696 37.44 46.08C37.184 46.464 36.864 46.816 36.48 47.136C36.096 47.392 35.648 47.616 35.136 47.808C34.688 47.936 34.176 48 33.6 48H33.504L33.408 47.904ZM33.408 38.496L33.504 38.4H33.6C34.176 38.4 34.688 38.496 35.136 38.688C35.648 38.816 36.096 39.04 36.48 39.36C36.864 39.616 37.184 39.936 37.44 40.32C37.76 40.704 37.984 41.152 38.112 41.664C38.304 42.112 38.4 42.624 38.4 43.2V43.296L38.304 43.392H33.408V38.496ZM33.792 38.496V43.392H28.896L28.8 43.296V43.2C28.8 42.624 28.864 42.112 28.992 41.664C29.184 41.152 29.408 40.704 29.664 40.32C29.984 39.936 30.336 39.616 30.72 39.36C31.104 39.04 31.52 38.816 31.968 38.688C32.48 38.496 33.024 38.4 33.6 38.4H33.696L33.792 38.496ZM33.792 38.304L33.696 38.4H33.6C33.024 38.4 32.48 38.336 31.968 38.208C31.52 38.016 31.104 37.792 30.72 37.536C30.336 37.216 29.984 36.864 29.664 36.48C29.408 36.096 29.184 35.68 28.992 35.232C28.864 34.72 28.8 34.176 28.8 33.6V33.504L28.896 33.408H33.792V38.304ZM33.408 38.304V33.408H38.304L38.4 33.504V33.6C38.4 34.176 38.304 34.72 38.112 35.232C37.984 35.68 37.76 36.096 37.44 36.48C37.184 36.864 36.864 37.216 36.48 37.536C36.096 37.792 35.648 38.016 35.136 38.208C34.688 38.336 34.176 38.4 33.6 38.4H33.504L33.408 38.304ZM33.408 28.896L33.504 28.8H33.6C34.176 28.8 34.688 28.896 35.136 29.088C35.648 29.216 36.096 29.44 36.48 29.76C36.864 30.016 37.184 30.336 37.44 30.72C37.76 31.104 37.984 31.552 38.112 32.064C38.304 32.512 38.4 33.024 38.4 33.6V33.696L38.304 33.792H33.408V28.896ZM33.792 28.896V33.792H28.896L28.8 33.696V33.6C28.8 33.024 28.864 32.512 28.992 32.064C29.184 31.552 29.408 31.104 29.664 30.72C29.984 30.336 30.336 30.016 30.72 29.76C31.104 29.44 31.52 29.216 31.968 29.088C32.48 28.896 33.024 28.8 33.6 28.8H33.696L33.792 28.896ZM33.792 28.704L33.696 28.8H33.6C33.024 28.8 32.48 28.736 31.968 28.608C31.52 28.416 31.104 28.192 30.72 27.936C30.336 27.616 29.984 27.264 29.664 26.88C29.408 26.496 29.184 26.08 28.992 25.632C28.864 25.12 28.8 24.576 28.8 24V23.904L28.896 23.808H33.792V28.704ZM33.408 28.704V23.808H38.304L38.4 23.904V24C38.4 24.576 38.304 25.12 38.112 25.632C37.984 26.08 37.76 26.496 37.44 26.88C37.184 27.264 36.864 27.616 36.48 27.936C36.096 28.192 35.648 28.416 35.136 28.608C34.688 28.736 34.176 28.8 33.6 28.8H33.504L33.408 28.704ZM33.408 19.296L33.504 19.2H33.6C34.176 19.2 34.688 19.296 35.136 19.488C35.648 19.616 36.096 19.84 36.48 20.16C36.864 20.416 37.184 20.736 37.44 21.12C37.76 21.504 37.984 21.952 38.112 22.464C38.304 22.912 38.4 23.424 38.4 24V24.096L38.304 24.192H33.408V19.296ZM33.792 19.296V24.192H28.896L28.8 24.096V24C28.8 23.424 28.864 22.912 28.992 22.464C29.184 21.952 29.408 21.504 29.664 21.12C29.984 20.736 30.336 20.416 30.72 20.16C31.104 19.84 31.52 19.616 31.968 19.488C32.48 19.296 33.024 19.2 33.6 19.2H33.696L33.792 19.296ZM33.792 19.104L33.696 19.2H33.6C33.024 19.2 32.48 19.136 31.968 19.008C31.52 18.816 31.104 18.592 30.72 18.336C30.336 18.016 29.984 17.664 29.664 17.28C29.408 16.896 29.184 16.48 28.992 16.032C28.864 15.52 28.8 14.976 28.8 14.4V14.304L28.896 14.208H33.792V19.104ZM33.408 19.104V14.208H38.304L38.4 14.304V14.4C38.4 14.976 38.304 15.52 38.112 16.032C37.984 16.48 37.76 16.896 37.44 17.28C37.184 17.664 36.864 18.016 36.48 18.336C36.096 18.592 35.648 18.816 35.136 19.008C34.688 19.136 34.176 19.2 33.6 19.2H33.504L33.408 19.104ZM33.408 9.696L33.504 9.6H33.6C34.176 9.6 34.688 9.696 35.136 9.888C35.648 10.016 36.096 10.24 36.48 10.56C36.864 10.816 37.184 11.136 37.44 11.52C37.76 11.904 37.984 12.352 38.112 12.864C38.304 13.312 38.4 13.824 38.4 14.4V14.496L38.304 14.592H33.408V9.696ZM33.792 9.696V14.592H28.896L28.8 14.496V14.4C28.8 13.824 28.864 13.312 28.992 12.864C29.184 12.352 29.408 11.904 29.664 11.52C29.984 11.136 30.336 10.816 30.72 10.56C31.104 10.24 31.52 10.016 31.968 9.888C32.48 9.696 33.024 9.6 33.6 9.6H33.696L33.792 9.696ZM33.792 9.504L33.696 9.6H33.6C33.024 9.6 32.48 9.536 31.968 9.408C31.52 9.216 31.104 8.992 30.72 8.736C30.336 8.416 29.984 8.064 29.664 7.68C29.408 7.296 29.184 6.88 28.992 6.432C28.864 5.92 28.8 5.376 28.8 4.8V4.704L28.896 4.608H33.792V9.504ZM33.408 9.504V4.608H38.304L38.4 4.704V4.8C38.4 5.376 38.304 5.92 38.112 6.432C37.984 6.88 37.76 7.296 37.44 7.68C37.184 8.064 36.864 8.416 36.48 8.736C36.096 8.992 35.648 9.216 35.136 9.408C34.688 9.536 34.176 9.6 33.6 9.6H33.504L33.408 9.504ZM33.408 0.0959988L33.504 0H33.6C34.176 0 34.688 0.0960007 35.136 0.288002C35.648 0.416 36.096 0.639999 36.48 0.959999C36.864 1.216 37.184 1.536 37.44 1.92C37.76 2.304 37.984 2.752 38.112 3.264C38.304 3.712 38.4 4.224 38.4 4.8V4.896L38.304 4.992H33.408V0.0959988ZM33.792 0.0959988V4.992H28.896L28.8 4.896V4.8C28.8 4.224 28.864 3.712 28.992 3.264C29.184 2.752 29.408 2.304 29.664 1.92C29.984 1.536 30.336 1.216 30.72 0.959999C31.104 0.639999 31.52 0.416 31.968 0.288002C32.48 0.0960007 33.024 0 33.6 0H33.696L33.792 0.0959988ZM43.392 47.904L43.296 48H43.2C42.624 48 42.08 47.936 41.568 47.808C41.12 47.616 40.704 47.392 40.32 47.136C39.936 46.816 39.584 46.464 39.264 46.08C39.008 45.696 38.784 45.28 38.592 44.832C38.464 44.32 38.4 43.776 38.4 43.2V43.104L38.496 43.008H43.392V47.904ZM43.008 47.904V43.008H47.904L48 43.104V43.2C48 43.776 47.904 44.32 47.712 44.832C47.584 45.28 47.36 45.696 47.04 46.08C46.784 46.464 46.464 46.816 46.08 47.136C45.696 47.392 45.248 47.616 44.736 47.808C44.288 47.936 43.776 48 43.2 48H43.104L43.008 47.904ZM43.008 38.496L43.104 38.4H43.2C43.776 38.4 44.288 38.496 44.736 38.688C45.248 38.816 45.696 39.04 46.08 39.36C46.464 39.616 46.784 39.936 47.04 40.32C47.36 40.704 47.584 41.152 47.712 41.664C47.904 42.112 48 42.624 48 43.2V43.296L47.904 43.392H43.008V38.496ZM43.392 38.496V43.392H38.496L38.4 43.296V43.2C38.4 42.624 38.464 42.112 38.592 41.664C38.784 41.152 39.008 40.704 39.264 40.32C39.584 39.936 39.936 39.616 40.32 39.36C40.704 39.04 41.12 38.816 41.568 38.688C42.08 38.496 42.624 38.4 43.2 38.4H43.296L43.392 38.496Z" fill="black"/>
</svg>
