<svg width="215" height="74" viewBox="0 0 215 74" fill="none" xmlns="http://www.w3.org/2000/svg">
<path d="M4.992 60.544L4.864 60.672H4.736C4.13867 60.672 3.584 60.5867 3.072 60.416C2.64533 60.2453 2.21867 60.032 1.792 59.776C1.45067 59.52 1.152 59.2213 0.896 58.88C0.64 58.4533 0.426667 58.0267 0.256 57.6C0.0853333 57.088 0 56.5333 0 55.936V55.808L0.128 55.68H4.992V60.544ZM4.48 60.544V55.68H9.344L9.472 55.808V55.936C9.472 56.5333 9.38667 57.088 9.216 57.6C9.04533 58.0267 8.832 58.4533 8.576 58.88C8.32 59.2213 7.97867 59.52 7.552 59.776C7.21067 60.032 6.784 60.2453 6.272 60.416C5.84533 60.5867 5.33333 60.672 4.736 60.672H4.608L4.48 60.544ZM4.48 51.328L4.608 51.2H4.736C5.33333 51.2 5.84533 51.2853 6.272 51.456C6.784 51.6267 7.21067 51.84 7.552 52.096C7.97867 52.352 8.32 52.6933 8.576 53.12C8.832 53.4613 9.04533 53.888 9.216 54.4C9.38667 54.8267 9.472 55.3387 9.472 55.936V56.064L9.344 56.192H4.48V51.328ZM4.992 51.328V56.192H0.128L0 56.064V55.936C0 55.3387 0.0853333 54.8267 0.256 54.4C0.426667 53.888 0.64 53.4613 0.896 53.12C1.152 52.6933 1.45067 52.352 1.792 52.096C2.21867 51.84 2.64533 51.6267 3.072 51.456C3.584 51.2853 4.13867 51.2 4.736 51.2H4.864L4.992 51.328ZM4.992 47.744L4.864 47.872H4.736C4.13867 47.872 3.584 47.7867 3.072 47.616C2.64533 47.4453 2.21867 47.232 1.792 46.976C1.45067 46.72 1.152 46.4213 0.896 46.08C0.64 45.6533 0.426667 45.2267 0.256 44.8C0.0853333 44.288 0 43.7333 0 43.136V43.008L0.128 42.88H4.992V47.744ZM4.48 47.744V42.88H9.344L9.472 43.008V43.136C9.472 43.7333 9.38667 44.288 9.216 44.8C9.04533 45.2267 8.832 45.6533 8.576 46.08C8.32 46.4213 7.97867 46.72 7.552 46.976C7.21067 47.232 6.784 47.4453 6.272 47.616C5.84533 47.7867 5.33333 47.872 4.736 47.872H4.608L4.48 47.744ZM4.48 38.528L4.608 38.4H4.736C5.33333 38.4 5.84533 38.4853 6.272 38.656C6.784 38.8267 7.21067 39.04 7.552 39.296C7.97867 39.552 8.32 39.8933 8.576 40.32C8.832 40.6613 9.04533 41.088 9.216 41.6C9.38667 42.0267 9.472 42.5387 9.472 43.136V43.264L9.344 43.392H4.48V38.528ZM4.992 38.528V43.392H0.128L0 43.264V43.136C0 42.5387 0.0853333 42.0267 0.256 41.6C0.426667 41.088 0.64 40.6613 0.896 40.32C1.152 39.8933 1.45067 39.552 1.792 39.296C2.21867 39.04 2.64533 38.8267 3.072 38.656C3.584 38.4853 4.13867 38.4 4.736 38.4H4.864L4.992 38.528ZM4.992 34.944L4.864 35.072H4.736C4.13867 35.072 3.584 34.9867 3.072 34.816C2.64533 34.6453 2.21867 34.432 1.792 34.176C1.45067 33.92 1.152 33.6213 0.896 33.28C0.64 32.8533 0.426667 32.4267 0.256 32C0.0853333 31.488 0 30.9333 0 30.336V30.208L0.128 30.08H4.992V34.944ZM4.48 34.944V30.08H9.344L9.472 30.208V30.336C9.472 30.9333 9.38667 31.488 9.216 32C9.04533 32.4267 8.832 32.8533 8.576 33.28C8.32 33.6213 7.97867 33.92 7.552 34.176C7.21067 34.432 6.784 34.6453 6.272 34.816C5.84533 34.9867 5.33333 35.072 4.736 35.072H4.608L4.48 34.944ZM4.48 25.728L4.608 25.6H4.736C5.33333 25.6 5.84533 25.6853 6.272 25.856C6.784 26.0267 7.21067 26.24 7.552 26.496C7.97867 26.752 8.32 27.0933 8.576 27.52C8.832 27.8613 9.04533 28.288 9.216 28.8C9.38667 29.2267 9.472 29.7387 9.472 30.336V30.464L9.344 30.592H4.48V25.728ZM4.992 25.728V30.592H0.128L0 30.464V30.336C0 29.7387 0.0853333 29.2267 0.256 28.8C0.426667 28.288 0.64 27.8613 0.896 27.52C1.152 27.0933 1.45067 26.752 1.792 26.496C2.21867 26.24 2.64533 26.0267 3.072 25.856C3.584 25.6853 4.13867 25.6 4.736 25.6H4.864L4.992 25.728ZM4.992 22.144L4.864 22.272H4.736C4.13867 22.272 3.584 22.1867 3.072 22.016C2.64533 21.8453 2.21867 21.632 1.792 21.376C1.45067 21.12 1.152 20.8213 0.896 20.48C0.64 20.0533 0.426667 19.6267 0.256 19.2C0.0853333 18.688 0 18.1333 0 17.536V17.408L0.128 17.28H4.992V22.144ZM4.48 22.144V17.28H9.344L9.472 17.408V17.536C9.472 18.1333 9.38667 18.688 9.216 19.2C9.04533 19.6267 8.832 20.0533 8.576 20.48C8.32 20.8213 7.97867 21.12 7.552 21.376C7.21067 21.632 6.784 21.8453 6.272 22.016C5.84533 22.1867 5.33333 22.272 4.736 22.272H4.608L4.48 22.144ZM4.48 12.928L4.608 12.8H4.736C5.33333 12.8 5.84533 12.8853 6.272 13.056C6.784 13.2267 7.21067 13.44 7.552 13.696C7.97867 13.952 8.32 14.2933 8.576 14.72C8.832 15.0613 9.04533 15.488 9.216 16C9.38667 16.4267 9.472 16.9387 9.472 17.536V17.664L9.344 17.792H4.48V12.928ZM4.992 12.928V17.792H0.128L0 17.664V17.536C0 16.9387 0.0853333 16.4267 0.256 16C0.426667 15.488 0.64 15.0613 0.896 14.72C1.152 14.2933 1.45067 13.952 1.792 13.696C2.21867 13.44 2.64533 13.2267 3.072 13.056C3.584 12.8853 4.13867 12.8 4.736 12.8H4.864L4.992 12.928ZM17.792 73.344L17.664 73.472H17.536C16.9387 73.472 16.384 73.3867 15.872 73.216C15.4453 73.0453 15.0187 72.832 14.592 72.576C14.2507 72.32 13.952 72.0213 13.696 71.68C13.44 71.2533 13.2267 70.8267 13.056 70.4C12.8853 69.888 12.8 69.3333 12.8 68.736V68.608L12.928 68.48H17.792V73.344ZM17.28 73.344V68.48H22.144L22.272 68.608V68.736C22.272 69.3333 22.1867 69.888 22.016 70.4C21.8453 70.8267 21.632 71.2533 21.376 71.68C21.12 72.0213 20.7787 72.32 20.352 72.576C20.0107 72.832 19.584 73.0453 19.072 73.216C18.6453 73.3867 18.1333 73.472 17.536 73.472H17.408L17.28 73.344ZM17.28 64.128L17.408 64H17.536C18.1333 64 18.6453 64.0853 19.072 64.256C19.584 64.4267 20.0107 64.64 20.352 64.896C20.7787 65.152 21.12 65.4933 21.376 65.92C21.632 66.2613 21.8453 66.688 22.016 67.2C22.1867 67.6267 22.272 68.1387 22.272 68.736V68.864L22.144 68.992H17.28V64.128ZM17.792 64.128V68.992H12.928L12.8 68.864V68.736C12.8 68.1387 12.8853 67.6267 13.056 67.2C13.2267 66.688 13.44 66.2613 13.696 65.92C13.952 65.4933 14.2507 65.152 14.592 64.896C15.0187 64.64 15.4453 64.4267 15.872 64.256C16.384 64.0853 16.9387 64 17.536 64H17.664L17.792 64.128ZM17.792 9.344L17.664 9.472H17.536C16.9387 9.472 16.384 9.38667 15.872 9.216C15.4453 9.04533 15.0187 8.832 14.592 8.576C14.2507 8.32 13.952 8.02133 13.696 7.68C13.44 7.25333 13.2267 6.82667 13.056 6.4C12.8853 5.888 12.8 5.33333 12.8 4.736V4.608L12.928 4.48H17.792V9.344ZM17.28 9.344V4.48H22.144L22.272 4.608V4.736C22.272 5.33333 22.1867 5.888 22.016 6.4C21.8453 6.82667 21.632 7.25333 21.376 7.68C21.12 8.02133 20.7787 8.32 20.352 8.576C20.0107 8.832 19.584 9.04533 19.072 9.216C18.6453 9.38667 18.1333 9.472 17.536 9.472H17.408L17.28 9.344ZM17.28 0.127998L17.408 0H17.536C18.1333 0 18.6453 0.0853322 19.072 0.255997C19.584 0.426666 20.0107 0.639999 20.352 0.895996C20.7787 1.152 21.12 1.49333 21.376 1.92C21.632 2.26133 21.8453 2.688 22.016 3.2C22.1867 3.62666 22.272 4.13866 22.272 4.736V4.864L22.144 4.992H17.28V0.127998ZM17.792 0.127998V4.992H12.928L12.8 4.864V4.736C12.8 4.13866 12.8853 3.62666 13.056 3.2C13.2267 2.688 13.44 2.26133 13.696 1.92C13.952 1.49333 14.2507 1.152 14.592 0.895996C15.0187 0.639999 15.4453 0.426666 15.872 0.255997C16.384 0.0853322 16.9387 0 17.536 0H17.664L17.792 0.127998ZM30.592 73.344L30.464 73.472H30.336C29.7387 73.472 29.184 73.3867 28.672 73.216C28.2453 73.0453 27.8187 72.832 27.392 72.576C27.0507 72.32 26.752 72.0213 26.496 71.68C26.24 71.2533 26.0267 70.8267 25.856 70.4C25.6853 69.888 25.6 69.3333 25.6 68.736V68.608L25.728 68.48H30.592V73.344ZM30.08 73.344V68.48H34.944L35.072 68.608V68.736C35.072 69.3333 34.9867 69.888 34.816 70.4C34.6453 70.8267 34.432 71.2533 34.176 71.68C33.92 72.0213 33.5787 72.32 33.152 72.576C32.8107 72.832 32.384 73.0453 31.872 73.216C31.4453 73.3867 30.9333 73.472 30.336 73.472H30.208L30.08 73.344ZM30.08 64.128L30.208 64H30.336C30.9333 64 31.4453 64.0853 31.872 64.256C32.384 64.4267 32.8107 64.64 33.152 64.896C33.5787 65.152 33.92 65.4933 34.176 65.92C34.432 66.2613 34.6453 66.688 34.816 67.2C34.9867 67.6267 35.072 68.1387 35.072 68.736V68.864L34.944 68.992H30.08V64.128ZM30.592 64.128V68.992H25.728L25.6 68.864V68.736C25.6 68.1387 25.6853 67.6267 25.856 67.2C26.0267 66.688 26.24 66.2613 26.496 65.92C26.752 65.4933 27.0507 65.152 27.392 64.896C27.8187 64.64 28.2453 64.4267 28.672 64.256C29.184 64.0853 29.7387 64 30.336 64H30.464L30.592 64.128ZM30.592 9.344L30.464 9.472H30.336C29.7387 9.472 29.184 9.38667 28.672 9.216C28.2453 9.04533 27.8187 8.832 27.392 8.576C27.0507 8.32 26.752 8.02133 26.496 7.68C26.24 7.25333 26.0267 6.82667 25.856 6.4C25.6853 5.888 25.6 5.33333 25.6 4.736V4.608L25.728 4.48H30.592V9.344ZM30.08 9.344V4.48H34.944L35.072 4.608V4.736C35.072 5.33333 34.9867 5.888 34.816 6.4C34.6453 6.82667 34.432 7.25333 34.176 7.68C33.92 8.02133 33.5787 8.32 33.152 8.576C32.8107 8.832 32.384 9.04533 31.872 9.216C31.4453 9.38667 30.9333 9.472 30.336 9.472H30.208L30.08 9.344ZM30.08 0.127998L30.208 0H30.336C30.9333 0 31.4453 0.0853322 31.872 0.255997C32.384 0.426666 32.8107 0.639999 33.152 0.895996C33.5787 1.152 33.92 1.49333 34.176 1.92C34.432 2.26133 34.6453 2.688 34.816 3.2C34.9867 3.62666 35.072 4.13866 35.072 4.736V4.864L34.944 4.992H30.08V0.127998ZM30.592 0.127998V4.992H25.728L25.6 4.864V4.736C25.6 4.13866 25.6853 3.62666 25.856 3.2C26.0267 2.688 26.24 2.26133 26.496 1.92C26.752 1.49333 27.0507 1.152 27.392 0.895996C27.8187 0.639999 28.2453 0.426666 28.672 0.255997C29.184 0.0853322 29.7387 0 30.336 0H30.464L30.592 0.127998ZM43.392 73.344L43.264 73.472H43.136C42.5387 73.472 41.984 73.3867 41.472 73.216C41.0453 73.0453 40.6187 72.832 40.192 72.576C39.8507 72.32 39.552 72.0213 39.296 71.68C39.04 71.2533 38.8267 70.8267 38.656 70.4C38.4853 69.888 38.4 69.3333 38.4 68.736V68.608L38.528 68.48H43.392V73.344ZM42.88 73.344V68.48H47.744L47.872 68.608V68.736C47.872 69.3333 47.7867 69.888 47.616 70.4C47.4453 70.8267 47.232 71.2533 46.976 71.68C46.72 72.0213 46.3787 72.32 45.952 72.576C45.6107 72.832 45.184 73.0453 44.672 73.216C44.2453 73.3867 43.7333 73.472 43.136 73.472H43.008L42.88 73.344ZM42.88 64.128L43.008 64H43.136C43.7333 64 44.2453 64.0853 44.672 64.256C45.184 64.4267 45.6107 64.64 45.952 64.896C46.3787 65.152 46.72 65.4933 46.976 65.92C47.232 66.2613 47.4453 66.688 47.616 67.2C47.7867 67.6267 47.872 68.1387 47.872 68.736V68.864L47.744 68.992H42.88V64.128ZM43.392 64.128V68.992H38.528L38.4 68.864V68.736C38.4 68.1387 38.4853 67.6267 38.656 67.2C38.8267 66.688 39.04 66.2613 39.296 65.92C39.552 65.4933 39.8507 65.152 40.192 64.896C40.6187 64.64 41.0453 64.4267 41.472 64.256C41.984 64.0853 42.5387 64 43.136 64H43.264L43.392 64.128ZM43.392 9.344L43.264 9.472H43.136C42.5387 9.472 41.984 9.38667 41.472 9.216C41.0453 9.04533 40.6187 8.832 40.192 8.576C39.8507 8.32 39.552 8.02133 39.296 7.68C39.04 7.25333 38.8267 6.82667 38.656 6.4C38.4853 5.888 38.4 5.33333 38.4 4.736V4.608L38.528 4.48H43.392V9.344ZM42.88 9.344V4.48H47.744L47.872 4.608V4.736C47.872 5.33333 47.7867 5.888 47.616 6.4C47.4453 6.82667 47.232 7.25333 46.976 7.68C46.72 8.02133 46.3787 8.32 45.952 8.576C45.6107 8.832 45.184 9.04533 44.672 9.216C44.2453 9.38667 43.7333 9.472 43.136 9.472H43.008L42.88 9.344ZM42.88 0.127998L43.008 0H43.136C43.7333 0 44.2453 0.0853322 44.672 0.255997C45.184 0.426666 45.6107 0.639999 45.952 0.895996C46.3787 1.152 46.72 1.49333 46.976 1.92C47.232 2.26133 47.4453 2.688 47.616 3.2C47.7867 3.62666 47.872 4.13866 47.872 4.736V4.864L47.744 4.992H42.88V0.127998ZM43.392 0.127998V4.992H38.528L38.4 4.864V4.736C38.4 4.13866 38.4853 3.62666 38.656 3.2C38.8267 2.688 39.04 2.26133 39.296 1.92C39.552 1.49333 39.8507 1.152 40.192 0.895996C40.6187 0.639999 41.0453 0.426666 41.472 0.255997C41.984 0.0853322 42.5387 0 43.136 0H43.264L43.392 0.127998ZM56.192 60.544L56.064 60.672H55.936C55.3387 60.672 54.784 60.5867 54.272 60.416C53.8453 60.2453 53.4187 60.032 52.992 59.776C52.6507 59.52 52.352 59.2213 52.096 58.88C51.84 58.4533 51.6267 58.0267 51.456 57.6C51.2853 57.088 51.2 56.5333 51.2 55.936V55.808L51.328 55.68H56.192V60.544ZM55.68 60.544V55.68H60.544L60.672 55.808V55.936C60.672 56.5333 60.5867 57.088 60.416 57.6C60.2453 58.0267 60.032 58.4533 59.776 58.88C59.52 59.2213 59.1787 59.52 58.752 59.776C58.4107 60.032 57.984 60.2453 57.472 60.416C57.0453 60.5867 56.5333 60.672 55.936 60.672H55.808L55.68 60.544ZM55.68 51.328L55.808 51.2H55.936C56.5333 51.2 57.0453 51.2853 57.472 51.456C57.984 51.6267 58.4107 51.84 58.752 52.096C59.1787 52.352 59.52 52.6933 59.776 53.12C60.032 53.4613 60.2453 53.888 60.416 54.4C60.5867 54.8267 60.672 55.3387 60.672 55.936V56.064L60.544 56.192H55.68V51.328ZM56.192 51.328V56.192H51.328L51.2 56.064V55.936C51.2 55.3387 51.2853 54.8267 51.456 54.4C51.6267 53.888 51.84 53.4613 52.096 53.12C52.352 52.6933 52.6507 52.352 52.992 52.096C53.4187 51.84 53.8453 51.6267 54.272 51.456C54.784 51.2853 55.3387 51.2 55.936 51.2H56.064L56.192 51.328ZM56.192 22.144L56.064 22.272H55.936C55.3387 22.272 54.784 22.1867 54.272 22.016C53.8453 21.8453 53.4187 21.632 52.992 21.376C52.6507 21.12 52.352 20.8213 52.096 20.48C51.84 20.0533 51.6267 19.6267 51.456 19.2C51.2853 18.688 51.2 18.1333 51.2 17.536V17.408L51.328 17.28H56.192V22.144ZM55.68 22.144V17.28H60.544L60.672 17.408V17.536C60.672 18.1333 60.5867 18.688 60.416 19.2C60.2453 19.6267 60.032 20.0533 59.776 20.48C59.52 20.8213 59.1787 21.12 58.752 21.376C58.4107 21.632 57.984 21.8453 57.472 22.016C57.0453 22.1867 56.5333 22.272 55.936 22.272H55.808L55.68 22.144ZM55.68 12.928L55.808 12.8H55.936C56.5333 12.8 57.0453 12.8853 57.472 13.056C57.984 13.2267 58.4107 13.44 58.752 13.696C59.1787 13.952 59.52 14.2933 59.776 14.72C60.032 15.0613 60.2453 15.488 60.416 16C60.5867 16.4267 60.672 16.9387 60.672 17.536V17.664L60.544 17.792H55.68V12.928ZM56.192 12.928V17.792H51.328L51.2 17.664V17.536C51.2 16.9387 51.2853 16.4267 51.456 16C51.6267 15.488 51.84 15.0613 52.096 14.72C52.352 14.2933 52.6507 13.952 52.992 13.696C53.4187 13.44 53.8453 13.2267 54.272 13.056C54.784 12.8853 55.3387 12.8 55.936 12.8H56.064L56.192 12.928Z" fill="#21808D"/>
<path d="M81.742 73.344L81.614 73.472H81.486C80.8887 73.472 80.334 73.3867 79.822 73.216C79.3953 73.0453 78.9687 72.832 78.542 72.576C78.2007 72.32 77.902 72.0213 77.646 71.68C77.39 71.2533 77.1767 70.8267 77.006 70.4C76.8353 69.888 76.75 69.3333 76.75 68.736V68.608L76.878 68.48H81.742V73.344ZM81.23 73.344V68.48H86.094L86.222 68.608V68.736C86.222 69.3333 86.1367 69.888 85.966 70.4C85.7953 70.8267 85.582 71.2533 85.326 71.68C85.07 72.0213 84.7287 72.32 84.302 72.576C83.9607 72.832 83.534 73.0453 83.022 73.216C82.5953 73.3867 82.0833 73.472 81.486 73.472H81.358L81.23 73.344ZM81.23 64.128L81.358 64H81.486C82.0833 64 82.5953 64.0853 83.022 64.256C83.534 64.4267 83.9607 64.64 84.302 64.896C84.7287 65.152 85.07 65.4933 85.326 65.92C85.582 66.2613 85.7953 66.688 85.966 67.2C86.1367 67.6267 86.222 68.1387 86.222 68.736V68.864L86.094 68.992H81.23V64.128ZM81.742 64.128V68.992H76.878L76.75 68.864V68.736C76.75 68.1387 76.8353 67.6267 77.006 67.2C77.1767 66.688 77.39 66.2613 77.646 65.92C77.902 65.4933 78.2007 65.152 78.542 64.896C78.9687 64.64 79.3953 64.4267 79.822 64.256C80.334 64.0853 80.8887 64 81.486 64H81.614L81.742 64.128ZM81.742 22.144L81.614 22.272H81.486C80.8887 22.272 80.334 22.1867 79.822 22.016C79.3953 21.8453 78.9687 21.632 78.542 21.376C78.2007 21.12 77.902 20.8213 77.646 20.48C77.39 20.0533 77.1767 19.6267 77.006 19.2C76.8353 18.688 76.75 18.1333 76.75 17.536V17.408L76.878 17.28H81.742V22.144ZM81.23 22.144V17.28H86.094L86.222 17.408V17.536C86.222 18.1333 86.1367 18.688 85.966 19.2C85.7953 19.6267 85.582 20.0533 85.326 20.48C85.07 20.8213 84.7287 21.12 84.302 21.376C83.9607 21.632 83.534 21.8453 83.022 22.016C82.5953 22.1867 82.0833 22.272 81.486 22.272H81.358L81.23 22.144ZM81.23 12.928L81.358 12.8H81.486C82.0833 12.8 82.5953 12.8853 83.022 13.056C83.534 13.2267 83.9607 13.44 84.302 13.696C84.7287 13.952 85.07 14.2933 85.326 14.72C85.582 15.0613 85.7953 15.488 85.966 16C86.1367 16.4267 86.222 16.9387 86.222 17.536V17.664L86.094 17.792H81.23V12.928ZM81.742 12.928V17.792H76.878L76.75 17.664V17.536C76.75 16.9387 76.8353 16.4267 77.006 16C77.1767 15.488 77.39 15.0613 77.646 14.72C77.902 14.2933 78.2007 13.952 78.542 13.696C78.9687 13.44 79.3953 13.2267 79.822 13.056C80.334 12.8853 80.8887 12.8 81.486 12.8H81.614L81.742 12.928ZM94.542 60.544L94.414 60.672H94.286C93.6887 60.672 93.134 60.5867 92.622 60.416C92.1953 60.2453 91.7687 60.032 91.342 59.776C91.0007 59.52 90.702 59.2213 90.446 58.88C90.19 58.4533 89.9767 58.0267 89.806 57.6C89.6353 57.088 89.55 56.5333 89.55 55.936V55.808L89.678 55.68H94.542V60.544ZM94.03 60.544V55.68H98.894L99.022 55.808V55.936C99.022 56.5333 98.9367 57.088 98.766 57.6C98.5953 58.0267 98.382 58.4533 98.126 58.88C97.87 59.2213 97.5287 59.52 97.102 59.776C96.7607 60.032 96.334 60.2453 95.822 60.416C95.3953 60.5867 94.8833 60.672 94.286 60.672H94.158L94.03 60.544ZM94.03 51.328L94.158 51.2H94.286C94.8833 51.2 95.3953 51.2853 95.822 51.456C96.334 51.6267 96.7607 51.84 97.102 52.096C97.5287 52.352 97.87 52.6933 98.126 53.12C98.382 53.4613 98.5953 53.888 98.766 54.4C98.9367 54.8267 99.022 55.3387 99.022 55.936V56.064L98.894 56.192H94.03V51.328ZM94.542 51.328V56.192H89.678L89.55 56.064V55.936C89.55 55.3387 89.6353 54.8267 89.806 54.4C89.9767 53.888 90.19 53.4613 90.446 53.12C90.702 52.6933 91.0007 52.352 91.342 52.096C91.7687 51.84 92.1953 51.6267 92.622 51.456C93.134 51.2853 93.6887 51.2 94.286 51.2H94.414L94.542 51.328ZM94.542 34.944L94.414 35.072H94.286C93.6887 35.072 93.134 34.9867 92.622 34.816C92.1953 34.6453 91.7687 34.432 91.342 34.176C91.0007 33.92 90.702 33.6213 90.446 33.28C90.19 32.8533 89.9767 32.4267 89.806 32C89.6353 31.488 89.55 30.9333 89.55 30.336V30.208L89.678 30.08H94.542V34.944ZM94.03 34.944V30.08H98.894L99.022 30.208V30.336C99.022 30.9333 98.9367 31.488 98.766 32C98.5953 32.4267 98.382 32.8533 98.126 33.28C97.87 33.6213 97.5287 33.92 97.102 34.176C96.7607 34.432 96.334 34.6453 95.822 34.816C95.3953 34.9867 94.8833 35.072 94.286 35.072H94.158L94.03 34.944ZM94.03 25.728L94.158 25.6H94.286C94.8833 25.6 95.3953 25.6853 95.822 25.856C96.334 26.0267 96.7607 26.24 97.102 26.496C97.5287 26.752 97.87 27.0933 98.126 27.52C98.382 27.8613 98.5953 28.288 98.766 28.8C98.9367 29.2267 99.022 29.7387 99.022 30.336V30.464L98.894 30.592H94.03V25.728ZM94.542 25.728V30.592H89.678L89.55 30.464V30.336C89.55 29.7387 89.6353 29.2267 89.806 28.8C89.9767 28.288 90.19 27.8613 90.446 27.52C90.702 27.0933 91.0007 26.752 91.342 26.496C91.7687 26.24 92.1953 26.0267 92.622 25.856C93.134 25.6853 93.6887 25.6 94.286 25.6H94.414L94.542 25.728ZM107.342 47.744L107.214 47.872H107.086C106.489 47.872 105.934 47.7867 105.422 47.616C104.995 47.4453 104.569 47.232 104.142 46.976C103.801 46.72 103.502 46.4213 103.246 46.08C102.99 45.6533 102.777 45.2267 102.606 44.8C102.435 44.288 102.35 43.7333 102.35 43.136V43.008L102.478 42.88H107.342V47.744ZM106.83 47.744V42.88H111.694L111.822 43.008V43.136C111.822 43.7333 111.737 44.288 111.566 44.8C111.395 45.2267 111.182 45.6533 110.926 46.08C110.67 46.4213 110.329 46.72 109.902 46.976C109.561 47.232 109.134 47.4453 108.622 47.616C108.195 47.7867 107.683 47.872 107.086 47.872H106.958L106.83 47.744ZM106.83 38.528L106.958 38.4H107.086C107.683 38.4 108.195 38.4853 108.622 38.656C109.134 38.8267 109.561 39.04 109.902 39.296C110.329 39.552 110.67 39.8933 110.926 40.32C111.182 40.6613 111.395 41.088 111.566 41.6C111.737 42.0267 111.822 42.5387 111.822 43.136V43.264L111.694 43.392H106.83V38.528ZM107.342 38.528V43.392H102.478L102.35 43.264V43.136C102.35 42.5387 102.435 42.0267 102.606 41.6C102.777 41.088 102.99 40.6613 103.246 40.32C103.502 39.8933 103.801 39.552 104.142 39.296C104.569 39.04 104.995 38.8267 105.422 38.656C105.934 38.4853 106.489 38.4 107.086 38.4H107.214L107.342 38.528ZM120.142 60.544L120.014 60.672H119.886C119.289 60.672 118.734 60.5867 118.222 60.416C117.795 60.2453 117.369 60.032 116.942 59.776C116.601 59.52 116.302 59.2213 116.046 58.88C115.79 58.4533 115.577 58.0267 115.406 57.6C115.235 57.088 115.15 56.5333 115.15 55.936V55.808L115.278 55.68H120.142V60.544ZM119.63 60.544V55.68H124.494L124.622 55.808V55.936C124.622 56.5333 124.537 57.088 124.366 57.6C124.195 58.0267 123.982 58.4533 123.726 58.88C123.47 59.2213 123.129 59.52 122.702 59.776C122.361 60.032 121.934 60.2453 121.422 60.416C120.995 60.5867 120.483 60.672 119.886 60.672H119.758L119.63 60.544ZM119.63 51.328L119.758 51.2H119.886C120.483 51.2 120.995 51.2853 121.422 51.456C121.934 51.6267 122.361 51.84 122.702 52.096C123.129 52.352 123.47 52.6933 123.726 53.12C123.982 53.4613 124.195 53.888 124.366 54.4C124.537 54.8267 124.622 55.3387 124.622 55.936V56.064L124.494 56.192H119.63V51.328ZM120.142 51.328V56.192H115.278L115.15 56.064V55.936C115.15 55.3387 115.235 54.8267 115.406 54.4C115.577 53.888 115.79 53.4613 116.046 53.12C116.302 52.6933 116.601 52.352 116.942 52.096C117.369 51.84 117.795 51.6267 118.222 51.456C118.734 51.2853 119.289 51.2 119.886 51.2H120.014L120.142 51.328ZM120.142 34.944L120.014 35.072H119.886C119.289 35.072 118.734 34.9867 118.222 34.816C117.795 34.6453 117.369 34.432 116.942 34.176C116.601 33.92 116.302 33.6213 116.046 33.28C115.79 32.8533 115.577 32.4267 115.406 32C115.235 31.488 115.15 30.9333 115.15 30.336V30.208L115.278 30.08H120.142V34.944ZM119.63 34.944V30.08H124.494L124.622 30.208V30.336C124.622 30.9333 124.537 31.488 124.366 32C124.195 32.4267 123.982 32.8533 123.726 33.28C123.47 33.6213 123.129 33.92 122.702 34.176C122.361 34.432 121.934 34.6453 121.422 34.816C120.995 34.9867 120.483 35.072 119.886 35.072H119.758L119.63 34.944ZM119.63 25.728L119.758 25.6H119.886C120.483 25.6 120.995 25.6853 121.422 25.856C121.934 26.0267 122.361 26.24 122.702 26.496C123.129 26.752 123.47 27.0933 123.726 27.52C123.982 27.8613 124.195 28.288 124.366 28.8C124.537 29.2267 124.622 29.7387 124.622 30.336V30.464L124.494 30.592H119.63V25.728ZM120.142 25.728V30.592H115.278L115.15 30.464V30.336C115.15 29.7387 115.235 29.2267 115.406 28.8C115.577 28.288 115.79 27.8613 116.046 27.52C116.302 27.0933 116.601 26.752 116.942 26.496C117.369 26.24 117.795 26.0267 118.222 25.856C118.734 25.6853 119.289 25.6 119.886 25.6H120.014L120.142 25.728ZM132.942 73.344L132.814 73.472H132.686C132.089 73.472 131.534 73.3867 131.022 73.216C130.595 73.0453 130.169 72.832 129.742 72.576C129.401 72.32 129.102 72.0213 128.846 71.68C128.59 71.2533 128.377 70.8267 128.206 70.4C128.035 69.888 127.95 69.3333 127.95 68.736V68.608L128.078 68.48H132.942V73.344ZM132.43 73.344V68.48H137.294L137.422 68.608V68.736C137.422 69.3333 137.337 69.888 137.166 70.4C136.995 70.8267 136.782 71.2533 136.526 71.68C136.27 72.0213 135.929 72.32 135.502 72.576C135.161 72.832 134.734 73.0453 134.222 73.216C133.795 73.3867 133.283 73.472 132.686 73.472H132.558L132.43 73.344ZM132.43 64.128L132.558 64H132.686C133.283 64 133.795 64.0853 134.222 64.256C134.734 64.4267 135.161 64.64 135.502 64.896C135.929 65.152 136.27 65.4933 136.526 65.92C136.782 66.2613 136.995 66.688 137.166 67.2C137.337 67.6267 137.422 68.1387 137.422 68.736V68.864L137.294 68.992H132.43V64.128ZM132.942 64.128V68.992H128.078L127.95 68.864V68.736C127.95 68.1387 128.035 67.6267 128.206 67.2C128.377 66.688 128.59 66.2613 128.846 65.92C129.102 65.4933 129.401 65.152 129.742 64.896C130.169 64.64 130.595 64.4267 131.022 64.256C131.534 64.0853 132.089 64 132.686 64H132.814L132.942 64.128ZM132.942 22.144L132.814 22.272H132.686C132.089 22.272 131.534 22.1867 131.022 22.016C130.595 21.8453 130.169 21.632 129.742 21.376C129.401 21.12 129.102 20.8213 128.846 20.48C128.59 20.0533 128.377 19.6267 128.206 19.2C128.035 18.688 127.95 18.1333 127.95 17.536V17.408L128.078 17.28H132.942V22.144ZM132.43 22.144V17.28H137.294L137.422 17.408V17.536C137.422 18.1333 137.337 18.688 137.166 19.2C136.995 19.6267 136.782 20.0533 136.526 20.48C136.27 20.8213 135.929 21.12 135.502 21.376C135.161 21.632 134.734 21.8453 134.222 22.016C133.795 22.1867 133.283 22.272 132.686 22.272H132.558L132.43 22.144ZM132.43 12.928L132.558 12.8H132.686C133.283 12.8 133.795 12.8853 134.222 13.056C134.734 13.2267 135.161 13.44 135.502 13.696C135.929 13.952 136.27 14.2933 136.526 14.72C136.782 15.0613 136.995 15.488 137.166 16C137.337 16.4267 137.422 16.9387 137.422 17.536V17.664L137.294 17.792H132.43V12.928ZM132.942 12.928V17.792H128.078L127.95 17.664V17.536C127.95 16.9387 128.035 16.4267 128.206 16C128.377 15.488 128.59 15.0613 128.846 14.72C129.102 14.2933 129.401 13.952 129.742 13.696C130.169 13.44 130.595 13.2267 131.022 13.056C131.534 12.8853 132.089 12.8 132.686 12.8H132.814L132.942 12.928Z" fill="#21808D"/>
<path d="M158.492 73.344L158.364 73.472H158.236C157.639 73.472 157.084 73.3867 156.572 73.216C156.145 73.0453 155.719 72.832 155.292 72.576C154.951 72.32 154.652 72.0213 154.396 71.68C154.14 71.2533 153.927 70.8267 153.756 70.4C153.585 69.888 153.5 69.3333 153.5 68.736V68.608L153.628 68.48H158.492V73.344ZM157.98 73.344V68.48H162.844L162.972 68.608V68.736C162.972 69.3333 162.887 69.888 162.716 70.4C162.545 70.8267 162.332 71.2533 162.076 71.68C161.82 72.0213 161.479 72.32 161.052 72.576C160.711 72.832 160.284 73.0453 159.772 73.216C159.345 73.3867 158.833 73.472 158.236 73.472H158.108L157.98 73.344ZM157.98 64.128L158.108 64H158.236C158.833 64 159.345 64.0853 159.772 64.256C160.284 64.4267 160.711 64.64 161.052 64.896C161.479 65.152 161.82 65.4933 162.076 65.92C162.332 66.2613 162.545 66.688 162.716 67.2C162.887 67.6267 162.972 68.1387 162.972 68.736V68.864L162.844 68.992H157.98V64.128ZM158.492 64.128V68.992H153.628L153.5 68.864V68.736C153.5 68.1387 153.585 67.6267 153.756 67.2C153.927 66.688 154.14 66.2613 154.396 65.92C154.652 65.4933 154.951 65.152 155.292 64.896C155.719 64.64 156.145 64.4267 156.572 64.256C157.084 64.0853 157.639 64 158.236 64H158.364L158.492 64.128ZM158.492 60.544L158.364 60.672H158.236C157.639 60.672 157.084 60.5867 156.572 60.416C156.145 60.2453 155.719 60.032 155.292 59.776C154.951 59.52 154.652 59.2213 154.396 58.88C154.14 58.4533 153.927 58.0267 153.756 57.6C153.585 57.088 153.5 56.5333 153.5 55.936V55.808L153.628 55.68H158.492V60.544ZM157.98 60.544V55.68H162.844L162.972 55.808V55.936C162.972 56.5333 162.887 57.088 162.716 57.6C162.545 58.0267 162.332 58.4533 162.076 58.88C161.82 59.2213 161.479 59.52 161.052 59.776C160.711 60.032 160.284 60.2453 159.772 60.416C159.345 60.5867 158.833 60.672 158.236 60.672H158.108L157.98 60.544ZM157.98 51.328L158.108 51.2H158.236C158.833 51.2 159.345 51.2853 159.772 51.456C160.284 51.6267 160.711 51.84 161.052 52.096C161.479 52.352 161.82 52.6933 162.076 53.12C162.332 53.4613 162.545 53.888 162.716 54.4C162.887 54.8267 162.972 55.3387 162.972 55.936V56.064L162.844 56.192H157.98V51.328ZM158.492 51.328V56.192H153.628L153.5 56.064V55.936C153.5 55.3387 153.585 54.8267 153.756 54.4C153.927 53.888 154.14 53.4613 154.396 53.12C154.652 52.6933 154.951 52.352 155.292 52.096C155.719 51.84 156.145 51.6267 156.572 51.456C157.084 51.2853 157.639 51.2 158.236 51.2H158.364L158.492 51.328ZM158.492 47.744L158.364 47.872H158.236C157.639 47.872 157.084 47.7867 156.572 47.616C156.145 47.4453 155.719 47.232 155.292 46.976C154.951 46.72 154.652 46.4213 154.396 46.08C154.14 45.6533 153.927 45.2267 153.756 44.8C153.585 44.288 153.5 43.7333 153.5 43.136V43.008L153.628 42.88H158.492V47.744ZM157.98 47.744V42.88H162.844L162.972 43.008V43.136C162.972 43.7333 162.887 44.288 162.716 44.8C162.545 45.2267 162.332 45.6533 162.076 46.08C161.82 46.4213 161.479 46.72 161.052 46.976C160.711 47.232 160.284 47.4453 159.772 47.616C159.345 47.7867 158.833 47.872 158.236 47.872H158.108L157.98 47.744ZM157.98 38.528L158.108 38.4H158.236C158.833 38.4 159.345 38.4853 159.772 38.656C160.284 38.8267 160.711 39.04 161.052 39.296C161.479 39.552 161.82 39.8933 162.076 40.32C162.332 40.6613 162.545 41.088 162.716 41.6C162.887 42.0267 162.972 42.5387 162.972 43.136V43.264L162.844 43.392H157.98V38.528ZM158.492 38.528V43.392H153.628L153.5 43.264V43.136C153.5 42.5387 153.585 42.0267 153.756 41.6C153.927 41.088 154.14 40.6613 154.396 40.32C154.652 39.8933 154.951 39.552 155.292 39.296C155.719 39.04 156.145 38.8267 156.572 38.656C157.084 38.4853 157.639 38.4 158.236 38.4H158.364L158.492 38.528ZM158.492 34.944L158.364 35.072H158.236C157.639 35.072 157.084 34.9867 156.572 34.816C156.145 34.6453 155.719 34.432 155.292 34.176C154.951 33.92 154.652 33.6213 154.396 33.28C154.14 32.8533 153.927 32.4267 153.756 32C153.585 31.488 153.5 30.9333 153.5 30.336V30.208L153.628 30.08H158.492V34.944ZM157.98 34.944V30.08H162.844L162.972 30.208V30.336C162.972 30.9333 162.887 31.488 162.716 32C162.545 32.4267 162.332 32.8533 162.076 33.28C161.82 33.6213 161.479 33.92 161.052 34.176C160.711 34.432 160.284 34.6453 159.772 34.816C159.345 34.9867 158.833 35.072 158.236 35.072H158.108L157.98 34.944ZM157.98 25.728L158.108 25.6H158.236C158.833 25.6 159.345 25.6853 159.772 25.856C160.284 26.0267 160.711 26.24 161.052 26.496C161.479 26.752 161.82 27.0933 162.076 27.52C162.332 27.8613 162.545 28.288 162.716 28.8C162.887 29.2267 162.972 29.7387 162.972 30.336V30.464L162.844 30.592H157.98V25.728ZM158.492 25.728V30.592H153.628L153.5 30.464V30.336C153.5 29.7387 153.585 29.2267 153.756 28.8C153.927 28.288 154.14 27.8613 154.396 27.52C154.652 27.0933 154.951 26.752 155.292 26.496C155.719 26.24 156.145 26.0267 156.572 25.856C157.084 25.6853 157.639 25.6 158.236 25.6H158.364L158.492 25.728ZM158.492 22.144L158.364 22.272H158.236C157.639 22.272 157.084 22.1867 156.572 22.016C156.145 21.8453 155.719 21.632 155.292 21.376C154.951 21.12 154.652 20.8213 154.396 20.48C154.14 20.0533 153.927 19.6267 153.756 19.2C153.585 18.688 153.5 18.1333 153.5 17.536V17.408L153.628 17.28H158.492V22.144ZM157.98 22.144V17.28H162.844L162.972 17.408V17.536C162.972 18.1333 162.887 18.688 162.716 19.2C162.545 19.6267 162.332 20.0533 162.076 20.48C161.82 20.8213 161.479 21.12 161.052 21.376C160.711 21.632 160.284 21.8453 159.772 22.016C159.345 22.1867 158.833 22.272 158.236 22.272H158.108L157.98 22.144ZM157.98 12.928L158.108 12.8H158.236C158.833 12.8 159.345 12.8853 159.772 13.056C160.284 13.2267 160.711 13.44 161.052 13.696C161.479 13.952 161.82 14.2933 162.076 14.72C162.332 15.0613 162.545 15.488 162.716 16C162.887 16.4267 162.972 16.9387 162.972 17.536V17.664L162.844 17.792H157.98V12.928ZM158.492 12.928V17.792H153.628L153.5 17.664V17.536C153.5 16.9387 153.585 16.4267 153.756 16C153.927 15.488 154.14 15.0613 154.396 14.72C154.652 14.2933 154.951 13.952 155.292 13.696C155.719 13.44 156.145 13.2267 156.572 13.056C157.084 12.8853 157.639 12.8 158.236 12.8H158.364L158.492 12.928ZM158.492 9.344L158.364 9.472H158.236C157.639 9.472 157.084 9.38667 156.572 9.216C156.145 9.04533 155.719 8.832 155.292 8.576C154.951 8.32 154.652 8.02133 154.396 7.68C154.14 7.25333 153.927 6.82667 153.756 6.4C153.585 5.888 153.5 5.33333 153.5 4.736V4.608L153.628 4.48H158.492V9.344ZM157.98 9.344V4.48H162.844L162.972 4.608V4.736C162.972 5.33333 162.887 5.888 162.716 6.4C162.545 6.82667 162.332 7.25333 162.076 7.68C161.82 8.02133 161.479 8.32 161.052 8.576C160.711 8.832 160.284 9.04533 159.772 9.216C159.345 9.38667 158.833 9.472 158.236 9.472H158.108L157.98 9.344ZM157.98 0.127998L158.108 0H158.236C158.833 0 159.345 0.0853322 159.772 0.255997C160.284 0.426666 160.711 0.639999 161.052 0.895996C161.479 1.152 161.82 1.49333 162.076 1.92C162.332 2.26133 162.545 2.688 162.716 3.2C162.887 3.62666 162.972 4.13866 162.972 4.736V4.864L162.844 4.992H157.98V0.127998ZM158.492 0.127998V4.992H153.628L153.5 4.864V4.736C153.5 4.13866 153.585 3.62666 153.756 3.2C153.927 2.688 154.14 2.26133 154.396 1.92C154.652 1.49333 154.951 1.152 155.292 0.895996C155.719 0.639999 156.145 0.426666 156.572 0.255997C157.084 0.0853322 157.639 0 158.236 0H158.364L158.492 0.127998ZM171.292 47.744L171.164 47.872H171.036C170.439 47.872 169.884 47.7867 169.372 47.616C168.945 47.4453 168.519 47.232 168.092 46.976C167.751 46.72 167.452 46.4213 167.196 46.08C166.94 45.6533 166.727 45.2267 166.556 44.8C166.385 44.288 166.3 43.7333 166.3 43.136V43.008L166.428 42.88H171.292V47.744ZM170.78 47.744V42.88H175.644L175.772 43.008V43.136C175.772 43.7333 175.687 44.288 175.516 44.8C175.345 45.2267 175.132 45.6533 174.876 46.08C174.62 46.4213 174.279 46.72 173.852 46.976C173.511 47.232 173.084 47.4453 172.572 47.616C172.145 47.7867 171.633 47.872 171.036 47.872H170.908L170.78 47.744ZM170.78 38.528L170.908 38.4H171.036C171.633 38.4 172.145 38.4853 172.572 38.656C173.084 38.8267 173.511 39.04 173.852 39.296C174.279 39.552 174.62 39.8933 174.876 40.32C175.132 40.6613 175.345 41.088 175.516 41.6C175.687 42.0267 175.772 42.5387 175.772 43.136V43.264L175.644 43.392H170.78V38.528ZM171.292 38.528V43.392H166.428L166.3 43.264V43.136C166.3 42.5387 166.385 42.0267 166.556 41.6C166.727 41.088 166.94 40.6613 167.196 40.32C167.452 39.8933 167.751 39.552 168.092 39.296C168.519 39.04 168.945 38.8267 169.372 38.656C169.884 38.4853 170.439 38.4 171.036 38.4H171.164L171.292 38.528ZM171.292 9.344L171.164 9.472H171.036C170.439 9.472 169.884 9.38667 169.372 9.216C168.945 9.04533 168.519 8.832 168.092 8.576C167.751 8.32 167.452 8.02133 167.196 7.68C166.94 7.25333 166.727 6.82667 166.556 6.4C166.385 5.888 166.3 5.33333 166.3 4.736V4.608L166.428 4.48H171.292V9.344ZM170.78 9.344V4.48H175.644L175.772 4.608V4.736C175.772 5.33333 175.687 5.888 175.516 6.4C175.345 6.82667 175.132 7.25333 174.876 7.68C174.62 8.02133 174.279 8.32 173.852 8.576C173.511 8.832 173.084 9.04533 172.572 9.216C172.145 9.38667 171.633 9.472 171.036 9.472H170.908L170.78 9.344ZM170.78 0.127998L170.908 0H171.036C171.633 0 172.145 0.0853322 172.572 0.255997C173.084 0.426666 173.511 0.639999 173.852 0.895996C174.279 1.152 174.62 1.49333 174.876 1.92C175.132 2.26133 175.345 2.688 175.516 3.2C175.687 3.62666 175.772 4.13866 175.772 4.736V4.864L175.644 4.992H170.78V0.127998ZM171.292 0.127998V4.992H166.428L166.3 4.864V4.736C166.3 4.13866 166.385 3.62666 166.556 3.2C166.727 2.688 166.94 2.26133 167.196 1.92C167.452 1.49333 167.751 1.152 168.092 0.895996C168.519 0.639999 168.945 0.426666 169.372 0.255997C169.884 0.0853322 170.439 0 171.036 0H171.164L171.292 0.127998ZM184.092 47.744L183.964 47.872H183.836C183.239 47.872 182.684 47.7867 182.172 47.616C181.745 47.4453 181.319 47.232 180.892 46.976C180.551 46.72 180.252 46.4213 179.996 46.08C179.74 45.6533 179.527 45.2267 179.356 44.8C179.185 44.288 179.1 43.7333 179.1 43.136V43.008L179.228 42.88H184.092V47.744ZM183.58 47.744V42.88H188.444L188.572 43.008V43.136C188.572 43.7333 188.487 44.288 188.316 44.8C188.145 45.2267 187.932 45.6533 187.676 46.08C187.42 46.4213 187.079 46.72 186.652 46.976C186.311 47.232 185.884 47.4453 185.372 47.616C184.945 47.7867 184.433 47.872 183.836 47.872H183.708L183.58 47.744ZM183.58 38.528L183.708 38.4H183.836C184.433 38.4 184.945 38.4853 185.372 38.656C185.884 38.8267 186.311 39.04 186.652 39.296C187.079 39.552 187.42 39.8933 187.676 40.32C187.932 40.6613 188.145 41.088 188.316 41.6C188.487 42.0267 188.572 42.5387 188.572 43.136V43.264L188.444 43.392H183.58V38.528ZM184.092 38.528V43.392H179.228L179.1 43.264V43.136C179.1 42.5387 179.185 42.0267 179.356 41.6C179.527 41.088 179.74 40.6613 179.996 40.32C180.252 39.8933 180.551 39.552 180.892 39.296C181.319 39.04 181.745 38.8267 182.172 38.656C182.684 38.4853 183.239 38.4 183.836 38.4H183.964L184.092 38.528ZM184.092 9.344L183.964 9.472H183.836C183.239 9.472 182.684 9.38667 182.172 9.216C181.745 9.04533 181.319 8.832 180.892 8.576C180.551 8.32 180.252 8.02133 179.996 7.68C179.74 7.25333 179.527 6.82667 179.356 6.4C179.185 5.888 179.1 5.33333 179.1 4.736V4.608L179.228 4.48H184.092V9.344ZM183.58 9.344V4.48H188.444L188.572 4.608V4.736C188.572 5.33333 188.487 5.888 188.316 6.4C188.145 6.82667 187.932 7.25333 187.676 7.68C187.42 8.02133 187.079 8.32 186.652 8.576C186.311 8.832 185.884 9.04533 185.372 9.216C184.945 9.38667 184.433 9.472 183.836 9.472H183.708L183.58 9.344ZM183.58 0.127998L183.708 0H183.836C184.433 0 184.945 0.0853322 185.372 0.255997C185.884 0.426666 186.311 0.639999 186.652 0.895996C187.079 1.152 187.42 1.49333 187.676 1.92C187.932 2.26133 188.145 2.688 188.316 3.2C188.487 3.62666 188.572 4.13866 188.572 4.736V4.864L188.444 4.992H183.58V0.127998ZM184.092 0.127998V4.992H179.228L179.1 4.864V4.736C179.1 4.13866 179.185 3.62666 179.356 3.2C179.527 2.688 179.74 2.26133 179.996 1.92C180.252 1.49333 180.551 1.152 180.892 0.895996C181.319 0.639999 181.745 0.426666 182.172 0.255997C182.684 0.0853322 183.239 0 183.836 0H183.964L184.092 0.127998ZM196.892 47.744L196.764 47.872H196.636C196.039 47.872 195.484 47.7867 194.972 47.616C194.545 47.4453 194.119 47.232 193.692 46.976C193.351 46.72 193.052 46.4213 192.796 46.08C192.54 45.6533 192.327 45.2267 192.156 44.8C191.985 44.288 191.9 43.7333 191.9 43.136V43.008L192.028 42.88H196.892V47.744ZM196.38 47.744V42.88H201.244L201.372 43.008V43.136C201.372 43.7333 201.287 44.288 201.116 44.8C200.945 45.2267 200.732 45.6533 200.476 46.08C200.22 46.4213 199.879 46.72 199.452 46.976C199.111 47.232 198.684 47.4453 198.172 47.616C197.745 47.7867 197.233 47.872 196.636 47.872H196.508L196.38 47.744ZM196.38 38.528L196.508 38.4H196.636C197.233 38.4 197.745 38.4853 198.172 38.656C198.684 38.8267 199.111 39.04 199.452 39.296C199.879 39.552 200.22 39.8933 200.476 40.32C200.732 40.6613 200.945 41.088 201.116 41.6C201.287 42.0267 201.372 42.5387 201.372 43.136V43.264L201.244 43.392H196.38V38.528ZM196.892 38.528V43.392H192.028L191.9 43.264V43.136C191.9 42.5387 191.985 42.0267 192.156 41.6C192.327 41.088 192.54 40.6613 192.796 40.32C193.052 39.8933 193.351 39.552 193.692 39.296C194.119 39.04 194.545 38.8267 194.972 38.656C195.484 38.4853 196.039 38.4 196.636 38.4H196.764L196.892 38.528ZM196.892 9.344L196.764 9.472H196.636C196.039 9.472 195.484 9.38667 194.972 9.216C194.545 9.04533 194.119 8.832 193.692 8.576C193.351 8.32 193.052 8.02133 192.796 7.68C192.54 7.25333 192.327 6.82667 192.156 6.4C191.985 5.888 191.9 5.33333 191.9 4.736V4.608L192.028 4.48H196.892V9.344ZM196.38 9.344V4.48H201.244L201.372 4.608V4.736C201.372 5.33333 201.287 5.888 201.116 6.4C200.945 6.82667 200.732 7.25333 200.476 7.68C200.22 8.02133 199.879 8.32 199.452 8.576C199.111 8.832 198.684 9.04533 198.172 9.216C197.745 9.38667 197.233 9.472 196.636 9.472H196.508L196.38 9.344ZM196.38 0.127998L196.508 0H196.636C197.233 0 197.745 0.0853322 198.172 0.255997C198.684 0.426666 199.111 0.639999 199.452 0.895996C199.879 1.152 200.22 1.49333 200.476 1.92C200.732 2.26133 200.945 2.688 201.116 3.2C201.287 3.62666 201.372 4.13866 201.372 4.736V4.864L201.244 4.992H196.38V0.127998ZM196.892 0.127998V4.992H192.028L191.9 4.864V4.736C191.9 4.13866 191.985 3.62666 192.156 3.2C192.327 2.688 192.54 2.26133 192.796 1.92C193.052 1.49333 193.351 1.152 193.692 0.895996C194.119 0.639999 194.545 0.426666 194.972 0.255997C195.484 0.0853322 196.039 0 196.636 0H196.764L196.892 0.127998ZM209.692 34.944L209.564 35.072H209.436C208.839 35.072 208.284 34.9867 207.772 34.816C207.345 34.6453 206.919 34.432 206.492 34.176C206.151 33.92 205.852 33.6213 205.596 33.28C205.34 32.8533 205.127 32.4267 204.956 32C204.785 31.488 204.7 30.9333 204.7 30.336V30.208L204.828 30.08H209.692V34.944ZM209.18 34.944V30.08H214.044L214.172 30.208V30.336C214.172 30.9333 214.087 31.488 213.916 32C213.745 32.4267 213.532 32.8533 213.276 33.28C213.02 33.6213 212.679 33.92 212.252 34.176C211.911 34.432 211.484 34.6453 210.972 34.816C210.545 34.9867 210.033 35.072 209.436 35.072H209.308L209.18 34.944ZM209.18 25.728L209.308 25.6H209.436C210.033 25.6 210.545 25.6853 210.972 25.856C211.484 26.0267 211.911 26.24 212.252 26.496C212.679 26.752 213.02 27.0933 213.276 27.52C213.532 27.8613 213.745 28.288 213.916 28.8C214.087 29.2267 214.172 29.7387 214.172 30.336V30.464L214.044 30.592H209.18V25.728ZM209.692 25.728V30.592H204.828L204.7 30.464V30.336C204.7 29.7387 204.785 29.2267 204.956 28.8C205.127 28.288 205.34 27.8613 205.596 27.52C205.852 27.0933 206.151 26.752 206.492 26.496C206.919 26.24 207.345 26.0267 207.772 25.856C208.284 25.6853 208.839 25.6 209.436 25.6H209.564L209.692 25.728ZM209.692 22.144L209.564 22.272H209.436C208.839 22.272 208.284 22.1867 207.772 22.016C207.345 21.8453 206.919 21.632 206.492 21.376C206.151 21.12 205.852 20.8213 205.596 20.48C205.34 20.0533 205.127 19.6267 204.956 19.2C204.785 18.688 204.7 18.1333 204.7 17.536V17.408L204.828 17.28H209.692V22.144ZM209.18 22.144V17.28H214.044L214.172 17.408V17.536C214.172 18.1333 214.087 18.688 213.916 19.2C213.745 19.6267 213.532 20.0533 213.276 20.48C213.02 20.8213 212.679 21.12 212.252 21.376C211.911 21.632 211.484 21.8453 210.972 22.016C210.545 22.1867 210.033 22.272 209.436 22.272H209.308L209.18 22.144ZM209.18 12.928L209.308 12.8H209.436C210.033 12.8 210.545 12.8853 210.972 13.056C211.484 13.2267 211.911 13.44 212.252 13.696C212.679 13.952 213.02 14.2933 213.276 14.72C213.532 15.0613 213.745 15.488 213.916 16C214.087 16.4267 214.172 16.9387 214.172 17.536V17.664L214.044 17.792H209.18V12.928ZM209.692 12.928V17.792H204.828L204.7 17.664V17.536C204.7 16.9387 204.785 16.4267 204.956 16C205.127 15.488 205.34 15.0613 205.596 14.72C205.852 14.2933 206.151 13.952 206.492 13.696C206.919 13.44 207.345 13.2267 207.772 13.056C208.284 12.8853 208.839 12.8 209.436 12.8H209.564L209.692 12.928Z" fill="#21808D"/>
</svg>
