<svg width="61" height="74" viewBox="0 0 61 74" fill="none" xmlns="http://www.w3.org/2000/svg">
<path d="M4.992 60.544L4.864 60.672H4.736C4.13867 60.672 3.584 60.5867 3.072 60.416C2.64533 60.2453 2.21867 60.032 1.792 59.776C1.45067 59.52 1.152 59.2213 0.896 58.88C0.64 58.4533 0.426667 58.0267 0.256 57.6C0.0853333 57.088 0 56.5333 0 55.936V55.808L0.128 55.68H4.992V60.544ZM4.48 60.544V55.68H9.344L9.472 55.808V55.936C9.472 56.5333 9.38667 57.088 9.216 57.6C9.04533 58.0267 8.832 58.4533 8.576 58.88C8.32 59.2213 7.97867 59.52 7.552 59.776C7.21067 60.032 6.784 60.2453 6.272 60.416C5.84533 60.5867 5.33333 60.672 4.736 60.672H4.608L4.48 60.544ZM4.48 51.328L4.608 51.2H4.736C5.33333 51.2 5.84533 51.2853 6.272 51.456C6.784 51.6267 7.21067 51.84 7.552 52.096C7.97867 52.352 8.32 52.6933 8.576 53.12C8.832 53.4613 9.04533 53.888 9.216 54.4C9.38667 54.8267 9.472 55.3387 9.472 55.936V56.064L9.344 56.192H4.48V51.328ZM4.992 51.328V56.192H0.128L0 56.064V55.936C0 55.3387 0.0853333 54.8267 0.256 54.4C0.426667 53.888 0.64 53.4613 0.896 53.12C1.152 52.6933 1.45067 52.352 1.792 52.096C2.21867 51.84 2.64533 51.6267 3.072 51.456C3.584 51.2853 4.13867 51.2 4.736 51.2H4.864L4.992 51.328ZM4.992 47.744L4.864 47.872H4.736C4.13867 47.872 3.584 47.7867 3.072 47.616C2.64533 47.4453 2.21867 47.232 1.792 46.976C1.45067 46.72 1.152 46.4213 0.896 46.08C0.64 45.6533 0.426667 45.2267 0.256 44.8C0.0853333 44.288 0 43.7333 0 43.136V43.008L0.128 42.88H4.992V47.744ZM4.48 47.744V42.88H9.344L9.472 43.008V43.136C9.472 43.7333 9.38667 44.288 9.216 44.8C9.04533 45.2267 8.832 45.6533 8.576 46.08C8.32 46.4213 7.97867 46.72 7.552 46.976C7.21067 47.232 6.784 47.4453 6.272 47.616C5.84533 47.7867 5.33333 47.872 4.736 47.872H4.608L4.48 47.744ZM4.48 38.528L4.608 38.4H4.736C5.33333 38.4 5.84533 38.4853 6.272 38.656C6.784 38.8267 7.21067 39.04 7.552 39.296C7.97867 39.552 8.32 39.8933 8.576 40.32C8.832 40.6613 9.04533 41.088 9.216 41.6C9.38667 42.0267 9.472 42.5387 9.472 43.136V43.264L9.344 43.392H4.48V38.528ZM4.992 38.528V43.392H0.128L0 43.264V43.136C0 42.5387 0.0853333 42.0267 0.256 41.6C0.426667 41.088 0.64 40.6613 0.896 40.32C1.152 39.8933 1.45067 39.552 1.792 39.296C2.21867 39.04 2.64533 38.8267 3.072 38.656C3.584 38.4853 4.13867 38.4 4.736 38.4H4.864L4.992 38.528ZM4.992 34.944L4.864 35.072H4.736C4.13867 35.072 3.584 34.9867 3.072 34.816C2.64533 34.6453 2.21867 34.432 1.792 34.176C1.45067 33.92 1.152 33.6213 0.896 33.28C0.64 32.8533 0.426667 32.4267 0.256 32C0.0853333 31.488 0 30.9333 0 30.336V30.208L0.128 30.08H4.992V34.944ZM4.48 34.944V30.08H9.344L9.472 30.208V30.336C9.472 30.9333 9.38667 31.488 9.216 32C9.04533 32.4267 8.832 32.8533 8.576 33.28C8.32 33.6213 7.97867 33.92 7.552 34.176C7.21067 34.432 6.784 34.6453 6.272 34.816C5.84533 34.9867 5.33333 35.072 4.736 35.072H4.608L4.48 34.944ZM4.48 25.728L4.608 25.6H4.736C5.33333 25.6 5.84533 25.6853 6.272 25.856C6.784 26.0267 7.21067 26.24 7.552 26.496C7.97867 26.752 8.32 27.0933 8.576 27.52C8.832 27.8613 9.04533 28.288 9.216 28.8C9.38667 29.2267 9.472 29.7387 9.472 30.336V30.464L9.344 30.592H4.48V25.728ZM4.992 25.728V30.592H0.128L0 30.464V30.336C0 29.7387 0.0853333 29.2267 0.256 28.8C0.426667 28.288 0.64 27.8613 0.896 27.52C1.152 27.0933 1.45067 26.752 1.792 26.496C2.21867 26.24 2.64533 26.0267 3.072 25.856C3.584 25.6853 4.13867 25.6 4.736 25.6H4.864L4.992 25.728ZM4.992 22.144L4.864 22.272H4.736C4.13867 22.272 3.584 22.1867 3.072 22.016C2.64533 21.8453 2.21867 21.632 1.792 21.376C1.45067 21.12 1.152 20.8213 0.896 20.48C0.64 20.0533 0.426667 19.6267 0.256 19.2C0.0853333 18.688 0 18.1333 0 17.536V17.408L0.128 17.28H4.992V22.144ZM4.48 22.144V17.28H9.344L9.472 17.408V17.536C9.472 18.1333 9.38667 18.688 9.216 19.2C9.04533 19.6267 8.832 20.0533 8.576 20.48C8.32 20.8213 7.97867 21.12 7.552 21.376C7.21067 21.632 6.784 21.8453 6.272 22.016C5.84533 22.1867 5.33333 22.272 4.736 22.272H4.608L4.48 22.144ZM4.48 12.928L4.608 12.8H4.736C5.33333 12.8 5.84533 12.8853 6.272 13.056C6.784 13.2267 7.21067 13.44 7.552 13.696C7.97867 13.952 8.32 14.2933 8.576 14.72C8.832 15.0613 9.04533 15.488 9.216 16C9.38667 16.4267 9.472 16.9387 9.472 17.536V17.664L9.344 17.792H4.48V12.928ZM4.992 12.928V17.792H0.128L0 17.664V17.536C0 16.9387 0.0853333 16.4267 0.256 16C0.426667 15.488 0.64 15.0613 0.896 14.72C1.152 14.2933 1.45067 13.952 1.792 13.696C2.21867 13.44 2.64533 13.2267 3.072 13.056C3.584 12.8853 4.13867 12.8 4.736 12.8H4.864L4.992 12.928ZM17.792 73.344L17.664 73.472H17.536C16.9387 73.472 16.384 73.3867 15.872 73.216C15.4453 73.0453 15.0187 72.832 14.592 72.576C14.2507 72.32 13.952 72.0213 13.696 71.68C13.44 71.2533 13.2267 70.8267 13.056 70.4C12.8853 69.888 12.8 69.3333 12.8 68.736V68.608L12.928 68.48H17.792V73.344ZM17.28 73.344V68.48H22.144L22.272 68.608V68.736C22.272 69.3333 22.1867 69.888 22.016 70.4C21.8453 70.8267 21.632 71.2533 21.376 71.68C21.12 72.0213 20.7787 72.32 20.352 72.576C20.0107 72.832 19.584 73.0453 19.072 73.216C18.6453 73.3867 18.1333 73.472 17.536 73.472H17.408L17.28 73.344ZM17.28 64.128L17.408 64H17.536C18.1333 64 18.6453 64.0853 19.072 64.256C19.584 64.4267 20.0107 64.64 20.352 64.896C20.7787 65.152 21.12 65.4933 21.376 65.92C21.632 66.2613 21.8453 66.688 22.016 67.2C22.1867 67.6267 22.272 68.1387 22.272 68.736V68.864L22.144 68.992H17.28V64.128ZM17.792 64.128V68.992H12.928L12.8 68.864V68.736C12.8 68.1387 12.8853 67.6267 13.056 67.2C13.2267 66.688 13.44 66.2613 13.696 65.92C13.952 65.4933 14.2507 65.152 14.592 64.896C15.0187 64.64 15.4453 64.4267 15.872 64.256C16.384 64.0853 16.9387 64 17.536 64H17.664L17.792 64.128ZM17.792 9.344L17.664 9.472H17.536C16.9387 9.472 16.384 9.38667 15.872 9.216C15.4453 9.04533 15.0187 8.832 14.592 8.576C14.2507 8.32 13.952 8.02133 13.696 7.68C13.44 7.25333 13.2267 6.82667 13.056 6.4C12.8853 5.888 12.8 5.33333 12.8 4.736V4.608L12.928 4.48H17.792V9.344ZM17.28 9.344V4.48H22.144L22.272 4.608V4.736C22.272 5.33333 22.1867 5.888 22.016 6.4C21.8453 6.82667 21.632 7.25333 21.376 7.68C21.12 8.02133 20.7787 8.32 20.352 8.576C20.0107 8.832 19.584 9.04533 19.072 9.216C18.6453 9.38667 18.1333 9.472 17.536 9.472H17.408L17.28 9.344ZM17.28 0.127998L17.408 0H17.536C18.1333 0 18.6453 0.0853322 19.072 0.255997C19.584 0.426666 20.0107 0.639999 20.352 0.895996C20.7787 1.152 21.12 1.49333 21.376 1.92C21.632 2.26133 21.8453 2.688 22.016 3.2C22.1867 3.62666 22.272 4.13866 22.272 4.736V4.864L22.144 4.992H17.28V0.127998ZM17.792 0.127998V4.992H12.928L12.8 4.864V4.736C12.8 4.13866 12.8853 3.62666 13.056 3.2C13.2267 2.688 13.44 2.26133 13.696 1.92C13.952 1.49333 14.2507 1.152 14.592 0.895996C15.0187 0.639999 15.4453 0.426666 15.872 0.255997C16.384 0.0853322 16.9387 0 17.536 0H17.664L17.792 0.127998ZM30.592 73.344L30.464 73.472H30.336C29.7387 73.472 29.184 73.3867 28.672 73.216C28.2453 73.0453 27.8187 72.832 27.392 72.576C27.0507 72.32 26.752 72.0213 26.496 71.68C26.24 71.2533 26.0267 70.8267 25.856 70.4C25.6853 69.888 25.6 69.3333 25.6 68.736V68.608L25.728 68.48H30.592V73.344ZM30.08 73.344V68.48H34.944L35.072 68.608V68.736C35.072 69.3333 34.9867 69.888 34.816 70.4C34.6453 70.8267 34.432 71.2533 34.176 71.68C33.92 72.0213 33.5787 72.32 33.152 72.576C32.8107 72.832 32.384 73.0453 31.872 73.216C31.4453 73.3867 30.9333 73.472 30.336 73.472H30.208L30.08 73.344ZM30.08 64.128L30.208 64H30.336C30.9333 64 31.4453 64.0853 31.872 64.256C32.384 64.4267 32.8107 64.64 33.152 64.896C33.5787 65.152 33.92 65.4933 34.176 65.92C34.432 66.2613 34.6453 66.688 34.816 67.2C34.9867 67.6267 35.072 68.1387 35.072 68.736V68.864L34.944 68.992H30.08V64.128ZM30.592 64.128V68.992H25.728L25.6 68.864V68.736C25.6 68.1387 25.6853 67.6267 25.856 67.2C26.0267 66.688 26.24 66.2613 26.496 65.92C26.752 65.4933 27.0507 65.152 27.392 64.896C27.8187 64.64 28.2453 64.4267 28.672 64.256C29.184 64.0853 29.7387 64 30.336 64H30.464L30.592 64.128ZM30.592 9.344L30.464 9.472H30.336C29.7387 9.472 29.184 9.38667 28.672 9.216C28.2453 9.04533 27.8187 8.832 27.392 8.576C27.0507 8.32 26.752 8.02133 26.496 7.68C26.24 7.25333 26.0267 6.82667 25.856 6.4C25.6853 5.888 25.6 5.33333 25.6 4.736V4.608L25.728 4.48H30.592V9.344ZM30.08 9.344V4.48H34.944L35.072 4.608V4.736C35.072 5.33333 34.9867 5.888 34.816 6.4C34.6453 6.82667 34.432 7.25333 34.176 7.68C33.92 8.02133 33.5787 8.32 33.152 8.576C32.8107 8.832 32.384 9.04533 31.872 9.216C31.4453 9.38667 30.9333 9.472 30.336 9.472H30.208L30.08 9.344ZM30.08 0.127998L30.208 0H30.336C30.9333 0 31.4453 0.0853322 31.872 0.255997C32.384 0.426666 32.8107 0.639999 33.152 0.895996C33.5787 1.152 33.92 1.49333 34.176 1.92C34.432 2.26133 34.6453 2.688 34.816 3.2C34.9867 3.62666 35.072 4.13866 35.072 4.736V4.864L34.944 4.992H30.08V0.127998ZM30.592 0.127998V4.992H25.728L25.6 4.864V4.736C25.6 4.13866 25.6853 3.62666 25.856 3.2C26.0267 2.688 26.24 2.26133 26.496 1.92C26.752 1.49333 27.0507 1.152 27.392 0.895996C27.8187 0.639999 28.2453 0.426666 28.672 0.255997C29.184 0.0853322 29.7387 0 30.336 0H30.464L30.592 0.127998ZM43.392 73.344L43.264 73.472H43.136C42.5387 73.472 41.984 73.3867 41.472 73.216C41.0453 73.0453 40.6187 72.832 40.192 72.576C39.8507 72.32 39.552 72.0213 39.296 71.68C39.04 71.2533 38.8267 70.8267 38.656 70.4C38.4853 69.888 38.4 69.3333 38.4 68.736V68.608L38.528 68.48H43.392V73.344ZM42.88 73.344V68.48H47.744L47.872 68.608V68.736C47.872 69.3333 47.7867 69.888 47.616 70.4C47.4453 70.8267 47.232 71.2533 46.976 71.68C46.72 72.0213 46.3787 72.32 45.952 72.576C45.6107 72.832 45.184 73.0453 44.672 73.216C44.2453 73.3867 43.7333 73.472 43.136 73.472H43.008L42.88 73.344ZM42.88 64.128L43.008 64H43.136C43.7333 64 44.2453 64.0853 44.672 64.256C45.184 64.4267 45.6107 64.64 45.952 64.896C46.3787 65.152 46.72 65.4933 46.976 65.92C47.232 66.2613 47.4453 66.688 47.616 67.2C47.7867 67.6267 47.872 68.1387 47.872 68.736V68.864L47.744 68.992H42.88V64.128ZM43.392 64.128V68.992H38.528L38.4 68.864V68.736C38.4 68.1387 38.4853 67.6267 38.656 67.2C38.8267 66.688 39.04 66.2613 39.296 65.92C39.552 65.4933 39.8507 65.152 40.192 64.896C40.6187 64.64 41.0453 64.4267 41.472 64.256C41.984 64.0853 42.5387 64 43.136 64H43.264L43.392 64.128ZM43.392 9.344L43.264 9.472H43.136C42.5387 9.472 41.984 9.38667 41.472 9.216C41.0453 9.04533 40.6187 8.832 40.192 8.576C39.8507 8.32 39.552 8.02133 39.296 7.68C39.04 7.25333 38.8267 6.82667 38.656 6.4C38.4853 5.888 38.4 5.33333 38.4 4.736V4.608L38.528 4.48H43.392V9.344ZM42.88 9.344V4.48H47.744L47.872 4.608V4.736C47.872 5.33333 47.7867 5.888 47.616 6.4C47.4453 6.82667 47.232 7.25333 46.976 7.68C46.72 8.02133 46.3787 8.32 45.952 8.576C45.6107 8.832 45.184 9.04533 44.672 9.216C44.2453 9.38667 43.7333 9.472 43.136 9.472H43.008L42.88 9.344ZM42.88 0.127998L43.008 0H43.136C43.7333 0 44.2453 0.0853322 44.672 0.255997C45.184 0.426666 45.6107 0.639999 45.952 0.895996C46.3787 1.152 46.72 1.49333 46.976 1.92C47.232 2.26133 47.4453 2.688 47.616 3.2C47.7867 3.62666 47.872 4.13866 47.872 4.736V4.864L47.744 4.992H42.88V0.127998ZM43.392 0.127998V4.992H38.528L38.4 4.864V4.736C38.4 4.13866 38.4853 3.62666 38.656 3.2C38.8267 2.688 39.04 2.26133 39.296 1.92C39.552 1.49333 39.8507 1.152 40.192 0.895996C40.6187 0.639999 41.0453 0.426666 41.472 0.255997C41.984 0.0853322 42.5387 0 43.136 0H43.264L43.392 0.127998ZM56.192 60.544L56.064 60.672H55.936C55.3387 60.672 54.784 60.5867 54.272 60.416C53.8453 60.2453 53.4187 60.032 52.992 59.776C52.6507 59.52 52.352 59.2213 52.096 58.88C51.84 58.4533 51.6267 58.0267 51.456 57.6C51.2853 57.088 51.2 56.5333 51.2 55.936V55.808L51.328 55.68H56.192V60.544ZM55.68 60.544V55.68H60.544L60.672 55.808V55.936C60.672 56.5333 60.5867 57.088 60.416 57.6C60.2453 58.0267 60.032 58.4533 59.776 58.88C59.52 59.2213 59.1787 59.52 58.752 59.776C58.4107 60.032 57.984 60.2453 57.472 60.416C57.0453 60.5867 56.5333 60.672 55.936 60.672H55.808L55.68 60.544ZM55.68 51.328L55.808 51.2H55.936C56.5333 51.2 57.0453 51.2853 57.472 51.456C57.984 51.6267 58.4107 51.84 58.752 52.096C59.1787 52.352 59.52 52.6933 59.776 53.12C60.032 53.4613 60.2453 53.888 60.416 54.4C60.5867 54.8267 60.672 55.3387 60.672 55.936V56.064L60.544 56.192H55.68V51.328ZM56.192 51.328V56.192H51.328L51.2 56.064V55.936C51.2 55.3387 51.2853 54.8267 51.456 54.4C51.6267 53.888 51.84 53.4613 52.096 53.12C52.352 52.6933 52.6507 52.352 52.992 52.096C53.4187 51.84 53.8453 51.6267 54.272 51.456C54.784 51.2853 55.3387 51.2 55.936 51.2H56.064L56.192 51.328ZM56.192 22.144L56.064 22.272H55.936C55.3387 22.272 54.784 22.1867 54.272 22.016C53.8453 21.8453 53.4187 21.632 52.992 21.376C52.6507 21.12 52.352 20.8213 52.096 20.48C51.84 20.0533 51.6267 19.6267 51.456 19.2C51.2853 18.688 51.2 18.1333 51.2 17.536V17.408L51.328 17.28H56.192V22.144ZM55.68 22.144V17.28H60.544L60.672 17.408V17.536C60.672 18.1333 60.5867 18.688 60.416 19.2C60.2453 19.6267 60.032 20.0533 59.776 20.48C59.52 20.8213 59.1787 21.12 58.752 21.376C58.4107 21.632 57.984 21.8453 57.472 22.016C57.0453 22.1867 56.5333 22.272 55.936 22.272H55.808L55.68 22.144ZM55.68 12.928L55.808 12.8H55.936C56.5333 12.8 57.0453 12.8853 57.472 13.056C57.984 13.2267 58.4107 13.44 58.752 13.696C59.1787 13.952 59.52 14.2933 59.776 14.72C60.032 15.0613 60.2453 15.488 60.416 16C60.5867 16.4267 60.672 16.9387 60.672 17.536V17.664L60.544 17.792H55.68V12.928ZM56.192 12.928V17.792H51.328L51.2 17.664V17.536C51.2 16.9387 51.2853 16.4267 51.456 16C51.6267 15.488 51.84 15.0613 52.096 14.72C52.352 14.2933 52.6507 13.952 52.992 13.696C53.4187 13.44 53.8453 13.2267 54.272 13.056C54.784 12.8853 55.3387 12.8 55.936 12.8H56.064L56.192 12.928Z" fill="#21808D"/>
</svg>
