<svg width="48" height="58" viewBox="0 0 48 58" fill="none" xmlns="http://www.w3.org/2000/svg">
<path d="M4.992 57.504L4.896 57.6H4.8C4.224 57.6 3.68 57.536 3.168 57.408C2.72 57.216 2.304 56.992 1.92 56.736C1.536 56.416 1.184 56.064 0.864 55.68C0.608 55.296 0.384 54.88 0.192 54.432C0.064 53.92 0 53.376 0 52.8V52.704L0.096 52.608H4.992V57.504ZM4.608 57.504V52.608H9.504L9.6 52.704V52.8C9.6 53.376 9.504 53.92 9.312 54.432C9.184 54.88 8.96 55.296 8.64 55.68C8.384 56.064 8.064 56.416 7.68 56.736C7.296 56.992 6.848 57.216 6.336 57.408C5.888 57.536 5.376 57.6 4.8 57.6H4.704L4.608 57.504ZM4.608 48.096L4.704 48H4.8C5.376 48 5.888 48.096 6.336 48.288C6.848 48.416 7.296 48.64 7.68 48.96C8.064 49.216 8.384 49.536 8.64 49.92C8.96 50.304 9.184 50.752 9.312 51.264C9.504 51.712 9.6 52.224 9.6 52.8V52.896L9.504 52.992H4.608V48.096ZM4.992 48.096V52.992H0.096L0 52.896V52.8C0 52.224 0.064 51.712 0.192 51.264C0.384 50.752 0.608 50.304 0.864 49.92C1.184 49.536 1.536 49.216 1.92 48.96C2.304 48.64 2.72 48.416 3.168 48.288C3.68 48.096 4.224 48 4.8 48H4.896L4.992 48.096ZM4.992 47.904L4.896 48H4.8C4.224 48 3.68 47.936 3.168 47.808C2.72 47.616 2.304 47.392 1.92 47.136C1.536 46.816 1.184 46.464 0.864 46.08C0.608 45.696 0.384 45.28 0.192 44.832C0.064 44.32 0 43.776 0 43.2V43.104L0.096 43.008H4.992V47.904ZM4.608 47.904V43.008H9.504L9.6 43.104V43.2C9.6 43.776 9.504 44.32 9.312 44.832C9.184 45.28 8.96 45.696 8.64 46.08C8.384 46.464 8.064 46.816 7.68 47.136C7.296 47.392 6.848 47.616 6.336 47.808C5.888 47.936 5.376 48 4.8 48H4.704L4.608 47.904ZM4.608 38.496L4.704 38.4H4.8C5.376 38.4 5.888 38.496 6.336 38.688C6.848 38.816 7.296 39.04 7.68 39.36C8.064 39.616 8.384 39.936 8.64 40.32C8.96 40.704 9.184 41.152 9.312 41.664C9.504 42.112 9.6 42.624 9.6 43.2V43.296L9.504 43.392H4.608V38.496ZM4.992 38.496V43.392H0.096L0 43.296V43.2C0 42.624 0.064 42.112 0.192 41.664C0.384 41.152 0.608 40.704 0.864 40.32C1.184 39.936 1.536 39.616 1.92 39.36C2.304 39.04 2.72 38.816 3.168 38.688C3.68 38.496 4.224 38.4 4.8 38.4H4.896L4.992 38.496ZM4.992 38.304L4.896 38.4H4.8C4.224 38.4 3.68 38.336 3.168 38.208C2.72 38.016 2.304 37.792 1.92 37.536C1.536 37.216 1.184 36.864 0.864 36.48C0.608 36.096 0.384 35.68 0.192 35.232C0.064 34.72 0 34.176 0 33.6V33.504L0.096 33.408H4.992V38.304ZM4.608 38.304V33.408H9.504L9.6 33.504V33.6C9.6 34.176 9.504 34.72 9.312 35.232C9.184 35.68 8.96 36.096 8.64 36.48C8.384 36.864 8.064 37.216 7.68 37.536C7.296 37.792 6.848 38.016 6.336 38.208C5.888 38.336 5.376 38.4 4.8 38.4H4.704L4.608 38.304ZM4.608 28.896L4.704 28.8H4.8C5.376 28.8 5.888 28.896 6.336 29.088C6.848 29.216 7.296 29.44 7.68 29.76C8.064 30.016 8.384 30.336 8.64 30.72C8.96 31.104 9.184 31.552 9.312 32.064C9.504 32.512 9.6 33.024 9.6 33.6V33.696L9.504 33.792H4.608V28.896ZM4.992 28.896V33.792H0.096L0 33.696V33.6C0 33.024 0.064 32.512 0.192 32.064C0.384 31.552 0.608 31.104 0.864 30.72C1.184 30.336 1.536 30.016 1.92 29.76C2.304 29.44 2.72 29.216 3.168 29.088C3.68 28.896 4.224 28.8 4.8 28.8H4.896L4.992 28.896ZM4.992 28.704L4.896 28.8H4.8C4.224 28.8 3.68 28.736 3.168 28.608C2.72 28.416 2.304 28.192 1.92 27.936C1.536 27.616 1.184 27.264 0.864 26.88C0.608 26.496 0.384 26.08 0.192 25.632C0.064 25.12 0 24.576 0 24V23.904L0.096 23.808H4.992V28.704ZM4.608 28.704V23.808H9.504L9.6 23.904V24C9.6 24.576 9.504 25.12 9.312 25.632C9.184 26.08 8.96 26.496 8.64 26.88C8.384 27.264 8.064 27.616 7.68 27.936C7.296 28.192 6.848 28.416 6.336 28.608C5.888 28.736 5.376 28.8 4.8 28.8H4.704L4.608 28.704ZM4.608 19.296L4.704 19.2H4.8C5.376 19.2 5.888 19.296 6.336 19.488C6.848 19.616 7.296 19.84 7.68 20.16C8.064 20.416 8.384 20.736 8.64 21.12C8.96 21.504 9.184 21.952 9.312 22.464C9.504 22.912 9.6 23.424 9.6 24V24.096L9.504 24.192H4.608V19.296ZM4.992 19.296V24.192H0.096L0 24.096V24C0 23.424 0.064 22.912 0.192 22.464C0.384 21.952 0.608 21.504 0.864 21.12C1.184 20.736 1.536 20.416 1.92 20.16C2.304 19.84 2.72 19.616 3.168 19.488C3.68 19.296 4.224 19.2 4.8 19.2H4.896L4.992 19.296ZM4.992 19.104L4.896 19.2H4.8C4.224 19.2 3.68 19.136 3.168 19.008C2.72 18.816 2.304 18.592 1.92 18.336C1.536 18.016 1.184 17.664 0.864 17.28C0.608 16.896 0.384 16.48 0.192 16.032C0.064 15.52 0 14.976 0 14.4V14.304L0.096 14.208H4.992V19.104ZM4.608 19.104V14.208H9.504L9.6 14.304V14.4C9.6 14.976 9.504 15.52 9.312 16.032C9.184 16.48 8.96 16.896 8.64 17.28C8.384 17.664 8.064 18.016 7.68 18.336C7.296 18.592 6.848 18.816 6.336 19.008C5.888 19.136 5.376 19.2 4.8 19.2H4.704L4.608 19.104ZM4.608 9.696L4.704 9.6H4.8C5.376 9.6 5.888 9.696 6.336 9.888C6.848 10.016 7.296 10.24 7.68 10.56C8.064 10.816 8.384 11.136 8.64 11.52C8.96 11.904 9.184 12.352 9.312 12.864C9.504 13.312 9.6 13.824 9.6 14.4V14.496L9.504 14.592H4.608V9.696ZM4.992 9.696V14.592H0.096L0 14.496V14.4C0 13.824 0.064 13.312 0.192 12.864C0.384 12.352 0.608 11.904 0.864 11.52C1.184 11.136 1.536 10.816 1.92 10.56C2.304 10.24 2.72 10.016 3.168 9.888C3.68 9.696 4.224 9.6 4.8 9.6H4.896L4.992 9.696ZM4.992 9.504L4.896 9.6H4.8C4.224 9.6 3.68 9.536 3.168 9.408C2.72 9.216 2.304 8.992 1.92 8.736C1.536 8.416 1.184 8.064 0.864 7.68C0.608 7.296 0.384 6.88 0.192 6.432C0.064 5.92 0 5.376 0 4.8V4.704L0.096 4.608H4.992V9.504ZM4.608 9.504V4.608H9.504L9.6 4.704V4.8C9.6 5.376 9.504 5.92 9.312 6.432C9.184 6.88 8.96 7.296 8.64 7.68C8.384 8.064 8.064 8.416 7.68 8.736C7.296 8.992 6.848 9.216 6.336 9.408C5.888 9.536 5.376 9.6 4.8 9.6H4.704L4.608 9.504ZM4.608 0.0959988L4.704 0H4.8C5.376 0 5.888 0.0960007 6.336 0.288002C6.848 0.416 7.296 0.639999 7.68 0.959999C8.064 1.216 8.384 1.536 8.64 1.92C8.96 2.304 9.184 2.752 9.312 3.264C9.504 3.712 9.6 4.224 9.6 4.8V4.896L9.504 4.992H4.608V0.0959988ZM4.992 0.0959988V4.992H0.096L0 4.896V4.8C0 4.224 0.064 3.712 0.192 3.264C0.384 2.752 0.608 2.304 0.864 1.92C1.184 1.536 1.536 1.216 1.92 0.959999C2.304 0.639999 2.72 0.416 3.168 0.288002C3.68 0.0960007 4.224 0 4.8 0H4.896L4.992 0.0959988ZM14.592 19.104L14.496 19.2H14.4C13.824 19.2 13.28 19.136 12.768 19.008C12.32 18.816 11.904 18.592 11.52 18.336C11.136 18.016 10.784 17.664 10.464 17.28C10.208 16.896 9.984 16.48 9.792 16.032C9.664 15.52 9.6 14.976 9.6 14.4V14.304L9.696 14.208H14.592V19.104ZM14.208 19.104V14.208H19.104L19.2 14.304V14.4C19.2 14.976 19.104 15.52 18.912 16.032C18.784 16.48 18.56 16.896 18.24 17.28C17.984 17.664 17.664 18.016 17.28 18.336C16.896 18.592 16.448 18.816 15.936 19.008C15.488 19.136 14.976 19.2 14.4 19.2H14.304L14.208 19.104ZM14.208 9.696L14.304 9.6H14.4C14.976 9.6 15.488 9.696 15.936 9.888C16.448 10.016 16.896 10.24 17.28 10.56C17.664 10.816 17.984 11.136 18.24 11.52C18.56 11.904 18.784 12.352 18.912 12.864C19.104 13.312 19.2 13.824 19.2 14.4V14.496L19.104 14.592H14.208V9.696ZM14.592 9.696V14.592H9.696L9.6 14.496V14.4C9.6 13.824 9.664 13.312 9.792 12.864C9.984 12.352 10.208 11.904 10.464 11.52C10.784 11.136 11.136 10.816 11.52 10.56C11.904 10.24 12.32 10.016 12.768 9.888C13.28 9.696 13.824 9.6 14.4 9.6H14.496L14.592 9.696ZM24.192 38.304L24.096 38.4H24C23.424 38.4 22.88 38.336 22.368 38.208C21.92 38.016 21.504 37.792 21.12 37.536C20.736 37.216 20.384 36.864 20.064 36.48C19.808 36.096 19.584 35.68 19.392 35.232C19.264 34.72 19.2 34.176 19.2 33.6V33.504L19.296 33.408H24.192V38.304ZM23.808 38.304V33.408H28.704L28.8 33.504V33.6C28.8 34.176 28.704 34.72 28.512 35.232C28.384 35.68 28.16 36.096 27.84 36.48C27.584 36.864 27.264 37.216 26.88 37.536C26.496 37.792 26.048 38.016 25.536 38.208C25.088 38.336 24.576 38.4 24 38.4H23.904L23.808 38.304ZM23.808 28.896L23.904 28.8H24C24.576 28.8 25.088 28.896 25.536 29.088C26.048 29.216 26.496 29.44 26.88 29.76C27.264 30.016 27.584 30.336 27.84 30.72C28.16 31.104 28.384 31.552 28.512 32.064C28.704 32.512 28.8 33.024 28.8 33.6V33.696L28.704 33.792H23.808V28.896ZM24.192 28.896V33.792H19.296L19.2 33.696V33.6C19.2 33.024 19.264 32.512 19.392 32.064C19.584 31.552 19.808 31.104 20.064 30.72C20.384 30.336 20.736 30.016 21.12 29.76C21.504 29.44 21.92 29.216 22.368 29.088C22.88 28.896 23.424 28.8 24 28.8H24.096L24.192 28.896ZM24.192 28.704L24.096 28.8H24C23.424 28.8 22.88 28.736 22.368 28.608C21.92 28.416 21.504 28.192 21.12 27.936C20.736 27.616 20.384 27.264 20.064 26.88C19.808 26.496 19.584 26.08 19.392 25.632C19.264 25.12 19.2 24.576 19.2 24V23.904L19.296 23.808H24.192V28.704ZM23.808 28.704V23.808H28.704L28.8 23.904V24C28.8 24.576 28.704 25.12 28.512 25.632C28.384 26.08 28.16 26.496 27.84 26.88C27.584 27.264 27.264 27.616 26.88 27.936C26.496 28.192 26.048 28.416 25.536 28.608C25.088 28.736 24.576 28.8 24 28.8H23.904L23.808 28.704ZM23.808 19.296L23.904 19.2H24C24.576 19.2 25.088 19.296 25.536 19.488C26.048 19.616 26.496 19.84 26.88 20.16C27.264 20.416 27.584 20.736 27.84 21.12C28.16 21.504 28.384 21.952 28.512 22.464C28.704 22.912 28.8 23.424 28.8 24V24.096L28.704 24.192H23.808V19.296ZM24.192 19.296V24.192H19.296L19.2 24.096V24C19.2 23.424 19.264 22.912 19.392 22.464C19.584 21.952 19.808 21.504 20.064 21.12C20.384 20.736 20.736 20.416 21.12 20.16C21.504 19.84 21.92 19.616 22.368 19.488C22.88 19.296 23.424 19.2 24 19.2H24.096L24.192 19.296ZM33.792 19.104L33.696 19.2H33.6C33.024 19.2 32.48 19.136 31.968 19.008C31.52 18.816 31.104 18.592 30.72 18.336C30.336 18.016 29.984 17.664 29.664 17.28C29.408 16.896 29.184 16.48 28.992 16.032C28.864 15.52 28.8 14.976 28.8 14.4V14.304L28.896 14.208H33.792V19.104ZM33.408 19.104V14.208H38.304L38.4 14.304V14.4C38.4 14.976 38.304 15.52 38.112 16.032C37.984 16.48 37.76 16.896 37.44 17.28C37.184 17.664 36.864 18.016 36.48 18.336C36.096 18.592 35.648 18.816 35.136 19.008C34.688 19.136 34.176 19.2 33.6 19.2H33.504L33.408 19.104ZM33.408 9.696L33.504 9.6H33.6C34.176 9.6 34.688 9.696 35.136 9.888C35.648 10.016 36.096 10.24 36.48 10.56C36.864 10.816 37.184 11.136 37.44 11.52C37.76 11.904 37.984 12.352 38.112 12.864C38.304 13.312 38.4 13.824 38.4 14.4V14.496L38.304 14.592H33.408V9.696ZM33.792 9.696V14.592H28.896L28.8 14.496V14.4C28.8 13.824 28.864 13.312 28.992 12.864C29.184 12.352 29.408 11.904 29.664 11.52C29.984 11.136 30.336 10.816 30.72 10.56C31.104 10.24 31.52 10.016 31.968 9.888C32.48 9.696 33.024 9.6 33.6 9.6H33.696L33.792 9.696ZM43.392 57.504L43.296 57.6H43.2C42.624 57.6 42.08 57.536 41.568 57.408C41.12 57.216 40.704 56.992 40.32 56.736C39.936 56.416 39.584 56.064 39.264 55.68C39.008 55.296 38.784 54.88 38.592 54.432C38.464 53.92 38.4 53.376 38.4 52.8V52.704L38.496 52.608H43.392V57.504ZM43.008 57.504V52.608H47.904L48 52.704V52.8C48 53.376 47.904 53.92 47.712 54.432C47.584 54.88 47.36 55.296 47.04 55.68C46.784 56.064 46.464 56.416 46.08 56.736C45.696 56.992 45.248 57.216 44.736 57.408C44.288 57.536 43.776 57.6 43.2 57.6H43.104L43.008 57.504ZM43.008 48.096L43.104 48H43.2C43.776 48 44.288 48.096 44.736 48.288C45.248 48.416 45.696 48.64 46.08 48.96C46.464 49.216 46.784 49.536 47.04 49.92C47.36 50.304 47.584 50.752 47.712 51.264C47.904 51.712 48 52.224 48 52.8V52.896L47.904 52.992H43.008V48.096ZM43.392 48.096V52.992H38.496L38.4 52.896V52.8C38.4 52.224 38.464 51.712 38.592 51.264C38.784 50.752 39.008 50.304 39.264 49.92C39.584 49.536 39.936 49.216 40.32 48.96C40.704 48.64 41.12 48.416 41.568 48.288C42.08 48.096 42.624 48 43.2 48H43.296L43.392 48.096ZM43.392 47.904L43.296 48H43.2C42.624 48 42.08 47.936 41.568 47.808C41.12 47.616 40.704 47.392 40.32 47.136C39.936 46.816 39.584 46.464 39.264 46.08C39.008 45.696 38.784 45.28 38.592 44.832C38.464 44.32 38.4 43.776 38.4 43.2V43.104L38.496 43.008H43.392V47.904ZM43.008 47.904V43.008H47.904L48 43.104V43.2C48 43.776 47.904 44.32 47.712 44.832C47.584 45.28 47.36 45.696 47.04 46.08C46.784 46.464 46.464 46.816 46.08 47.136C45.696 47.392 45.248 47.616 44.736 47.808C44.288 47.936 43.776 48 43.2 48H43.104L43.008 47.904ZM43.008 38.496L43.104 38.4H43.2C43.776 38.4 44.288 38.496 44.736 38.688C45.248 38.816 45.696 39.04 46.08 39.36C46.464 39.616 46.784 39.936 47.04 40.32C47.36 40.704 47.584 41.152 47.712 41.664C47.904 42.112 48 42.624 48 43.2V43.296L47.904 43.392H43.008V38.496ZM43.392 38.496V43.392H38.496L38.4 43.296V43.2C38.4 42.624 38.464 42.112 38.592 41.664C38.784 41.152 39.008 40.704 39.264 40.32C39.584 39.936 39.936 39.616 40.32 39.36C40.704 39.04 41.12 38.816 41.568 38.688C42.08 38.496 42.624 38.4 43.2 38.4H43.296L43.392 38.496ZM43.392 38.304L43.296 38.4H43.2C42.624 38.4 42.08 38.336 41.568 38.208C41.12 38.016 40.704 37.792 40.32 37.536C39.936 37.216 39.584 36.864 39.264 36.48C39.008 36.096 38.784 35.68 38.592 35.232C38.464 34.72 38.4 34.176 38.4 33.6V33.504L38.496 33.408H43.392V38.304ZM43.008 38.304V33.408H47.904L48 33.504V33.6C48 34.176 47.904 34.72 47.712 35.232C47.584 35.68 47.36 36.096 47.04 36.48C46.784 36.864 46.464 37.216 46.08 37.536C45.696 37.792 45.248 38.016 44.736 38.208C44.288 38.336 43.776 38.4 43.2 38.4H43.104L43.008 38.304ZM43.008 28.896L43.104 28.8H43.2C43.776 28.8 44.288 28.896 44.736 29.088C45.248 29.216 45.696 29.44 46.08 29.76C46.464 30.016 46.784 30.336 47.04 30.72C47.36 31.104 47.584 31.552 47.712 32.064C47.904 32.512 48 33.024 48 33.6V33.696L47.904 33.792H43.008V28.896ZM43.392 28.896V33.792H38.496L38.4 33.696V33.6C38.4 33.024 38.464 32.512 38.592 32.064C38.784 31.552 39.008 31.104 39.264 30.72C39.584 30.336 39.936 30.016 40.32 29.76C40.704 29.44 41.12 29.216 41.568 29.088C42.08 28.896 42.624 28.8 43.2 28.8H43.296L43.392 28.896ZM43.392 28.704L43.296 28.8H43.2C42.624 28.8 42.08 28.736 41.568 28.608C41.12 28.416 40.704 28.192 40.32 27.936C39.936 27.616 39.584 27.264 39.264 26.88C39.008 26.496 38.784 26.08 38.592 25.632C38.464 25.12 38.4 24.576 38.4 24V23.904L38.496 23.808H43.392V28.704ZM43.008 28.704V23.808H47.904L48 23.904V24C48 24.576 47.904 25.12 47.712 25.632C47.584 26.08 47.36 26.496 47.04 26.88C46.784 27.264 46.464 27.616 46.08 27.936C45.696 28.192 45.248 28.416 44.736 28.608C44.288 28.736 43.776 28.8 43.2 28.8H43.104L43.008 28.704ZM43.008 19.296L43.104 19.2H43.2C43.776 19.2 44.288 19.296 44.736 19.488C45.248 19.616 45.696 19.84 46.08 20.16C46.464 20.416 46.784 20.736 47.04 21.12C47.36 21.504 47.584 21.952 47.712 22.464C47.904 22.912 48 23.424 48 24V24.096L47.904 24.192H43.008V19.296ZM43.392 19.296V24.192H38.496L38.4 24.096V24C38.4 23.424 38.464 22.912 38.592 22.464C38.784 21.952 39.008 21.504 39.264 21.12C39.584 20.736 39.936 20.416 40.32 20.16C40.704 19.84 41.12 19.616 41.568 19.488C42.08 19.296 42.624 19.2 43.2 19.2H43.296L43.392 19.296ZM43.392 19.104L43.296 19.2H43.2C42.624 19.2 42.08 19.136 41.568 19.008C41.12 18.816 40.704 18.592 40.32 18.336C39.936 18.016 39.584 17.664 39.264 17.28C39.008 16.896 38.784 16.48 38.592 16.032C38.464 15.52 38.4 14.976 38.4 14.4V14.304L38.496 14.208H43.392V19.104ZM43.008 19.104V14.208H47.904L48 14.304V14.4C48 14.976 47.904 15.52 47.712 16.032C47.584 16.48 47.36 16.896 47.04 17.28C46.784 17.664 46.464 18.016 46.08 18.336C45.696 18.592 45.248 18.816 44.736 19.008C44.288 19.136 43.776 19.2 43.2 19.2H43.104L43.008 19.104ZM43.008 9.696L43.104 9.6H43.2C43.776 9.6 44.288 9.696 44.736 9.888C45.248 10.016 45.696 10.24 46.08 10.56C46.464 10.816 46.784 11.136 47.04 11.52C47.36 11.904 47.584 12.352 47.712 12.864C47.904 13.312 48 13.824 48 14.4V14.496L47.904 14.592H43.008V9.696ZM43.392 9.696V14.592H38.496L38.4 14.496V14.4C38.4 13.824 38.464 13.312 38.592 12.864C38.784 12.352 39.008 11.904 39.264 11.52C39.584 11.136 39.936 10.816 40.32 10.56C40.704 10.24 41.12 10.016 41.568 9.888C42.08 9.696 42.624 9.6 43.2 9.6H43.296L43.392 9.696ZM43.392 9.504L43.296 9.6H43.2C42.624 9.6 42.08 9.536 41.568 9.408C41.12 9.216 40.704 8.992 40.32 8.736C39.936 8.416 39.584 8.064 39.264 7.68C39.008 7.296 38.784 6.88 38.592 6.432C38.464 5.92 38.4 5.376 38.4 4.8V4.704L38.496 4.608H43.392V9.504ZM43.008 9.504V4.608H47.904L48 4.704V4.8C48 5.376 47.904 5.92 47.712 6.432C47.584 6.88 47.36 7.296 47.04 7.68C46.784 8.064 46.464 8.416 46.08 8.736C45.696 8.992 45.248 9.216 44.736 9.408C44.288 9.536 43.776 9.6 43.2 9.6H43.104L43.008 9.504ZM43.008 0.0959988L43.104 0H43.2C43.776 0 44.288 0.0960007 44.736 0.288002C45.248 0.416 45.696 0.639999 46.08 0.959999C46.464 1.216 46.784 1.536 47.04 1.92C47.36 2.304 47.584 2.752 47.712 3.264C47.904 3.712 48 4.224 48 4.8V4.896L47.904 4.992H43.008V0.0959988ZM43.392 0.0959988V4.992H38.496L38.4 4.896V4.8C38.4 4.224 38.464 3.712 38.592 3.264C38.784 2.752 39.008 2.304 39.264 1.92C39.584 1.536 39.936 1.216 40.32 0.959999C40.704 0.639999 41.12 0.416 41.568 0.288002C42.08 0.0960007 42.624 0 43.2 0H43.296L43.392 0.0959988Z" fill="black"/>
</svg>
