<svg width="151" height="58" viewBox="0 0 151 58" fill="none" xmlns="http://www.w3.org/2000/svg">
<path d="M4.992 57.904L4.896 58H4.8C4.224 58 3.68 57.936 3.168 57.808C2.72 57.616 2.304 57.392 1.92 57.136C1.536 56.816 1.184 56.464 0.864 56.08C0.608 55.696 0.384 55.28 0.192 54.832C0.064 54.32 0 53.776 0 53.2V53.104L0.096 53.008H4.992V57.904ZM4.608 57.904V53.008H9.504L9.6 53.104V53.2C9.6 53.776 9.504 54.32 9.312 54.832C9.184 55.28 8.96 55.696 8.64 56.08C8.384 56.464 8.064 56.816 7.68 57.136C7.296 57.392 6.848 57.616 6.336 57.808C5.888 57.936 5.376 58 4.8 58H4.704L4.608 57.904ZM4.608 48.496L4.704 48.4H4.8C5.376 48.4 5.888 48.496 6.336 48.688C6.848 48.816 7.296 49.04 7.68 49.36C8.064 49.616 8.384 49.936 8.64 50.32C8.96 50.704 9.184 51.152 9.312 51.664C9.504 52.112 9.6 52.624 9.6 53.2V53.296L9.504 53.392H4.608V48.496ZM4.992 48.496V53.392H0.096L0 53.296V53.2C0 52.624 0.064 52.112 0.192 51.664C0.384 51.152 0.608 50.704 0.864 50.32C1.184 49.936 1.536 49.616 1.92 49.36C2.304 49.04 2.72 48.816 3.168 48.688C3.68 48.496 4.224 48.4 4.8 48.4H4.896L4.992 48.496ZM4.992 48.304L4.896 48.4H4.8C4.224 48.4 3.68 48.336 3.168 48.208C2.72 48.016 2.304 47.792 1.92 47.536C1.536 47.216 1.184 46.864 0.864 46.48C0.608 46.096 0.384 45.68 0.192 45.232C0.064 44.72 0 44.176 0 43.6V43.504L0.096 43.408H4.992V48.304ZM4.608 48.304V43.408H9.504L9.6 43.504V43.6C9.6 44.176 9.504 44.72 9.312 45.232C9.184 45.68 8.96 46.096 8.64 46.48C8.384 46.864 8.064 47.216 7.68 47.536C7.296 47.792 6.848 48.016 6.336 48.208C5.888 48.336 5.376 48.4 4.8 48.4H4.704L4.608 48.304ZM4.608 38.896L4.704 38.8H4.8C5.376 38.8 5.888 38.896 6.336 39.088C6.848 39.216 7.296 39.44 7.68 39.76C8.064 40.016 8.384 40.336 8.64 40.72C8.96 41.104 9.184 41.552 9.312 42.064C9.504 42.512 9.6 43.024 9.6 43.6V43.696L9.504 43.792H4.608V38.896ZM4.992 38.896V43.792H0.096L0 43.696V43.6C0 43.024 0.064 42.512 0.192 42.064C0.384 41.552 0.608 41.104 0.864 40.72C1.184 40.336 1.536 40.016 1.92 39.76C2.304 39.44 2.72 39.216 3.168 39.088C3.68 38.896 4.224 38.8 4.8 38.8H4.896L4.992 38.896ZM4.992 38.704L4.896 38.8H4.8C4.224 38.8 3.68 38.736 3.168 38.608C2.72 38.416 2.304 38.192 1.92 37.936C1.536 37.616 1.184 37.264 0.864 36.88C0.608 36.496 0.384 36.08 0.192 35.632C0.064 35.12 0 34.576 0 34V33.904L0.096 33.808H4.992V38.704ZM4.608 38.704V33.808H9.504L9.6 33.904V34C9.6 34.576 9.504 35.12 9.312 35.632C9.184 36.08 8.96 36.496 8.64 36.88C8.384 37.264 8.064 37.616 7.68 37.936C7.296 38.192 6.848 38.416 6.336 38.608C5.888 38.736 5.376 38.8 4.8 38.8H4.704L4.608 38.704ZM4.608 29.296L4.704 29.2H4.8C5.376 29.2 5.888 29.296 6.336 29.488C6.848 29.616 7.296 29.84 7.68 30.16C8.064 30.416 8.384 30.736 8.64 31.12C8.96 31.504 9.184 31.952 9.312 32.464C9.504 32.912 9.6 33.424 9.6 34V34.096L9.504 34.192H4.608V29.296ZM4.992 29.296V34.192H0.096L0 34.096V34C0 33.424 0.064 32.912 0.192 32.464C0.384 31.952 0.608 31.504 0.864 31.12C1.184 30.736 1.536 30.416 1.92 30.16C2.304 29.84 2.72 29.616 3.168 29.488C3.68 29.296 4.224 29.2 4.8 29.2H4.896L4.992 29.296ZM4.992 29.104L4.896 29.2H4.8C4.224 29.2 3.68 29.136 3.168 29.008C2.72 28.816 2.304 28.592 1.92 28.336C1.536 28.016 1.184 27.664 0.864 27.28C0.608 26.896 0.384 26.48 0.192 26.032C0.064 25.52 0 24.976 0 24.4V24.304L0.096 24.208H4.992V29.104ZM4.608 29.104V24.208H9.504L9.6 24.304V24.4C9.6 24.976 9.504 25.52 9.312 26.032C9.184 26.48 8.96 26.896 8.64 27.28C8.384 27.664 8.064 28.016 7.68 28.336C7.296 28.592 6.848 28.816 6.336 29.008C5.888 29.136 5.376 29.2 4.8 29.2H4.704L4.608 29.104ZM4.608 19.696L4.704 19.6H4.8C5.376 19.6 5.888 19.696 6.336 19.888C6.848 20.016 7.296 20.24 7.68 20.56C8.064 20.816 8.384 21.136 8.64 21.52C8.96 21.904 9.184 22.352 9.312 22.864C9.504 23.312 9.6 23.824 9.6 24.4V24.496L9.504 24.592H4.608V19.696ZM4.992 19.696V24.592H0.096L0 24.496V24.4C0 23.824 0.064 23.312 0.192 22.864C0.384 22.352 0.608 21.904 0.864 21.52C1.184 21.136 1.536 20.816 1.92 20.56C2.304 20.24 2.72 20.016 3.168 19.888C3.68 19.696 4.224 19.6 4.8 19.6H4.896L4.992 19.696ZM4.992 19.504L4.896 19.6H4.8C4.224 19.6 3.68 19.536 3.168 19.408C2.72 19.216 2.304 18.992 1.92 18.736C1.536 18.416 1.184 18.064 0.864 17.68C0.608 17.296 0.384 16.88 0.192 16.432C0.064 15.92 0 15.376 0 14.8V14.704L0.096 14.608H4.992V19.504ZM4.608 19.504V14.608H9.504L9.6 14.704V14.8C9.6 15.376 9.504 15.92 9.312 16.432C9.184 16.88 8.96 17.296 8.64 17.68C8.384 18.064 8.064 18.416 7.68 18.736C7.296 18.992 6.848 19.216 6.336 19.408C5.888 19.536 5.376 19.6 4.8 19.6H4.704L4.608 19.504ZM4.608 10.096L4.704 10H4.8C5.376 10 5.888 10.096 6.336 10.288C6.848 10.416 7.296 10.64 7.68 10.96C8.064 11.216 8.384 11.536 8.64 11.92C8.96 12.304 9.184 12.752 9.312 13.264C9.504 13.712 9.6 14.224 9.6 14.8V14.896L9.504 14.992H4.608V10.096ZM4.992 10.096V14.992H0.096L0 14.896V14.8C0 14.224 0.064 13.712 0.192 13.264C0.384 12.752 0.608 12.304 0.864 11.92C1.184 11.536 1.536 11.216 1.92 10.96C2.304 10.64 2.72 10.416 3.168 10.288C3.68 10.096 4.224 10 4.8 10H4.896L4.992 10.096ZM4.992 9.904L4.896 10H4.8C4.224 10 3.68 9.936 3.168 9.808C2.72 9.616 2.304 9.392 1.92 9.136C1.536 8.816 1.184 8.464 0.864 8.08C0.608 7.696 0.384 7.28 0.192 6.832C0.064 6.32 0 5.776 0 5.2V5.104L0.096 5.008H4.992V9.904ZM4.608 9.904V5.008H9.504L9.6 5.104V5.2C9.6 5.776 9.504 6.32 9.312 6.832C9.184 7.28 8.96 7.696 8.64 8.08C8.384 8.464 8.064 8.816 7.68 9.136C7.296 9.392 6.848 9.616 6.336 9.808C5.888 9.936 5.376 10 4.8 10H4.704L4.608 9.904ZM4.608 0.495996L4.704 0.399998H4.8C5.376 0.399998 5.888 0.495998 6.336 0.688C6.848 0.815998 7.296 1.04 7.68 1.36C8.064 1.616 8.384 1.936 8.64 2.32C8.96 2.704 9.184 3.152 9.312 3.664C9.504 4.112 9.6 4.624 9.6 5.2V5.296L9.504 5.392H4.608V0.495996ZM4.992 0.495996V5.392H0.096L0 5.296V5.2C0 4.624 0.064 4.112 0.192 3.664C0.384 3.152 0.608 2.704 0.864 2.32C1.184 1.936 1.536 1.616 1.92 1.36C2.304 1.04 2.72 0.815998 3.168 0.688C3.68 0.495998 4.224 0.399998 4.8 0.399998H4.896L4.992 0.495996ZM14.592 19.504L14.496 19.6H14.4C13.824 19.6 13.28 19.536 12.768 19.408C12.32 19.216 11.904 18.992 11.52 18.736C11.136 18.416 10.784 18.064 10.464 17.68C10.208 17.296 9.984 16.88 9.792 16.432C9.664 15.92 9.6 15.376 9.6 14.8V14.704L9.696 14.608H14.592V19.504ZM14.208 19.504V14.608H19.104L19.2 14.704V14.8C19.2 15.376 19.104 15.92 18.912 16.432C18.784 16.88 18.56 17.296 18.24 17.68C17.984 18.064 17.664 18.416 17.28 18.736C16.896 18.992 16.448 19.216 15.936 19.408C15.488 19.536 14.976 19.6 14.4 19.6H14.304L14.208 19.504ZM14.208 10.096L14.304 10H14.4C14.976 10 15.488 10.096 15.936 10.288C16.448 10.416 16.896 10.64 17.28 10.96C17.664 11.216 17.984 11.536 18.24 11.92C18.56 12.304 18.784 12.752 18.912 13.264C19.104 13.712 19.2 14.224 19.2 14.8V14.896L19.104 14.992H14.208V10.096ZM14.592 10.096V14.992H9.696L9.6 14.896V14.8C9.6 14.224 9.664 13.712 9.792 13.264C9.984 12.752 10.208 12.304 10.464 11.92C10.784 11.536 11.136 11.216 11.52 10.96C11.904 10.64 12.32 10.416 12.768 10.288C13.28 10.096 13.824 10 14.4 10H14.496L14.592 10.096ZM24.192 38.704L24.096 38.8H24C23.424 38.8 22.88 38.736 22.368 38.608C21.92 38.416 21.504 38.192 21.12 37.936C20.736 37.616 20.384 37.264 20.064 36.88C19.808 36.496 19.584 36.08 19.392 35.632C19.264 35.12 19.2 34.576 19.2 34V33.904L19.296 33.808H24.192V38.704ZM23.808 38.704V33.808H28.704L28.8 33.904V34C28.8 34.576 28.704 35.12 28.512 35.632C28.384 36.08 28.16 36.496 27.84 36.88C27.584 37.264 27.264 37.616 26.88 37.936C26.496 38.192 26.048 38.416 25.536 38.608C25.088 38.736 24.576 38.8 24 38.8H23.904L23.808 38.704ZM23.808 29.296L23.904 29.2H24C24.576 29.2 25.088 29.296 25.536 29.488C26.048 29.616 26.496 29.84 26.88 30.16C27.264 30.416 27.584 30.736 27.84 31.12C28.16 31.504 28.384 31.952 28.512 32.464C28.704 32.912 28.8 33.424 28.8 34V34.096L28.704 34.192H23.808V29.296ZM24.192 29.296V34.192H19.296L19.2 34.096V34C19.2 33.424 19.264 32.912 19.392 32.464C19.584 31.952 19.808 31.504 20.064 31.12C20.384 30.736 20.736 30.416 21.12 30.16C21.504 29.84 21.92 29.616 22.368 29.488C22.88 29.296 23.424 29.2 24 29.2H24.096L24.192 29.296ZM24.192 29.104L24.096 29.2H24C23.424 29.2 22.88 29.136 22.368 29.008C21.92 28.816 21.504 28.592 21.12 28.336C20.736 28.016 20.384 27.664 20.064 27.28C19.808 26.896 19.584 26.48 19.392 26.032C19.264 25.52 19.2 24.976 19.2 24.4V24.304L19.296 24.208H24.192V29.104ZM23.808 29.104V24.208H28.704L28.8 24.304V24.4C28.8 24.976 28.704 25.52 28.512 26.032C28.384 26.48 28.16 26.896 27.84 27.28C27.584 27.664 27.264 28.016 26.88 28.336C26.496 28.592 26.048 28.816 25.536 29.008C25.088 29.136 24.576 29.2 24 29.2H23.904L23.808 29.104ZM23.808 19.696L23.904 19.6H24C24.576 19.6 25.088 19.696 25.536 19.888C26.048 20.016 26.496 20.24 26.88 20.56C27.264 20.816 27.584 21.136 27.84 21.52C28.16 21.904 28.384 22.352 28.512 22.864C28.704 23.312 28.8 23.824 28.8 24.4V24.496L28.704 24.592H23.808V19.696ZM24.192 19.696V24.592H19.296L19.2 24.496V24.4C19.2 23.824 19.264 23.312 19.392 22.864C19.584 22.352 19.808 21.904 20.064 21.52C20.384 21.136 20.736 20.816 21.12 20.56C21.504 20.24 21.92 20.016 22.368 19.888C22.88 19.696 23.424 19.6 24 19.6H24.096L24.192 19.696ZM33.792 19.504L33.696 19.6H33.6C33.024 19.6 32.48 19.536 31.968 19.408C31.52 19.216 31.104 18.992 30.72 18.736C30.336 18.416 29.984 18.064 29.664 17.68C29.408 17.296 29.184 16.88 28.992 16.432C28.864 15.92 28.8 15.376 28.8 14.8V14.704L28.896 14.608H33.792V19.504ZM33.408 19.504V14.608H38.304L38.4 14.704V14.8C38.4 15.376 38.304 15.92 38.112 16.432C37.984 16.88 37.76 17.296 37.44 17.68C37.184 18.064 36.864 18.416 36.48 18.736C36.096 18.992 35.648 19.216 35.136 19.408C34.688 19.536 34.176 19.6 33.6 19.6H33.504L33.408 19.504ZM33.408 10.096L33.504 10H33.6C34.176 10 34.688 10.096 35.136 10.288C35.648 10.416 36.096 10.64 36.48 10.96C36.864 11.216 37.184 11.536 37.44 11.92C37.76 12.304 37.984 12.752 38.112 13.264C38.304 13.712 38.4 14.224 38.4 14.8V14.896L38.304 14.992H33.408V10.096ZM33.792 10.096V14.992H28.896L28.8 14.896V14.8C28.8 14.224 28.864 13.712 28.992 13.264C29.184 12.752 29.408 12.304 29.664 11.92C29.984 11.536 30.336 11.216 30.72 10.96C31.104 10.64 31.52 10.416 31.968 10.288C32.48 10.096 33.024 10 33.6 10H33.696L33.792 10.096ZM43.392 57.904L43.296 58H43.2C42.624 58 42.08 57.936 41.568 57.808C41.12 57.616 40.704 57.392 40.32 57.136C39.936 56.816 39.584 56.464 39.264 56.08C39.008 55.696 38.784 55.28 38.592 54.832C38.464 54.32 38.4 53.776 38.4 53.2V53.104L38.496 53.008H43.392V57.904ZM43.008 57.904V53.008H47.904L48 53.104V53.2C48 53.776 47.904 54.32 47.712 54.832C47.584 55.28 47.36 55.696 47.04 56.08C46.784 56.464 46.464 56.816 46.08 57.136C45.696 57.392 45.248 57.616 44.736 57.808C44.288 57.936 43.776 58 43.2 58H43.104L43.008 57.904ZM43.008 48.496L43.104 48.4H43.2C43.776 48.4 44.288 48.496 44.736 48.688C45.248 48.816 45.696 49.04 46.08 49.36C46.464 49.616 46.784 49.936 47.04 50.32C47.36 50.704 47.584 51.152 47.712 51.664C47.904 52.112 48 52.624 48 53.2V53.296L47.904 53.392H43.008V48.496ZM43.392 48.496V53.392H38.496L38.4 53.296V53.2C38.4 52.624 38.464 52.112 38.592 51.664C38.784 51.152 39.008 50.704 39.264 50.32C39.584 49.936 39.936 49.616 40.32 49.36C40.704 49.04 41.12 48.816 41.568 48.688C42.08 48.496 42.624 48.4 43.2 48.4H43.296L43.392 48.496ZM43.392 48.304L43.296 48.4H43.2C42.624 48.4 42.08 48.336 41.568 48.208C41.12 48.016 40.704 47.792 40.32 47.536C39.936 47.216 39.584 46.864 39.264 46.48C39.008 46.096 38.784 45.68 38.592 45.232C38.464 44.72 38.4 44.176 38.4 43.6V43.504L38.496 43.408H43.392V48.304ZM43.008 48.304V43.408H47.904L48 43.504V43.6C48 44.176 47.904 44.72 47.712 45.232C47.584 45.68 47.36 46.096 47.04 46.48C46.784 46.864 46.464 47.216 46.08 47.536C45.696 47.792 45.248 48.016 44.736 48.208C44.288 48.336 43.776 48.4 43.2 48.4H43.104L43.008 48.304ZM43.008 38.896L43.104 38.8H43.2C43.776 38.8 44.288 38.896 44.736 39.088C45.248 39.216 45.696 39.44 46.08 39.76C46.464 40.016 46.784 40.336 47.04 40.72C47.36 41.104 47.584 41.552 47.712 42.064C47.904 42.512 48 43.024 48 43.6V43.696L47.904 43.792H43.008V38.896ZM43.392 38.896V43.792H38.496L38.4 43.696V43.6C38.4 43.024 38.464 42.512 38.592 42.064C38.784 41.552 39.008 41.104 39.264 40.72C39.584 40.336 39.936 40.016 40.32 39.76C40.704 39.44 41.12 39.216 41.568 39.088C42.08 38.896 42.624 38.8 43.2 38.8H43.296L43.392 38.896ZM43.392 38.704L43.296 38.8H43.2C42.624 38.8 42.08 38.736 41.568 38.608C41.12 38.416 40.704 38.192 40.32 37.936C39.936 37.616 39.584 37.264 39.264 36.88C39.008 36.496 38.784 36.08 38.592 35.632C38.464 35.12 38.4 34.576 38.4 34V33.904L38.496 33.808H43.392V38.704ZM43.008 38.704V33.808H47.904L48 33.904V34C48 34.576 47.904 35.12 47.712 35.632C47.584 36.08 47.36 36.496 47.04 36.88C46.784 37.264 46.464 37.616 46.08 37.936C45.696 38.192 45.248 38.416 44.736 38.608C44.288 38.736 43.776 38.8 43.2 38.8H43.104L43.008 38.704ZM43.008 29.296L43.104 29.2H43.2C43.776 29.2 44.288 29.296 44.736 29.488C45.248 29.616 45.696 29.84 46.08 30.16C46.464 30.416 46.784 30.736 47.04 31.12C47.36 31.504 47.584 31.952 47.712 32.464C47.904 32.912 48 33.424 48 34V34.096L47.904 34.192H43.008V29.296ZM43.392 29.296V34.192H38.496L38.4 34.096V34C38.4 33.424 38.464 32.912 38.592 32.464C38.784 31.952 39.008 31.504 39.264 31.12C39.584 30.736 39.936 30.416 40.32 30.16C40.704 29.84 41.12 29.616 41.568 29.488C42.08 29.296 42.624 29.2 43.2 29.2H43.296L43.392 29.296ZM43.392 29.104L43.296 29.2H43.2C42.624 29.2 42.08 29.136 41.568 29.008C41.12 28.816 40.704 28.592 40.32 28.336C39.936 28.016 39.584 27.664 39.264 27.28C39.008 26.896 38.784 26.48 38.592 26.032C38.464 25.52 38.4 24.976 38.4 24.4V24.304L38.496 24.208H43.392V29.104ZM43.008 29.104V24.208H47.904L48 24.304V24.4C48 24.976 47.904 25.52 47.712 26.032C47.584 26.48 47.36 26.896 47.04 27.28C46.784 27.664 46.464 28.016 46.08 28.336C45.696 28.592 45.248 28.816 44.736 29.008C44.288 29.136 43.776 29.2 43.2 29.2H43.104L43.008 29.104ZM43.008 19.696L43.104 19.6H43.2C43.776 19.6 44.288 19.696 44.736 19.888C45.248 20.016 45.696 20.24 46.08 20.56C46.464 20.816 46.784 21.136 47.04 21.52C47.36 21.904 47.584 22.352 47.712 22.864C47.904 23.312 48 23.824 48 24.4V24.496L47.904 24.592H43.008V19.696ZM43.392 19.696V24.592H38.496L38.4 24.496V24.4C38.4 23.824 38.464 23.312 38.592 22.864C38.784 22.352 39.008 21.904 39.264 21.52C39.584 21.136 39.936 20.816 40.32 20.56C40.704 20.24 41.12 20.016 41.568 19.888C42.08 19.696 42.624 19.6 43.2 19.6H43.296L43.392 19.696ZM43.392 19.504L43.296 19.6H43.2C42.624 19.6 42.08 19.536 41.568 19.408C41.12 19.216 40.704 18.992 40.32 18.736C39.936 18.416 39.584 18.064 39.264 17.68C39.008 17.296 38.784 16.88 38.592 16.432C38.464 15.92 38.4 15.376 38.4 14.8V14.704L38.496 14.608H43.392V19.504ZM43.008 19.504V14.608H47.904L48 14.704V14.8C48 15.376 47.904 15.92 47.712 16.432C47.584 16.88 47.36 17.296 47.04 17.68C46.784 18.064 46.464 18.416 46.08 18.736C45.696 18.992 45.248 19.216 44.736 19.408C44.288 19.536 43.776 19.6 43.2 19.6H43.104L43.008 19.504ZM43.008 10.096L43.104 10H43.2C43.776 10 44.288 10.096 44.736 10.288C45.248 10.416 45.696 10.64 46.08 10.96C46.464 11.216 46.784 11.536 47.04 11.92C47.36 12.304 47.584 12.752 47.712 13.264C47.904 13.712 48 14.224 48 14.8V14.896L47.904 14.992H43.008V10.096ZM43.392 10.096V14.992H38.496L38.4 14.896V14.8C38.4 14.224 38.464 13.712 38.592 13.264C38.784 12.752 39.008 12.304 39.264 11.92C39.584 11.536 39.936 11.216 40.32 10.96C40.704 10.64 41.12 10.416 41.568 10.288C42.08 10.096 42.624 10 43.2 10H43.296L43.392 10.096ZM43.392 9.904L43.296 10H43.2C42.624 10 42.08 9.936 41.568 9.808C41.12 9.616 40.704 9.392 40.32 9.136C39.936 8.816 39.584 8.464 39.264 8.08C39.008 7.696 38.784 7.28 38.592 6.832C38.464 6.32 38.4 5.776 38.4 5.2V5.104L38.496 5.008H43.392V9.904ZM43.008 9.904V5.008H47.904L48 5.104V5.2C48 5.776 47.904 6.32 47.712 6.832C47.584 7.28 47.36 7.696 47.04 8.08C46.784 8.464 46.464 8.816 46.08 9.136C45.696 9.392 45.248 9.616 44.736 9.808C44.288 9.936 43.776 10 43.2 10H43.104L43.008 9.904ZM43.008 0.495996L43.104 0.399998H43.2C43.776 0.399998 44.288 0.495998 44.736 0.688C45.248 0.815998 45.696 1.04 46.08 1.36C46.464 1.616 46.784 1.936 47.04 2.32C47.36 2.704 47.584 3.152 47.712 3.664C47.904 4.112 48 4.624 48 5.2V5.296L47.904 5.392H43.008V0.495996ZM43.392 0.495996V5.392H38.496L38.4 5.296V5.2C38.4 4.624 38.464 4.112 38.592 3.664C38.784 3.152 39.008 2.704 39.264 2.32C39.584 1.936 39.936 1.616 40.32 1.36C40.704 1.04 41.12 0.815998 41.568 0.688C42.08 0.495998 42.624 0.399998 43.2 0.399998H43.296L43.392 0.495996Z" fill="black"/>
<path d="M107.992 47.904L107.896 48H107.8C107.224 48 106.68 47.936 106.168 47.808C105.72 47.616 105.304 47.392 104.92 47.136C104.536 46.816 104.184 46.464 103.864 46.08C103.608 45.696 103.384 45.28 103.192 44.832C103.064 44.32 103 43.776 103 43.2V43.104L103.096 43.008H107.992V47.904ZM107.608 47.904V43.008H112.504L112.6 43.104V43.2C112.6 43.776 112.504 44.32 112.312 44.832C112.184 45.28 111.96 45.696 111.64 46.08C111.384 46.464 111.064 46.816 110.68 47.136C110.296 47.392 109.848 47.616 109.336 47.808C108.888 47.936 108.376 48 107.8 48H107.704L107.608 47.904ZM107.608 38.496L107.704 38.4H107.8C108.376 38.4 108.888 38.496 109.336 38.688C109.848 38.816 110.296 39.04 110.68 39.36C111.064 39.616 111.384 39.936 111.64 40.32C111.96 40.704 112.184 41.152 112.312 41.664C112.504 42.112 112.6 42.624 112.6 43.2V43.296L112.504 43.392H107.608V38.496ZM107.992 38.496V43.392H103.096L103 43.296V43.2C103 42.624 103.064 42.112 103.192 41.664C103.384 41.152 103.608 40.704 103.864 40.32C104.184 39.936 104.536 39.616 104.92 39.36C105.304 39.04 105.72 38.816 106.168 38.688C106.68 38.496 107.224 38.4 107.8 38.4H107.896L107.992 38.496ZM107.992 38.304L107.896 38.4H107.8C107.224 38.4 106.68 38.336 106.168 38.208C105.72 38.016 105.304 37.792 104.92 37.536C104.536 37.216 104.184 36.864 103.864 36.48C103.608 36.096 103.384 35.68 103.192 35.232C103.064 34.72 103 34.176 103 33.6V33.504L103.096 33.408H107.992V38.304ZM107.608 38.304V33.408H112.504L112.6 33.504V33.6C112.6 34.176 112.504 34.72 112.312 35.232C112.184 35.68 111.96 36.096 111.64 36.48C111.384 36.864 111.064 37.216 110.68 37.536C110.296 37.792 109.848 38.016 109.336 38.208C108.888 38.336 108.376 38.4 107.8 38.4H107.704L107.608 38.304ZM107.608 28.896L107.704 28.8H107.8C108.376 28.8 108.888 28.896 109.336 29.088C109.848 29.216 110.296 29.44 110.68 29.76C111.064 30.016 111.384 30.336 111.64 30.72C111.96 31.104 112.184 31.552 112.312 32.064C112.504 32.512 112.6 33.024 112.6 33.6V33.696L112.504 33.792H107.608V28.896ZM107.992 28.896V33.792H103.096L103 33.696V33.6C103 33.024 103.064 32.512 103.192 32.064C103.384 31.552 103.608 31.104 103.864 30.72C104.184 30.336 104.536 30.016 104.92 29.76C105.304 29.44 105.72 29.216 106.168 29.088C106.68 28.896 107.224 28.8 107.8 28.8H107.896L107.992 28.896ZM117.592 47.904L117.496 48H117.4C116.824 48 116.28 47.936 115.768 47.808C115.32 47.616 114.904 47.392 114.52 47.136C114.136 46.816 113.784 46.464 113.464 46.08C113.208 45.696 112.984 45.28 112.792 44.832C112.664 44.32 112.6 43.776 112.6 43.2V43.104L112.696 43.008H117.592V47.904ZM117.208 47.904V43.008H122.104L122.2 43.104V43.2C122.2 43.776 122.104 44.32 121.912 44.832C121.784 45.28 121.56 45.696 121.24 46.08C120.984 46.464 120.664 46.816 120.28 47.136C119.896 47.392 119.448 47.616 118.936 47.808C118.488 47.936 117.976 48 117.4 48H117.304L117.208 47.904ZM117.208 38.496L117.304 38.4H117.4C117.976 38.4 118.488 38.496 118.936 38.688C119.448 38.816 119.896 39.04 120.28 39.36C120.664 39.616 120.984 39.936 121.24 40.32C121.56 40.704 121.784 41.152 121.912 41.664C122.104 42.112 122.2 42.624 122.2 43.2V43.296L122.104 43.392H117.208V38.496ZM117.592 38.496V43.392H112.696L112.6 43.296V43.2C112.6 42.624 112.664 42.112 112.792 41.664C112.984 41.152 113.208 40.704 113.464 40.32C113.784 39.936 114.136 39.616 114.52 39.36C114.904 39.04 115.32 38.816 115.768 38.688C116.28 38.496 116.824 38.4 117.4 38.4H117.496L117.592 38.496ZM117.592 28.704L117.496 28.8H117.4C116.824 28.8 116.28 28.736 115.768 28.608C115.32 28.416 114.904 28.192 114.52 27.936C114.136 27.616 113.784 27.264 113.464 26.88C113.208 26.496 112.984 26.08 112.792 25.632C112.664 25.12 112.6 24.576 112.6 24V23.904L112.696 23.808H117.592V28.704ZM117.208 28.704V23.808H122.104L122.2 23.904V24C122.2 24.576 122.104 25.12 121.912 25.632C121.784 26.08 121.56 26.496 121.24 26.88C120.984 27.264 120.664 27.616 120.28 27.936C119.896 28.192 119.448 28.416 118.936 28.608C118.488 28.736 117.976 28.8 117.4 28.8H117.304L117.208 28.704ZM117.208 19.296L117.304 19.2H117.4C117.976 19.2 118.488 19.296 118.936 19.488C119.448 19.616 119.896 19.84 120.28 20.16C120.664 20.416 120.984 20.736 121.24 21.12C121.56 21.504 121.784 21.952 121.912 22.464C122.104 22.912 122.2 23.424 122.2 24V24.096L122.104 24.192H117.208V19.296ZM117.592 19.296V24.192H112.696L112.6 24.096V24C112.6 23.424 112.664 22.912 112.792 22.464C112.984 21.952 113.208 21.504 113.464 21.12C113.784 20.736 114.136 20.416 114.52 20.16C114.904 19.84 115.32 19.616 115.768 19.488C116.28 19.296 116.824 19.2 117.4 19.2H117.496L117.592 19.296ZM127.192 47.904L127.096 48H127C126.424 48 125.88 47.936 125.368 47.808C124.92 47.616 124.504 47.392 124.12 47.136C123.736 46.816 123.384 46.464 123.064 46.08C122.808 45.696 122.584 45.28 122.392 44.832C122.264 44.32 122.2 43.776 122.2 43.2V43.104L122.296 43.008H127.192V47.904ZM126.808 47.904V43.008H131.704L131.8 43.104V43.2C131.8 43.776 131.704 44.32 131.512 44.832C131.384 45.28 131.16 45.696 130.84 46.08C130.584 46.464 130.264 46.816 129.88 47.136C129.496 47.392 129.048 47.616 128.536 47.808C128.088 47.936 127.576 48 127 48H126.904L126.808 47.904ZM126.808 38.496L126.904 38.4H127C127.576 38.4 128.088 38.496 128.536 38.688C129.048 38.816 129.496 39.04 129.88 39.36C130.264 39.616 130.584 39.936 130.84 40.32C131.16 40.704 131.384 41.152 131.512 41.664C131.704 42.112 131.8 42.624 131.8 43.2V43.296L131.704 43.392H126.808V38.496ZM127.192 38.496V43.392H122.296L122.2 43.296V43.2C122.2 42.624 122.264 42.112 122.392 41.664C122.584 41.152 122.808 40.704 123.064 40.32C123.384 39.936 123.736 39.616 124.12 39.36C124.504 39.04 124.92 38.816 125.368 38.688C125.88 38.496 126.424 38.4 127 38.4H127.096L127.192 38.496ZM127.192 19.104L127.096 19.2H127C126.424 19.2 125.88 19.136 125.368 19.008C124.92 18.816 124.504 18.592 124.12 18.336C123.736 18.016 123.384 17.664 123.064 17.28C122.808 16.896 122.584 16.48 122.392 16.032C122.264 15.52 122.2 14.976 122.2 14.4V14.304L122.296 14.208H127.192V19.104ZM126.808 19.104V14.208H131.704L131.8 14.304V14.4C131.8 14.976 131.704 15.52 131.512 16.032C131.384 16.48 131.16 16.896 130.84 17.28C130.584 17.664 130.264 18.016 129.88 18.336C129.496 18.592 129.048 18.816 128.536 19.008C128.088 19.136 127.576 19.2 127 19.2H126.904L126.808 19.104ZM126.808 9.696L126.904 9.6H127C127.576 9.6 128.088 9.696 128.536 9.888C129.048 10.016 129.496 10.24 129.88 10.56C130.264 10.816 130.584 11.136 130.84 11.52C131.16 11.904 131.384 12.352 131.512 12.864C131.704 13.312 131.8 13.824 131.8 14.4V14.496L131.704 14.592H126.808V9.696ZM127.192 9.696V14.592H122.296L122.2 14.496V14.4C122.2 13.824 122.264 13.312 122.392 12.864C122.584 12.352 122.808 11.904 123.064 11.52C123.384 11.136 123.736 10.816 124.12 10.56C124.504 10.24 124.92 10.016 125.368 9.888C125.88 9.696 126.424 9.6 127 9.6H127.096L127.192 9.696ZM136.792 57.504L136.696 57.6H136.6C136.024 57.6 135.48 57.536 134.968 57.408C134.52 57.216 134.104 56.992 133.72 56.736C133.336 56.416 132.984 56.064 132.664 55.68C132.408 55.296 132.184 54.88 131.992 54.432C131.864 53.92 131.8 53.376 131.8 52.8V52.704L131.896 52.608H136.792V57.504ZM136.408 57.504V52.608H141.304L141.4 52.704V52.8C141.4 53.376 141.304 53.92 141.112 54.432C140.984 54.88 140.76 55.296 140.44 55.68C140.184 56.064 139.864 56.416 139.48 56.736C139.096 56.992 138.648 57.216 138.136 57.408C137.688 57.536 137.176 57.6 136.6 57.6H136.504L136.408 57.504ZM136.408 48.096L136.504 48H136.6C137.176 48 137.688 48.096 138.136 48.288C138.648 48.416 139.096 48.64 139.48 48.96C139.864 49.216 140.184 49.536 140.44 49.92C140.76 50.304 140.984 50.752 141.112 51.264C141.304 51.712 141.4 52.224 141.4 52.8V52.896L141.304 52.992H136.408V48.096ZM136.792 48.096V52.992H131.896L131.8 52.896V52.8C131.8 52.224 131.864 51.712 131.992 51.264C132.184 50.752 132.408 50.304 132.664 49.92C132.984 49.536 133.336 49.216 133.72 48.96C134.104 48.64 134.52 48.416 134.968 48.288C135.48 48.096 136.024 48 136.6 48H136.696L136.792 48.096ZM136.792 47.904L136.696 48H136.6C136.024 48 135.48 47.936 134.968 47.808C134.52 47.616 134.104 47.392 133.72 47.136C133.336 46.816 132.984 46.464 132.664 46.08C132.408 45.696 132.184 45.28 131.992 44.832C131.864 44.32 131.8 43.776 131.8 43.2V43.104L131.896 43.008H136.792V47.904ZM136.408 47.904V43.008H141.304L141.4 43.104V43.2C141.4 43.776 141.304 44.32 141.112 44.832C140.984 45.28 140.76 45.696 140.44 46.08C140.184 46.464 139.864 46.816 139.48 47.136C139.096 47.392 138.648 47.616 138.136 47.808C137.688 47.936 137.176 48 136.6 48H136.504L136.408 47.904ZM136.408 38.496L136.504 38.4H136.6C137.176 38.4 137.688 38.496 138.136 38.688C138.648 38.816 139.096 39.04 139.48 39.36C139.864 39.616 140.184 39.936 140.44 40.32C140.76 40.704 140.984 41.152 141.112 41.664C141.304 42.112 141.4 42.624 141.4 43.2V43.296L141.304 43.392H136.408V38.496ZM136.792 38.496V43.392H131.896L131.8 43.296V43.2C131.8 42.624 131.864 42.112 131.992 41.664C132.184 41.152 132.408 40.704 132.664 40.32C132.984 39.936 133.336 39.616 133.72 39.36C134.104 39.04 134.52 38.816 134.968 38.688C135.48 38.496 136.024 38.4 136.6 38.4H136.696L136.792 38.496ZM136.792 38.304L136.696 38.4H136.6C136.024 38.4 135.48 38.336 134.968 38.208C134.52 38.016 134.104 37.792 133.72 37.536C133.336 37.216 132.984 36.864 132.664 36.48C132.408 36.096 132.184 35.68 131.992 35.232C131.864 34.72 131.8 34.176 131.8 33.6V33.504L131.896 33.408H136.792V38.304ZM136.408 38.304V33.408H141.304L141.4 33.504V33.6C141.4 34.176 141.304 34.72 141.112 35.232C140.984 35.68 140.76 36.096 140.44 36.48C140.184 36.864 139.864 37.216 139.48 37.536C139.096 37.792 138.648 38.016 138.136 38.208C137.688 38.336 137.176 38.4 136.6 38.4H136.504L136.408 38.304ZM136.408 28.896L136.504 28.8H136.6C137.176 28.8 137.688 28.896 138.136 29.088C138.648 29.216 139.096 29.44 139.48 29.76C139.864 30.016 140.184 30.336 140.44 30.72C140.76 31.104 140.984 31.552 141.112 32.064C141.304 32.512 141.4 33.024 141.4 33.6V33.696L141.304 33.792H136.408V28.896ZM136.792 28.896V33.792H131.896L131.8 33.696V33.6C131.8 33.024 131.864 32.512 131.992 32.064C132.184 31.552 132.408 31.104 132.664 30.72C132.984 30.336 133.336 30.016 133.72 29.76C134.104 29.44 134.52 29.216 134.968 29.088C135.48 28.896 136.024 28.8 136.6 28.8H136.696L136.792 28.896ZM136.792 28.704L136.696 28.8H136.6C136.024 28.8 135.48 28.736 134.968 28.608C134.52 28.416 134.104 28.192 133.72 27.936C133.336 27.616 132.984 27.264 132.664 26.88C132.408 26.496 132.184 26.08 131.992 25.632C131.864 25.12 131.8 24.576 131.8 24V23.904L131.896 23.808H136.792V28.704ZM136.408 28.704V23.808H141.304L141.4 23.904V24C141.4 24.576 141.304 25.12 141.112 25.632C140.984 26.08 140.76 26.496 140.44 26.88C140.184 27.264 139.864 27.616 139.48 27.936C139.096 28.192 138.648 28.416 138.136 28.608C137.688 28.736 137.176 28.8 136.6 28.8H136.504L136.408 28.704ZM136.408 19.296L136.504 19.2H136.6C137.176 19.2 137.688 19.296 138.136 19.488C138.648 19.616 139.096 19.84 139.48 20.16C139.864 20.416 140.184 20.736 140.44 21.12C140.76 21.504 140.984 21.952 141.112 22.464C141.304 22.912 141.4 23.424 141.4 24V24.096L141.304 24.192H136.408V19.296ZM136.792 19.296V24.192H131.896L131.8 24.096V24C131.8 23.424 131.864 22.912 131.992 22.464C132.184 21.952 132.408 21.504 132.664 21.12C132.984 20.736 133.336 20.416 133.72 20.16C134.104 19.84 134.52 19.616 134.968 19.488C135.48 19.296 136.024 19.2 136.6 19.2H136.696L136.792 19.296ZM136.792 19.104L136.696 19.2H136.6C136.024 19.2 135.48 19.136 134.968 19.008C134.52 18.816 134.104 18.592 133.72 18.336C133.336 18.016 132.984 17.664 132.664 17.28C132.408 16.896 132.184 16.48 131.992 16.032C131.864 15.52 131.8 14.976 131.8 14.4V14.304L131.896 14.208H136.792V19.104ZM136.408 19.104V14.208H141.304L141.4 14.304V14.4C141.4 14.976 141.304 15.52 141.112 16.032C140.984 16.48 140.76 16.896 140.44 17.28C140.184 17.664 139.864 18.016 139.48 18.336C139.096 18.592 138.648 18.816 138.136 19.008C137.688 19.136 137.176 19.2 136.6 19.2H136.504L136.408 19.104ZM136.408 9.696L136.504 9.6H136.6C137.176 9.6 137.688 9.696 138.136 9.888C138.648 10.016 139.096 10.24 139.48 10.56C139.864 10.816 140.184 11.136 140.44 11.52C140.76 11.904 140.984 12.352 141.112 12.864C141.304 13.312 141.4 13.824 141.4 14.4V14.496L141.304 14.592H136.408V9.696ZM136.792 9.696V14.592H131.896L131.8 14.496V14.4C131.8 13.824 131.864 13.312 131.992 12.864C132.184 12.352 132.408 11.904 132.664 11.52C132.984 11.136 133.336 10.816 133.72 10.56C134.104 10.24 134.52 10.016 134.968 9.888C135.48 9.696 136.024 9.6 136.6 9.6H136.696L136.792 9.696ZM136.792 9.504L136.696 9.6H136.6C136.024 9.6 135.48 9.536 134.968 9.408C134.52 9.216 134.104 8.992 133.72 8.736C133.336 8.416 132.984 8.064 132.664 7.68C132.408 7.296 132.184 6.88 131.992 6.432C131.864 5.92 131.8 5.376 131.8 4.8V4.704L131.896 4.608H136.792V9.504ZM136.408 9.504V4.608H141.304L141.4 4.704V4.8C141.4 5.376 141.304 5.92 141.112 6.432C140.984 6.88 140.76 7.296 140.44 7.68C140.184 8.064 139.864 8.416 139.48 8.736C139.096 8.992 138.648 9.216 138.136 9.408C137.688 9.536 137.176 9.6 136.6 9.6H136.504L136.408 9.504ZM136.408 0.0959988L136.504 0H136.6C137.176 0 137.688 0.0960007 138.136 0.288002C138.648 0.416 139.096 0.639999 139.48 0.959999C139.864 1.216 140.184 1.536 140.44 1.92C140.76 2.304 140.984 2.752 141.112 3.264C141.304 3.712 141.4 4.224 141.4 4.8V4.896L141.304 4.992H136.408V0.0959988ZM136.792 0.0959988V4.992H131.896L131.8 4.896V4.8C131.8 4.224 131.864 3.712 131.992 3.264C132.184 2.752 132.408 2.304 132.664 1.92C132.984 1.536 133.336 1.216 133.72 0.959999C134.104 0.639999 134.52 0.416 134.968 0.288002C135.48 0.0960007 136.024 0 136.6 0H136.696L136.792 0.0959988ZM146.392 47.904L146.296 48H146.2C145.624 48 145.08 47.936 144.568 47.808C144.12 47.616 143.704 47.392 143.32 47.136C142.936 46.816 142.584 46.464 142.264 46.08C142.008 45.696 141.784 45.28 141.592 44.832C141.464 44.32 141.4 43.776 141.4 43.2V43.104L141.496 43.008H146.392V47.904ZM146.008 47.904V43.008H150.904L151 43.104V43.2C151 43.776 150.904 44.32 150.712 44.832C150.584 45.28 150.36 45.696 150.04 46.08C149.784 46.464 149.464 46.816 149.08 47.136C148.696 47.392 148.248 47.616 147.736 47.808C147.288 47.936 146.776 48 146.2 48H146.104L146.008 47.904ZM146.008 38.496L146.104 38.4H146.2C146.776 38.4 147.288 38.496 147.736 38.688C148.248 38.816 148.696 39.04 149.08 39.36C149.464 39.616 149.784 39.936 150.04 40.32C150.36 40.704 150.584 41.152 150.712 41.664C150.904 42.112 151 42.624 151 43.2V43.296L150.904 43.392H146.008V38.496ZM146.392 38.496V43.392H141.496L141.4 43.296V43.2C141.4 42.624 141.464 42.112 141.592 41.664C141.784 41.152 142.008 40.704 142.264 40.32C142.584 39.936 142.936 39.616 143.32 39.36C143.704 39.04 144.12 38.816 144.568 38.688C145.08 38.496 145.624 38.4 146.2 38.4H146.296L146.392 38.496Z" fill="black"/>
</svg>
