<svg width="61" height="74" viewBox="0 0 61 74" fill="none" xmlns="http://www.w3.org/2000/svg">
<path d="M4.992 73.344L4.864 73.472H4.736C4.13867 73.472 3.584 73.3867 3.072 73.216C2.64533 73.0453 2.21867 72.832 1.792 72.576C1.45067 72.32 1.152 72.0213 0.896 71.68C0.64 71.2533 0.426667 70.8267 0.256 70.4C0.0853333 69.888 0 69.3333 0 68.736V68.608L0.128 68.48H4.992V73.344ZM4.48 73.344V68.48H9.344L9.472 68.608V68.736C9.472 69.3333 9.38667 69.888 9.216 70.4C9.04533 70.8267 8.832 71.2533 8.576 71.68C8.32 72.0213 7.97867 72.32 7.552 72.576C7.21067 72.832 6.784 73.0453 6.272 73.216C5.84533 73.3867 5.33333 73.472 4.736 73.472H4.608L4.48 73.344ZM4.48 64.128L4.608 64H4.736C5.33333 64 5.84533 64.0853 6.272 64.256C6.784 64.4267 7.21067 64.64 7.552 64.896C7.97867 65.152 8.32 65.4933 8.576 65.92C8.832 66.2613 9.04533 66.688 9.216 67.2C9.38667 67.6267 9.472 68.1387 9.472 68.736V68.864L9.344 68.992H4.48V64.128ZM4.992 64.128V68.992H0.128L0 68.864V68.736C0 68.1387 0.0853333 67.6267 0.256 67.2C0.426667 66.688 0.64 66.2613 0.896 65.92C1.152 65.4933 1.45067 65.152 1.792 64.896C2.21867 64.64 2.64533 64.4267 3.072 64.256C3.584 64.0853 4.13867 64 4.736 64H4.864L4.992 64.128ZM4.992 60.544L4.864 60.672H4.736C4.13867 60.672 3.584 60.5867 3.072 60.416C2.64533 60.2453 2.21867 60.032 1.792 59.776C1.45067 59.52 1.152 59.2213 0.896 58.88C0.64 58.4533 0.426667 58.0267 0.256 57.6C0.0853333 57.088 0 56.5333 0 55.936V55.808L0.128 55.68H4.992V60.544ZM4.48 60.544V55.68H9.344L9.472 55.808V55.936C9.472 56.5333 9.38667 57.088 9.216 57.6C9.04533 58.0267 8.832 58.4533 8.576 58.88C8.32 59.2213 7.97867 59.52 7.552 59.776C7.21067 60.032 6.784 60.2453 6.272 60.416C5.84533 60.5867 5.33333 60.672 4.736 60.672H4.608L4.48 60.544ZM4.48 51.328L4.608 51.2H4.736C5.33333 51.2 5.84533 51.2853 6.272 51.456C6.784 51.6267 7.21067 51.84 7.552 52.096C7.97867 52.352 8.32 52.6933 8.576 53.12C8.832 53.4613 9.04533 53.888 9.216 54.4C9.38667 54.8267 9.472 55.3387 9.472 55.936V56.064L9.344 56.192H4.48V51.328ZM4.992 51.328V56.192H0.128L0 56.064V55.936C0 55.3387 0.0853333 54.8267 0.256 54.4C0.426667 53.888 0.64 53.4613 0.896 53.12C1.152 52.6933 1.45067 52.352 1.792 52.096C2.21867 51.84 2.64533 51.6267 3.072 51.456C3.584 51.2853 4.13867 51.2 4.736 51.2H4.864L4.992 51.328ZM4.992 47.744L4.864 47.872H4.736C4.13867 47.872 3.584 47.7867 3.072 47.616C2.64533 47.4453 2.21867 47.232 1.792 46.976C1.45067 46.72 1.152 46.4213 0.896 46.08C0.64 45.6533 0.426667 45.2267 0.256 44.8C0.0853333 44.288 0 43.7333 0 43.136V43.008L0.128 42.88H4.992V47.744ZM4.48 47.744V42.88H9.344L9.472 43.008V43.136C9.472 43.7333 9.38667 44.288 9.216 44.8C9.04533 45.2267 8.832 45.6533 8.576 46.08C8.32 46.4213 7.97867 46.72 7.552 46.976C7.21067 47.232 6.784 47.4453 6.272 47.616C5.84533 47.7867 5.33333 47.872 4.736 47.872H4.608L4.48 47.744ZM4.48 38.528L4.608 38.4H4.736C5.33333 38.4 5.84533 38.4853 6.272 38.656C6.784 38.8267 7.21067 39.04 7.552 39.296C7.97867 39.552 8.32 39.8933 8.576 40.32C8.832 40.6613 9.04533 41.088 9.216 41.6C9.38667 42.0267 9.472 42.5387 9.472 43.136V43.264L9.344 43.392H4.48V38.528ZM4.992 38.528V43.392H0.128L0 43.264V43.136C0 42.5387 0.0853333 42.0267 0.256 41.6C0.426667 41.088 0.64 40.6613 0.896 40.32C1.152 39.8933 1.45067 39.552 1.792 39.296C2.21867 39.04 2.64533 38.8267 3.072 38.656C3.584 38.4853 4.13867 38.4 4.736 38.4H4.864L4.992 38.528ZM4.992 34.944L4.864 35.072H4.736C4.13867 35.072 3.584 34.9867 3.072 34.816C2.64533 34.6453 2.21867 34.432 1.792 34.176C1.45067 33.92 1.152 33.6213 0.896 33.28C0.64 32.8533 0.426667 32.4267 0.256 32C0.0853333 31.488 0 30.9333 0 30.336V30.208L0.128 30.08H4.992V34.944ZM4.48 34.944V30.08H9.344L9.472 30.208V30.336C9.472 30.9333 9.38667 31.488 9.216 32C9.04533 32.4267 8.832 32.8533 8.576 33.28C8.32 33.6213 7.97867 33.92 7.552 34.176C7.21067 34.432 6.784 34.6453 6.272 34.816C5.84533 34.9867 5.33333 35.072 4.736 35.072H4.608L4.48 34.944ZM4.48 25.728L4.608 25.6H4.736C5.33333 25.6 5.84533 25.6853 6.272 25.856C6.784 26.0267 7.21067 26.24 7.552 26.496C7.97867 26.752 8.32 27.0933 8.576 27.52C8.832 27.8613 9.04533 28.288 9.216 28.8C9.38667 29.2267 9.472 29.7387 9.472 30.336V30.464L9.344 30.592H4.48V25.728ZM4.992 25.728V30.592H0.128L0 30.464V30.336C0 29.7387 0.0853333 29.2267 0.256 28.8C0.426667 28.288 0.64 27.8613 0.896 27.52C1.152 27.0933 1.45067 26.752 1.792 26.496C2.21867 26.24 2.64533 26.0267 3.072 25.856C3.584 25.6853 4.13867 25.6 4.736 25.6H4.864L4.992 25.728ZM4.992 22.144L4.864 22.272H4.736C4.13867 22.272 3.584 22.1867 3.072 22.016C2.64533 21.8453 2.21867 21.632 1.792 21.376C1.45067 21.12 1.152 20.8213 0.896 20.48C0.64 20.0533 0.426667 19.6267 0.256 19.2C0.0853333 18.688 0 18.1333 0 17.536V17.408L0.128 17.28H4.992V22.144ZM4.48 22.144V17.28H9.344L9.472 17.408V17.536C9.472 18.1333 9.38667 18.688 9.216 19.2C9.04533 19.6267 8.832 20.0533 8.576 20.48C8.32 20.8213 7.97867 21.12 7.552 21.376C7.21067 21.632 6.784 21.8453 6.272 22.016C5.84533 22.1867 5.33333 22.272 4.736 22.272H4.608L4.48 22.144ZM4.48 12.928L4.608 12.8H4.736C5.33333 12.8 5.84533 12.8853 6.272 13.056C6.784 13.2267 7.21067 13.44 7.552 13.696C7.97867 13.952 8.32 14.2933 8.576 14.72C8.832 15.0613 9.04533 15.488 9.216 16C9.38667 16.4267 9.472 16.9387 9.472 17.536V17.664L9.344 17.792H4.48V12.928ZM4.992 12.928V17.792H0.128L0 17.664V17.536C0 16.9387 0.0853333 16.4267 0.256 16C0.426667 15.488 0.64 15.0613 0.896 14.72C1.152 14.2933 1.45067 13.952 1.792 13.696C2.21867 13.44 2.64533 13.2267 3.072 13.056C3.584 12.8853 4.13867 12.8 4.736 12.8H4.864L4.992 12.928ZM4.992 9.344L4.864 9.472H4.736C4.13867 9.472 3.584 9.38667 3.072 9.216C2.64533 9.04533 2.21867 8.832 1.792 8.576C1.45067 8.32 1.152 8.02133 0.896 7.68C0.64 7.25333 0.426667 6.82667 0.256 6.4C0.0853333 5.888 0 5.33333 0 4.736V4.608L0.128 4.48H4.992V9.344ZM4.48 9.344V4.48H9.344L9.472 4.608V4.736C9.472 5.33333 9.38667 5.888 9.216 6.4C9.04533 6.82667 8.832 7.25333 8.576 7.68C8.32 8.02133 7.97867 8.32 7.552 8.576C7.21067 8.832 6.784 9.04533 6.272 9.216C5.84533 9.38667 5.33333 9.472 4.736 9.472H4.608L4.48 9.344ZM4.48 0.127998L4.608 0H4.736C5.33333 0 5.84533 0.0853322 6.272 0.255997C6.784 0.426666 7.21067 0.639999 7.552 0.895996C7.97867 1.152 8.32 1.49333 8.576 1.92C8.832 2.26133 9.04533 2.688 9.216 3.2C9.38667 3.62666 9.472 4.13866 9.472 4.736V4.864L9.344 4.992H4.48V0.127998ZM4.992 0.127998V4.992H0.128L0 4.864V4.736C0 4.13866 0.0853333 3.62666 0.256 3.2C0.426667 2.688 0.64 2.26133 0.896 1.92C1.152 1.49333 1.45067 1.152 1.792 0.895996C2.21867 0.639999 2.64533 0.426666 3.072 0.255997C3.584 0.0853322 4.13867 0 4.736 0H4.864L4.992 0.127998ZM17.792 47.744L17.664 47.872H17.536C16.9387 47.872 16.384 47.7867 15.872 47.616C15.4453 47.4453 15.0187 47.232 14.592 46.976C14.2507 46.72 13.952 46.4213 13.696 46.08C13.44 45.6533 13.2267 45.2267 13.056 44.8C12.8853 44.288 12.8 43.7333 12.8 43.136V43.008L12.928 42.88H17.792V47.744ZM17.28 47.744V42.88H22.144L22.272 43.008V43.136C22.272 43.7333 22.1867 44.288 22.016 44.8C21.8453 45.2267 21.632 45.6533 21.376 46.08C21.12 46.4213 20.7787 46.72 20.352 46.976C20.0107 47.232 19.584 47.4453 19.072 47.616C18.6453 47.7867 18.1333 47.872 17.536 47.872H17.408L17.28 47.744ZM17.28 38.528L17.408 38.4H17.536C18.1333 38.4 18.6453 38.4853 19.072 38.656C19.584 38.8267 20.0107 39.04 20.352 39.296C20.7787 39.552 21.12 39.8933 21.376 40.32C21.632 40.6613 21.8453 41.088 22.016 41.6C22.1867 42.0267 22.272 42.5387 22.272 43.136V43.264L22.144 43.392H17.28V38.528ZM17.792 38.528V43.392H12.928L12.8 43.264V43.136C12.8 42.5387 12.8853 42.0267 13.056 41.6C13.2267 41.088 13.44 40.6613 13.696 40.32C13.952 39.8933 14.2507 39.552 14.592 39.296C15.0187 39.04 15.4453 38.8267 15.872 38.656C16.384 38.4853 16.9387 38.4 17.536 38.4H17.664L17.792 38.528ZM17.792 9.344L17.664 9.472H17.536C16.9387 9.472 16.384 9.38667 15.872 9.216C15.4453 9.04533 15.0187 8.832 14.592 8.576C14.2507 8.32 13.952 8.02133 13.696 7.68C13.44 7.25333 13.2267 6.82667 13.056 6.4C12.8853 5.888 12.8 5.33333 12.8 4.736V4.608L12.928 4.48H17.792V9.344ZM17.28 9.344V4.48H22.144L22.272 4.608V4.736C22.272 5.33333 22.1867 5.888 22.016 6.4C21.8453 6.82667 21.632 7.25333 21.376 7.68C21.12 8.02133 20.7787 8.32 20.352 8.576C20.0107 8.832 19.584 9.04533 19.072 9.216C18.6453 9.38667 18.1333 9.472 17.536 9.472H17.408L17.28 9.344ZM17.28 0.127998L17.408 0H17.536C18.1333 0 18.6453 0.0853322 19.072 0.255997C19.584 0.426666 20.0107 0.639999 20.352 0.895996C20.7787 1.152 21.12 1.49333 21.376 1.92C21.632 2.26133 21.8453 2.688 22.016 3.2C22.1867 3.62666 22.272 4.13866 22.272 4.736V4.864L22.144 4.992H17.28V0.127998ZM17.792 0.127998V4.992H12.928L12.8 4.864V4.736C12.8 4.13866 12.8853 3.62666 13.056 3.2C13.2267 2.688 13.44 2.26133 13.696 1.92C13.952 1.49333 14.2507 1.152 14.592 0.895996C15.0187 0.639999 15.4453 0.426666 15.872 0.255997C16.384 0.0853322 16.9387 0 17.536 0H17.664L17.792 0.127998ZM30.592 47.744L30.464 47.872H30.336C29.7387 47.872 29.184 47.7867 28.672 47.616C28.2453 47.4453 27.8187 47.232 27.392 46.976C27.0507 46.72 26.752 46.4213 26.496 46.08C26.24 45.6533 26.0267 45.2267 25.856 44.8C25.6853 44.288 25.6 43.7333 25.6 43.136V43.008L25.728 42.88H30.592V47.744ZM30.08 47.744V42.88H34.944L35.072 43.008V43.136C35.072 43.7333 34.9867 44.288 34.816 44.8C34.6453 45.2267 34.432 45.6533 34.176 46.08C33.92 46.4213 33.5787 46.72 33.152 46.976C32.8107 47.232 32.384 47.4453 31.872 47.616C31.4453 47.7867 30.9333 47.872 30.336 47.872H30.208L30.08 47.744ZM30.08 38.528L30.208 38.4H30.336C30.9333 38.4 31.4453 38.4853 31.872 38.656C32.384 38.8267 32.8107 39.04 33.152 39.296C33.5787 39.552 33.92 39.8933 34.176 40.32C34.432 40.6613 34.6453 41.088 34.816 41.6C34.9867 42.0267 35.072 42.5387 35.072 43.136V43.264L34.944 43.392H30.08V38.528ZM30.592 38.528V43.392H25.728L25.6 43.264V43.136C25.6 42.5387 25.6853 42.0267 25.856 41.6C26.0267 41.088 26.24 40.6613 26.496 40.32C26.752 39.8933 27.0507 39.552 27.392 39.296C27.8187 39.04 28.2453 38.8267 28.672 38.656C29.184 38.4853 29.7387 38.4 30.336 38.4H30.464L30.592 38.528ZM30.592 9.344L30.464 9.472H30.336C29.7387 9.472 29.184 9.38667 28.672 9.216C28.2453 9.04533 27.8187 8.832 27.392 8.576C27.0507 8.32 26.752 8.02133 26.496 7.68C26.24 7.25333 26.0267 6.82667 25.856 6.4C25.6853 5.888 25.6 5.33333 25.6 4.736V4.608L25.728 4.48H30.592V9.344ZM30.08 9.344V4.48H34.944L35.072 4.608V4.736C35.072 5.33333 34.9867 5.888 34.816 6.4C34.6453 6.82667 34.432 7.25333 34.176 7.68C33.92 8.02133 33.5787 8.32 33.152 8.576C32.8107 8.832 32.384 9.04533 31.872 9.216C31.4453 9.38667 30.9333 9.472 30.336 9.472H30.208L30.08 9.344ZM30.08 0.127998L30.208 0H30.336C30.9333 0 31.4453 0.0853322 31.872 0.255997C32.384 0.426666 32.8107 0.639999 33.152 0.895996C33.5787 1.152 33.92 1.49333 34.176 1.92C34.432 2.26133 34.6453 2.688 34.816 3.2C34.9867 3.62666 35.072 4.13866 35.072 4.736V4.864L34.944 4.992H30.08V0.127998ZM30.592 0.127998V4.992H25.728L25.6 4.864V4.736C25.6 4.13866 25.6853 3.62666 25.856 3.2C26.0267 2.688 26.24 2.26133 26.496 1.92C26.752 1.49333 27.0507 1.152 27.392 0.895996C27.8187 0.639999 28.2453 0.426666 28.672 0.255997C29.184 0.0853322 29.7387 0 30.336 0H30.464L30.592 0.127998ZM43.392 47.744L43.264 47.872H43.136C42.5387 47.872 41.984 47.7867 41.472 47.616C41.0453 47.4453 40.6187 47.232 40.192 46.976C39.8507 46.72 39.552 46.4213 39.296 46.08C39.04 45.6533 38.8267 45.2267 38.656 44.8C38.4853 44.288 38.4 43.7333 38.4 43.136V43.008L38.528 42.88H43.392V47.744ZM42.88 47.744V42.88H47.744L47.872 43.008V43.136C47.872 43.7333 47.7867 44.288 47.616 44.8C47.4453 45.2267 47.232 45.6533 46.976 46.08C46.72 46.4213 46.3787 46.72 45.952 46.976C45.6107 47.232 45.184 47.4453 44.672 47.616C44.2453 47.7867 43.7333 47.872 43.136 47.872H43.008L42.88 47.744ZM42.88 38.528L43.008 38.4H43.136C43.7333 38.4 44.2453 38.4853 44.672 38.656C45.184 38.8267 45.6107 39.04 45.952 39.296C46.3787 39.552 46.72 39.8933 46.976 40.32C47.232 40.6613 47.4453 41.088 47.616 41.6C47.7867 42.0267 47.872 42.5387 47.872 43.136V43.264L47.744 43.392H42.88V38.528ZM43.392 38.528V43.392H38.528L38.4 43.264V43.136C38.4 42.5387 38.4853 42.0267 38.656 41.6C38.8267 41.088 39.04 40.6613 39.296 40.32C39.552 39.8933 39.8507 39.552 40.192 39.296C40.6187 39.04 41.0453 38.8267 41.472 38.656C41.984 38.4853 42.5387 38.4 43.136 38.4H43.264L43.392 38.528ZM43.392 9.344L43.264 9.472H43.136C42.5387 9.472 41.984 9.38667 41.472 9.216C41.0453 9.04533 40.6187 8.832 40.192 8.576C39.8507 8.32 39.552 8.02133 39.296 7.68C39.04 7.25333 38.8267 6.82667 38.656 6.4C38.4853 5.888 38.4 5.33333 38.4 4.736V4.608L38.528 4.48H43.392V9.344ZM42.88 9.344V4.48H47.744L47.872 4.608V4.736C47.872 5.33333 47.7867 5.888 47.616 6.4C47.4453 6.82667 47.232 7.25333 46.976 7.68C46.72 8.02133 46.3787 8.32 45.952 8.576C45.6107 8.832 45.184 9.04533 44.672 9.216C44.2453 9.38667 43.7333 9.472 43.136 9.472H43.008L42.88 9.344ZM42.88 0.127998L43.008 0H43.136C43.7333 0 44.2453 0.0853322 44.672 0.255997C45.184 0.426666 45.6107 0.639999 45.952 0.895996C46.3787 1.152 46.72 1.49333 46.976 1.92C47.232 2.26133 47.4453 2.688 47.616 3.2C47.7867 3.62666 47.872 4.13866 47.872 4.736V4.864L47.744 4.992H42.88V0.127998ZM43.392 0.127998V4.992H38.528L38.4 4.864V4.736C38.4 4.13866 38.4853 3.62666 38.656 3.2C38.8267 2.688 39.04 2.26133 39.296 1.92C39.552 1.49333 39.8507 1.152 40.192 0.895996C40.6187 0.639999 41.0453 0.426666 41.472 0.255997C41.984 0.0853322 42.5387 0 43.136 0H43.264L43.392 0.127998ZM56.192 34.944L56.064 35.072H55.936C55.3387 35.072 54.784 34.9867 54.272 34.816C53.8453 34.6453 53.4187 34.432 52.992 34.176C52.6507 33.92 52.352 33.6213 52.096 33.28C51.84 32.8533 51.6267 32.4267 51.456 32C51.2853 31.488 51.2 30.9333 51.2 30.336V30.208L51.328 30.08H56.192V34.944ZM55.68 34.944V30.08H60.544L60.672 30.208V30.336C60.672 30.9333 60.5867 31.488 60.416 32C60.2453 32.4267 60.032 32.8533 59.776 33.28C59.52 33.6213 59.1787 33.92 58.752 34.176C58.4107 34.432 57.984 34.6453 57.472 34.816C57.0453 34.9867 56.5333 35.072 55.936 35.072H55.808L55.68 34.944ZM55.68 25.728L55.808 25.6H55.936C56.5333 25.6 57.0453 25.6853 57.472 25.856C57.984 26.0267 58.4107 26.24 58.752 26.496C59.1787 26.752 59.52 27.0933 59.776 27.52C60.032 27.8613 60.2453 28.288 60.416 28.8C60.5867 29.2267 60.672 29.7387 60.672 30.336V30.464L60.544 30.592H55.68V25.728ZM56.192 25.728V30.592H51.328L51.2 30.464V30.336C51.2 29.7387 51.2853 29.2267 51.456 28.8C51.6267 28.288 51.84 27.8613 52.096 27.52C52.352 27.0933 52.6507 26.752 52.992 26.496C53.4187 26.24 53.8453 26.0267 54.272 25.856C54.784 25.6853 55.3387 25.6 55.936 25.6H56.064L56.192 25.728ZM56.192 22.144L56.064 22.272H55.936C55.3387 22.272 54.784 22.1867 54.272 22.016C53.8453 21.8453 53.4187 21.632 52.992 21.376C52.6507 21.12 52.352 20.8213 52.096 20.48C51.84 20.0533 51.6267 19.6267 51.456 19.2C51.2853 18.688 51.2 18.1333 51.2 17.536V17.408L51.328 17.28H56.192V22.144ZM55.68 22.144V17.28H60.544L60.672 17.408V17.536C60.672 18.1333 60.5867 18.688 60.416 19.2C60.2453 19.6267 60.032 20.0533 59.776 20.48C59.52 20.8213 59.1787 21.12 58.752 21.376C58.4107 21.632 57.984 21.8453 57.472 22.016C57.0453 22.1867 56.5333 22.272 55.936 22.272H55.808L55.68 22.144ZM55.68 12.928L55.808 12.8H55.936C56.5333 12.8 57.0453 12.8853 57.472 13.056C57.984 13.2267 58.4107 13.44 58.752 13.696C59.1787 13.952 59.52 14.2933 59.776 14.72C60.032 15.0613 60.2453 15.488 60.416 16C60.5867 16.4267 60.672 16.9387 60.672 17.536V17.664L60.544 17.792H55.68V12.928ZM56.192 12.928V17.792H51.328L51.2 17.664V17.536C51.2 16.9387 51.2853 16.4267 51.456 16C51.6267 15.488 51.84 15.0613 52.096 14.72C52.352 14.2933 52.6507 13.952 52.992 13.696C53.4187 13.44 53.8453 13.2267 54.272 13.056C54.784 12.8853 55.3387 12.8 55.936 12.8H56.064L56.192 12.928Z" fill="#21808D"/>
</svg>
