<svg width="61" height="61" viewBox="0 0 61 61" fill="none" xmlns="http://www.w3.org/2000/svg">
<path d="M4.992 60.544L4.864 60.672H4.736C4.13867 60.672 3.584 60.5867 3.072 60.416C2.64533 60.2453 2.21867 60.032 1.792 59.776C1.45067 59.52 1.152 59.2213 0.896 58.88C0.64 58.4533 0.426667 58.0267 0.256 57.6C0.0853333 57.088 0 56.5333 0 55.936V55.808L0.128 55.68H4.992V60.544ZM4.48 60.544V55.68H9.344L9.472 55.808V55.936C9.472 56.5333 9.38667 57.088 9.216 57.6C9.04533 58.0267 8.832 58.4533 8.576 58.88C8.32 59.2213 7.97867 59.52 7.552 59.776C7.21067 60.032 6.784 60.2453 6.272 60.416C5.84533 60.5867 5.33333 60.672 4.736 60.672H4.608L4.48 60.544ZM4.48 51.328L4.608 51.2H4.736C5.33333 51.2 5.84533 51.2853 6.272 51.456C6.784 51.6267 7.21067 51.84 7.552 52.096C7.97867 52.352 8.32 52.6933 8.576 53.12C8.832 53.4613 9.04533 53.888 9.216 54.4C9.38667 54.8267 9.472 55.3387 9.472 55.936V56.064L9.344 56.192H4.48V51.328ZM4.992 51.328V56.192H0.128L0 56.064V55.936C0 55.3387 0.0853333 54.8267 0.256 54.4C0.426667 53.888 0.64 53.4613 0.896 53.12C1.152 52.6933 1.45067 52.352 1.792 52.096C2.21867 51.84 2.64533 51.6267 3.072 51.456C3.584 51.2853 4.13867 51.2 4.736 51.2H4.864L4.992 51.328ZM4.992 9.344L4.864 9.472H4.736C4.13867 9.472 3.584 9.38667 3.072 9.216C2.64533 9.04533 2.21867 8.832 1.792 8.576C1.45067 8.32 1.152 8.02133 0.896 7.68C0.64 7.25333 0.426667 6.82667 0.256 6.4C0.0853333 5.888 0 5.33333 0 4.736V4.608L0.128 4.48H4.992V9.344ZM4.48 9.344V4.48H9.344L9.472 4.608V4.736C9.472 5.33333 9.38667 5.888 9.216 6.4C9.04533 6.82667 8.832 7.25333 8.576 7.68C8.32 8.02133 7.97867 8.32 7.552 8.576C7.21067 8.832 6.784 9.04533 6.272 9.216C5.84533 9.38667 5.33333 9.472 4.736 9.472H4.608L4.48 9.344ZM4.48 0.127998L4.608 0H4.736C5.33333 0 5.84533 0.0853335 6.272 0.256001C6.784 0.426668 7.21067 0.640001 7.552 0.896C7.97867 1.152 8.32 1.49333 8.576 1.92C8.832 2.26133 9.04533 2.688 9.216 3.2C9.38667 3.62667 9.472 4.13867 9.472 4.736V4.864L9.344 4.992H4.48V0.127998ZM4.992 0.127998V4.992H0.128L0 4.864V4.736C0 4.13867 0.0853333 3.62667 0.256 3.2C0.426667 2.688 0.64 2.26133 0.896 1.92C1.152 1.49333 1.45067 1.152 1.792 0.896C2.21867 0.640001 2.64533 0.426668 3.072 0.256001C3.584 0.0853335 4.13867 0 4.736 0H4.864L4.992 0.127998ZM17.792 47.744L17.664 47.872H17.536C16.9387 47.872 16.384 47.7867 15.872 47.616C15.4453 47.4453 15.0187 47.232 14.592 46.976C14.2507 46.72 13.952 46.4213 13.696 46.08C13.44 45.6533 13.2267 45.2267 13.056 44.8C12.8853 44.288 12.8 43.7333 12.8 43.136V43.008L12.928 42.88H17.792V47.744ZM17.28 47.744V42.88H22.144L22.272 43.008V43.136C22.272 43.7333 22.1867 44.288 22.016 44.8C21.8453 45.2267 21.632 45.6533 21.376 46.08C21.12 46.4213 20.7787 46.72 20.352 46.976C20.0107 47.232 19.584 47.4453 19.072 47.616C18.6453 47.7867 18.1333 47.872 17.536 47.872H17.408L17.28 47.744ZM17.28 38.528L17.408 38.4H17.536C18.1333 38.4 18.6453 38.4853 19.072 38.656C19.584 38.8267 20.0107 39.04 20.352 39.296C20.7787 39.552 21.12 39.8933 21.376 40.32C21.632 40.6613 21.8453 41.088 22.016 41.6C22.1867 42.0267 22.272 42.5387 22.272 43.136V43.264L22.144 43.392H17.28V38.528ZM17.792 38.528V43.392H12.928L12.8 43.264V43.136C12.8 42.5387 12.8853 42.0267 13.056 41.6C13.2267 41.088 13.44 40.6613 13.696 40.32C13.952 39.8933 14.2507 39.552 14.592 39.296C15.0187 39.04 15.4453 38.8267 15.872 38.656C16.384 38.4853 16.9387 38.4 17.536 38.4H17.664L17.792 38.528ZM17.792 22.144L17.664 22.272H17.536C16.9387 22.272 16.384 22.1867 15.872 22.016C15.4453 21.8453 15.0187 21.632 14.592 21.376C14.2507 21.12 13.952 20.8213 13.696 20.48C13.44 20.0533 13.2267 19.6267 13.056 19.2C12.8853 18.688 12.8 18.1333 12.8 17.536V17.408L12.928 17.28H17.792V22.144ZM17.28 22.144V17.28H22.144L22.272 17.408V17.536C22.272 18.1333 22.1867 18.688 22.016 19.2C21.8453 19.6267 21.632 20.0533 21.376 20.48C21.12 20.8213 20.7787 21.12 20.352 21.376C20.0107 21.632 19.584 21.8453 19.072 22.016C18.6453 22.1867 18.1333 22.272 17.536 22.272H17.408L17.28 22.144ZM17.28 12.928L17.408 12.8H17.536C18.1333 12.8 18.6453 12.8853 19.072 13.056C19.584 13.2267 20.0107 13.44 20.352 13.696C20.7787 13.952 21.12 14.2933 21.376 14.72C21.632 15.0613 21.8453 15.488 22.016 16C22.1867 16.4267 22.272 16.9387 22.272 17.536V17.664L22.144 17.792H17.28V12.928ZM17.792 12.928V17.792H12.928L12.8 17.664V17.536C12.8 16.9387 12.8853 16.4267 13.056 16C13.2267 15.488 13.44 15.0613 13.696 14.72C13.952 14.2933 14.2507 13.952 14.592 13.696C15.0187 13.44 15.4453 13.2267 15.872 13.056C16.384 12.8853 16.9387 12.8 17.536 12.8H17.664L17.792 12.928ZM30.592 34.944L30.464 35.072H30.336C29.7387 35.072 29.184 34.9867 28.672 34.816C28.2453 34.6453 27.8187 34.432 27.392 34.176C27.0507 33.92 26.752 33.6213 26.496 33.28C26.24 32.8533 26.0267 32.4267 25.856 32C25.6853 31.488 25.6 30.9333 25.6 30.336V30.208L25.728 30.08H30.592V34.944ZM30.08 34.944V30.08H34.944L35.072 30.208V30.336C35.072 30.9333 34.9867 31.488 34.816 32C34.6453 32.4267 34.432 32.8533 34.176 33.28C33.92 33.6213 33.5787 33.92 33.152 34.176C32.8107 34.432 32.384 34.6453 31.872 34.816C31.4453 34.9867 30.9333 35.072 30.336 35.072H30.208L30.08 34.944ZM30.08 25.728L30.208 25.6H30.336C30.9333 25.6 31.4453 25.6853 31.872 25.856C32.384 26.0267 32.8107 26.24 33.152 26.496C33.5787 26.752 33.92 27.0933 34.176 27.52C34.432 27.8613 34.6453 28.288 34.816 28.8C34.9867 29.2267 35.072 29.7387 35.072 30.336V30.464L34.944 30.592H30.08V25.728ZM30.592 25.728V30.592H25.728L25.6 30.464V30.336C25.6 29.7387 25.6853 29.2267 25.856 28.8C26.0267 28.288 26.24 27.8613 26.496 27.52C26.752 27.0933 27.0507 26.752 27.392 26.496C27.8187 26.24 28.2453 26.0267 28.672 25.856C29.184 25.6853 29.7387 25.6 30.336 25.6H30.464L30.592 25.728ZM43.392 47.744L43.264 47.872H43.136C42.5387 47.872 41.984 47.7867 41.472 47.616C41.0453 47.4453 40.6187 47.232 40.192 46.976C39.8507 46.72 39.552 46.4213 39.296 46.08C39.04 45.6533 38.8267 45.2267 38.656 44.8C38.4853 44.288 38.4 43.7333 38.4 43.136V43.008L38.528 42.88H43.392V47.744ZM42.88 47.744V42.88H47.744L47.872 43.008V43.136C47.872 43.7333 47.7867 44.288 47.616 44.8C47.4453 45.2267 47.232 45.6533 46.976 46.08C46.72 46.4213 46.3787 46.72 45.952 46.976C45.6107 47.232 45.184 47.4453 44.672 47.616C44.2453 47.7867 43.7333 47.872 43.136 47.872H43.008L42.88 47.744ZM42.88 38.528L43.008 38.4H43.136C43.7333 38.4 44.2453 38.4853 44.672 38.656C45.184 38.8267 45.6107 39.04 45.952 39.296C46.3787 39.552 46.72 39.8933 46.976 40.32C47.232 40.6613 47.4453 41.088 47.616 41.6C47.7867 42.0267 47.872 42.5387 47.872 43.136V43.264L47.744 43.392H42.88V38.528ZM43.392 38.528V43.392H38.528L38.4 43.264V43.136C38.4 42.5387 38.4853 42.0267 38.656 41.6C38.8267 41.088 39.04 40.6613 39.296 40.32C39.552 39.8933 39.8507 39.552 40.192 39.296C40.6187 39.04 41.0453 38.8267 41.472 38.656C41.984 38.4853 42.5387 38.4 43.136 38.4H43.264L43.392 38.528ZM43.392 22.144L43.264 22.272H43.136C42.5387 22.272 41.984 22.1867 41.472 22.016C41.0453 21.8453 40.6187 21.632 40.192 21.376C39.8507 21.12 39.552 20.8213 39.296 20.48C39.04 20.0533 38.8267 19.6267 38.656 19.2C38.4853 18.688 38.4 18.1333 38.4 17.536V17.408L38.528 17.28H43.392V22.144ZM42.88 22.144V17.28H47.744L47.872 17.408V17.536C47.872 18.1333 47.7867 18.688 47.616 19.2C47.4453 19.6267 47.232 20.0533 46.976 20.48C46.72 20.8213 46.3787 21.12 45.952 21.376C45.6107 21.632 45.184 21.8453 44.672 22.016C44.2453 22.1867 43.7333 22.272 43.136 22.272H43.008L42.88 22.144ZM42.88 12.928L43.008 12.8H43.136C43.7333 12.8 44.2453 12.8853 44.672 13.056C45.184 13.2267 45.6107 13.44 45.952 13.696C46.3787 13.952 46.72 14.2933 46.976 14.72C47.232 15.0613 47.4453 15.488 47.616 16C47.7867 16.4267 47.872 16.9387 47.872 17.536V17.664L47.744 17.792H42.88V12.928ZM43.392 12.928V17.792H38.528L38.4 17.664V17.536C38.4 16.9387 38.4853 16.4267 38.656 16C38.8267 15.488 39.04 15.0613 39.296 14.72C39.552 14.2933 39.8507 13.952 40.192 13.696C40.6187 13.44 41.0453 13.2267 41.472 13.056C41.984 12.8853 42.5387 12.8 43.136 12.8H43.264L43.392 12.928ZM56.192 60.544L56.064 60.672H55.936C55.3387 60.672 54.784 60.5867 54.272 60.416C53.8453 60.2453 53.4187 60.032 52.992 59.776C52.6507 59.52 52.352 59.2213 52.096 58.88C51.84 58.4533 51.6267 58.0267 51.456 57.6C51.2853 57.088 51.2 56.5333 51.2 55.936V55.808L51.328 55.68H56.192V60.544ZM55.68 60.544V55.68H60.544L60.672 55.808V55.936C60.672 56.5333 60.5867 57.088 60.416 57.6C60.2453 58.0267 60.032 58.4533 59.776 58.88C59.52 59.2213 59.1787 59.52 58.752 59.776C58.4107 60.032 57.984 60.2453 57.472 60.416C57.0453 60.5867 56.5333 60.672 55.936 60.672H55.808L55.68 60.544ZM55.68 51.328L55.808 51.2H55.936C56.5333 51.2 57.0453 51.2853 57.472 51.456C57.984 51.6267 58.4107 51.84 58.752 52.096C59.1787 52.352 59.52 52.6933 59.776 53.12C60.032 53.4613 60.2453 53.888 60.416 54.4C60.5867 54.8267 60.672 55.3387 60.672 55.936V56.064L60.544 56.192H55.68V51.328ZM56.192 51.328V56.192H51.328L51.2 56.064V55.936C51.2 55.3387 51.2853 54.8267 51.456 54.4C51.6267 53.888 51.84 53.4613 52.096 53.12C52.352 52.6933 52.6507 52.352 52.992 52.096C53.4187 51.84 53.8453 51.6267 54.272 51.456C54.784 51.2853 55.3387 51.2 55.936 51.2H56.064L56.192 51.328ZM56.192 9.344L56.064 9.472H55.936C55.3387 9.472 54.784 9.38667 54.272 9.216C53.8453 9.04533 53.4187 8.832 52.992 8.576C52.6507 8.32 52.352 8.02133 52.096 7.68C51.84 7.25333 51.6267 6.82667 51.456 6.4C51.2853 5.888 51.2 5.33333 51.2 4.736V4.608L51.328 4.48H56.192V9.344ZM55.68 9.344V4.48H60.544L60.672 4.608V4.736C60.672 5.33333 60.5867 5.888 60.416 6.4C60.2453 6.82667 60.032 7.25333 59.776 7.68C59.52 8.02133 59.1787 8.32 58.752 8.576C58.4107 8.832 57.984 9.04533 57.472 9.216C57.0453 9.38667 56.5333 9.472 55.936 9.472H55.808L55.68 9.344ZM55.68 0.127998L55.808 0H55.936C56.5333 0 57.0453 0.0853335 57.472 0.256001C57.984 0.426668 58.4107 0.640001 58.752 0.896C59.1787 1.152 59.52 1.49333 59.776 1.92C60.032 2.26133 60.2453 2.688 60.416 3.2C60.5867 3.62667 60.672 4.13867 60.672 4.736V4.864L60.544 4.992H55.68V0.127998ZM56.192 0.127998V4.992H51.328L51.2 4.864V4.736C51.2 4.13867 51.2853 3.62667 51.456 3.2C51.6267 2.688 51.84 2.26133 52.096 1.92C52.352 1.49333 52.6507 1.152 52.992 0.896C53.4187 0.640001 53.8453 0.426668 54.272 0.256001C54.784 0.0853335 55.3387 0 55.936 0H56.064L56.192 0.127998Z" fill="#21808D"/>
</svg>
